<?xml version="1.0" encoding="utf-8"?>
<!-- Generator: Adobe Illustrator 21.1.0, SVG Export Plug-In . SVG Version: 6.00 Build 0)  -->
<svg version="1.1" id="Capa_1" xmlns="http://www.w3.org/2000/svg" xmlns:xlink="http://www.w3.org/1999/xlink" x="0px" y="0px"
	 viewBox="0 0 639 1334" style="enable-background:new 0 0 639 1334;" xml:space="preserve">
<style type="text/css">
	.st0{fill:#FF8000;}
	.st1{fill:#5B575E;}
	.st2{fill:#665C7A;}
	.st3{fill:#534B64;}
	.st4{fill:#F5B510;}
	.st5{fill:#FAC911;}
	.st6{fill:#F8E618;}
	.st7{fill:#EBDF9F;}
	.st8{fill:#7DCDCE;}
	.st9{fill:#FFFFFF;}
	.st10{fill:#F88011;}
	.st11{fill:#E3BF14;}
	.st12{fill:#4AB2AC;}
	.st13{opacity:9.000000e-02;fill:#FFFFFF;}
	.st14{fill:#FCFCFC;}
	.st15{fill:#E5E5E5;}
	.st16{opacity:0.7;fill:#C1C0C6;}
	.st17{fill:#C1C0C6;}
	.st18{fill:url(#SVGID_1_);}
	.st19{fill:url(#SVGID_2_);}
	.st20{fill:url(#SVGID_3_);}
	.st21{opacity:0.6;fill:url(#SVGID_4_);}
	.st22{fill:url(#SVGID_5_);}
	.st23{fill:url(#SVGID_6_);}
	.st24{fill:url(#SVGID_7_);}
	.st25{fill:url(#SVGID_8_);}
	.st26{fill:url(#SVGID_9_);}
	.st27{fill:url(#SVGID_10_);}
	.st28{fill:url(#SVGID_11_);}
</style>
<g>
	<g>
		<circle class="st0" cx="337.1" cy="667.6" r="131.5"/>
		<g>
			<path class="st1" d="M298,736c0,1.6-1.3,3-3,3h-15.5c-1.6,0-3-1.3-3-3v-25.2c0-1.6,1.3-3,3-3h15.5c1.6,0,3,1.3,3,3V736z"/>
			<path class="st1" d="M399.1,736c0,1.6-1.3,3-3,3h-15.5c-1.6,0-3-1.3-3-3v-25.2c0-1.6,1.3-3,3-3h15.5c1.6,0,3,1.3,3,3V736z"/>
			<g>
				<g>
					<polygon class="st2" points="395.2,661.8 393.7,659.2 406.6,651.4 406.6,625 393.8,619.1 395.1,616.4 409.6,623.1 409.6,653.1 
											"/>
				</g>
				<path class="st3" d="M414.6,647.3c0,1.4-1.1,2.5-2.5,2.5h-8.1c-1.4,0-2.5-1.1-2.5-2.5v-18.9c0-1.4,1.1-2.5,2.5-2.5h8.1
					c1.4,0,2.5,1.1,2.5,2.5V647.3z"/>
				<g>
					<polygon class="st2" points="280.8,661.8 266.4,653.1 266.4,623.1 280.9,616.4 282.2,619.1 269.4,625 269.4,651.4 282.3,659.2 
											"/>
				</g>
				<path class="st3" d="M261.4,647.3c0,1.4,1.1,2.5,2.5,2.5h8.1c1.4,0,2.5-1.1,2.5-2.5v-18.9c0-1.4-1.1-2.5-2.5-2.5h-8.1
					c-1.4,0-2.5,1.1-2.5,2.5V647.3z"/>
			</g>
			<rect x="279" y="617.8" class="st4" width="117.8" height="65.3"/>
			<rect x="284.2" y="662.3" class="st5" width="107.3" height="57.4"/>
			<path class="st6" d="M295.6,673.7v46h-22.8v-46c0-6.3,5.1-11.4,11.4-11.4c3.1,0,6,1.3,8.1,3.3
				C294.3,667.7,295.6,670.5,295.6,673.7z"/>
			<path class="st6" d="M402.9,673.7v46h-22.8v-46c0-6.3,5.1-11.4,11.4-11.4c3.2,0,6,1.3,8.1,3.3
				C401.6,667.7,402.9,670.5,402.9,673.7z"/>
			<path class="st7" d="M382.1,667.3c-1.2,1.8-2,4-2,6.4v46h-5.7V678C374.4,673.1,377.6,668.8,382.1,667.3z"/>
			<path class="st8" d="M410.5,713.9c0,3.3-2.6,5.9-5.9,5.9H271.2c-3.3,0-5.9-2.7-5.9-5.9c0-1.6,0.7-3.1,1.7-4.2
				c1.1-1.1,2.6-1.7,4.2-1.7h133.4C407.8,708,410.5,710.6,410.5,713.9z"/>
			<ellipse class="st4" cx="337.9" cy="617.8" rx="58.9" ry="17.6"/>
			<circle class="st9" cx="284.2" cy="675.3" r="7.6"/>
			<path class="st10" d="M289.6,690c0,3-2.4,5.4-5.4,5.4c-3,0-5.4-2.4-5.4-5.4c0-3,2.4-5.4,5.4-5.4C287.2,684.6,289.6,687,289.6,690
				z"/>
			<circle class="st10" cx="391.5" cy="690" r="5.4"/>
			<ellipse class="st9" cx="391.5" cy="675.3" rx="7.6" ry="7.6"/>
			<rect x="303.4" y="673.7" class="st11" width="68.9" height="28"/>
			<polygon class="st7" points="372.3,673.7 372.3,701.7 367.9,701.7 367.9,678 303.4,678 303.4,673.7 			"/>
			<rect x="286.8" y="628.2" class="st12" width="47.1" height="27.4"/>
			<rect x="342.3" y="628.2" class="st12" width="47.2" height="27.4"/>
			<polygon class="st13" points="389.4,628.2 389.4,655.6 342.3,628.2 			"/>
			<polygon class="st13" points="333.9,628.2 333.9,655.6 286.8,628.2 			"/>
			<rect x="311.8" y="610.6" class="st14" width="52.2" height="10.1"/>
			<rect x="316.2" y="715.5" class="st15" width="43.3" height="11.1"/>
		</g>
		<path class="st16" d="M398.1,738.2l-60.9,60.9h-0.1c-67.4,0-123-50.7-130.6-116.1l55-55c-0.1,0.1-0.1,0.3-0.1,0.4v18.9
			c0,1.4,1.1,2.5,2.5,2.5h2.5v3.3l12.5,7.5v2.9c-3.6,1.9-6.2,5.7-6.2,10.1V708h-1.6c-1.6,0-3.1,0.7-4.2,1.8
			c-1.1,1.1-1.8,2.5-1.8,4.2c0,3.3,2.7,5.9,5.9,5.9h5.5V736c0,1.6,1.3,3,3,3h15.5c1.6,0,3-1.3,3-3v-16.1h18.2v6.7h43.3v-6.7h18.2
			V736c0,1.6,1.3,3,3,3h15.5C396.9,739,397.6,738.7,398.1,738.2z"/>
		<path class="st17" d="M401.6,628.4v18.9c0,1.4,1.1,2.5,2.5,2.5h2.5v1.6l-9.9,5.9v-36.9l9.9,4.5v1h-2.5
			C402.7,625.9,401.6,627.1,401.6,628.4z"/>
		<path class="st17" d="M278.9,620.6v36.6l-9.6-5.7v-1.6h2.5c1.4,0,2.5-1.1,2.5-2.5v-18.9c0-1.4-1.1-2.5-2.5-2.5h-2.5v-1
			L278.9,620.6z"/>
	</g>
	
		<linearGradient id="SVGID_1_" gradientUnits="userSpaceOnUse" x1="111.1413" y1="885.4808" x2="416.7636" y2="885.4808" gradientTransform="matrix(0.9416 -0.3368 0.3368 0.9416 -221.2722 -81.7324)">
		<stop  offset="0" style="stop-color:#DC70C8"/>
		<stop  offset="1" style="stop-color:#AF70F0"/>
	</linearGradient>
	<path class="st18" d="M394.4,781.6c-26.2,18.4-58.5,20.3-92.7,12.5c-60.1-13.7-92.7-69.1-83.4-127.2c9.7-61.2,68.3-97.7,131-85.5
		c13,2.5,25.1,7.1,36,13.3c15.9,9.1,35.6,9,51-0.9l1.3-0.8c17.2-11.1,19-34.9,3.6-48.3c-22.1-19.4-50-33.1-81.7-38.2
		c-84.4-13.7-166.1,40-184.2,120.9c-19.1,85.3,37.8,168.9,126,186c37.2,7.2,73.9,1.4,105.2-14.1c5.5-2.7,7.5-9.4,4.3-14.6l0,0
		C407.3,779.3,399.8,777.9,394.4,781.6z"/>
	
		<linearGradient id="SVGID_2_" gradientUnits="userSpaceOnUse" x1="263.6588" y1="839.3513" x2="266.6976" y2="1005.8808" gradientTransform="matrix(0.9416 -0.3368 0.3368 0.9416 -221.2722 -81.7324)">
		<stop  offset="0" style="stop-color:#00BCEF"/>
		<stop  offset="0.3944" style="stop-color:#18CFF0"/>
		<stop  offset="1" style="stop-color:#44F2F2"/>
	</linearGradient>
	<path class="st19" d="M394.4,781.6c-26.2,18.4-58.5,20.3-92.7,12.5c-60.1-13.7-92.7-69.1-83.4-127.2c9.7-61.2,68.3-97.7,131-85.5
		c13,2.5,25.1,7.1,36,13.3c15.9,9.1,35.6,9,51-0.9l1.3-0.8c17.2-11.1,19-34.9,3.6-48.3c-22.1-19.4-50-33.1-81.7-38.2
		c-84.4-13.7-166.1,40-184.2,120.9c-19.1,85.3,37.8,168.9,126,186c37.2,7.2,73.9,1.4,105.2-14.1c5.5-2.7,7.5-9.4,4.3-14.6l0,0
		C407.3,779.3,399.8,777.9,394.4,781.6z"/>
	
		<linearGradient id="SVGID_3_" gradientUnits="userSpaceOnUse" x1="278.0058" y1="782.8607" x2="236.9538" y2="974.4359" gradientTransform="matrix(0.9416 -0.3368 0.3368 0.9416 -221.2722 -81.7324)">
		<stop  offset="0" style="stop-color:#6B4C9D"/>
		<stop  offset="1" style="stop-color:#6D7DE5"/>
	</linearGradient>
	<path class="st20" d="M213.1,669.5c13-60.7,73.4-100.2,136.2-88.1c13,2.5,25.1,7.1,36,13.3c15.9,9.1,35.6,9,51-0.9l1.3-0.8
		c17.2-11.1,19-34.9,3.6-48.3c-22.1-19.4-50-33.1-81.7-38.2c-84.4-13.7-166.1,40-184.2,120.9c-19.1,85.3,37.8,168.9,126,186
		c24.6,4.8,49,3.8,71.8-1.9C237,833.5,203,716.5,213.1,669.5z"/>
	
		<linearGradient id="SVGID_4_" gradientUnits="userSpaceOnUse" x1="345.4489" y1="840.6989" x2="187.2414" y2="911.4921" gradientTransform="matrix(0.9416 -0.3368 0.3368 0.9416 -221.2722 -81.7324)">
		<stop  offset="0.1098" style="stop-color:#666666"/>
		<stop  offset="0.2379" style="stop-color:#757575;stop-opacity:0.856"/>
		<stop  offset="0.484" style="stop-color:#9C9C9C;stop-opacity:0.5794"/>
		<stop  offset="0.82" style="stop-color:#DBDBDB;stop-opacity:0.2016"/>
		<stop  offset="0.9994" style="stop-color:#FFFFFF;stop-opacity:0"/>
	</linearGradient>
	<path class="st21" d="M213.1,669.5c13-60.7,73.4-100.2,136.2-88.1c13,2.5,25.1,7.1,36,13.3c15.9,9.1,35.6,9,51-0.9l1.3-0.8
		c17.2-11.1,19-34.9,3.6-48.3c-22.1-19.4-50-33.1-81.7-38.2c-84.4-13.7-166.1,40-184.2,120.9c-19.1,85.3,37.8,168.9,126,186
		c24.6,4.8,49,3.8,71.8-1.9C237,833.5,203,716.5,213.1,669.5z"/>
	<linearGradient id="SVGID_5_" gradientUnits="userSpaceOnUse" x1="171.5516" y1="611.2159" x2="451.6547" y2="611.2159">
		<stop  offset="0" style="stop-color:#00BCEF"/>
		<stop  offset="0.3944" style="stop-color:#18CFF0"/>
		<stop  offset="1" style="stop-color:#44F2F2"/>
	</linearGradient>
	<path class="st22" d="M257.8,573.4c62.5-23.9,105.5,1,129.5,18.7c14.7,10.8,33.5,11.7,48.9,1.8l1.3-0.8c17.2-11.1,19-34.9,3.6-48.3
		c-22.1-19.4-50-33.1-81.7-38.2c-84.4-13.7-166.1,40-184.2,120.9c-7.1,31.6-3.7,62.9,7.8,90.7C159.4,657.8,195.3,597.3,257.8,573.4z
		"/>
	
		<linearGradient id="SVGID_6_" gradientUnits="userSpaceOnUse" x1="111.1776" y1="830.8172" x2="416.7432" y2="830.8172" gradientTransform="matrix(0.9416 -0.3368 0.3368 0.9416 -221.2722 -81.7324)">
		<stop  offset="0" style="stop-color:#85EBFD"/>
		<stop  offset="1" style="stop-color:#87F1FC;stop-opacity:0"/>
	</linearGradient>
	<path class="st23" d="M435.5,587.5l-1.3,0.8c-15.4,9.9-34.2,9-48.9-1.8c-24.1-17.7-67-42.5-129.5-18.7
		c-62.5,23.9-98.5,84.4-74.8,144.7c-0.4-0.9-0.7-1.7-1-2.6c0.9,2.7,1.9,5.4,3,8.1c-23.7-60.3,12.3-120.8,74.8-144.7
		c62.5-23.9,105.5,1,129.5,18.7c14.7,10.8,33.5,11.7,48.9,1.8l1.3-0.8c13.6-8.7,17.5-25.3,11.1-38.6
		C451.8,566.5,447.3,580,435.5,587.5z"/>
	
		<linearGradient id="SVGID_7_" gradientUnits="userSpaceOnUse" x1="326.1712" y1="1010.7433" x2="320.4624" y2="1036.7183" gradientTransform="matrix(0.9416 -0.3368 0.3368 0.9416 -221.2722 -81.7324)">
		<stop  offset="0" style="stop-color:#00BCEF"/>
		<stop  offset="0.3944" style="stop-color:#18CFF0"/>
		<stop  offset="1" style="stop-color:#44F2F2"/>
	</linearGradient>
	<path class="st24" d="M438.6,767.5c2.2,5.9-1,12.3-7.1,14.4c-6.1,2.1-12.7-1-14.9-6.8c-2.2-5.9,1-12.3,7.1-14.4
		C429.8,758.6,436.5,761.6,438.6,767.5z"/>
	<g>
		
			<linearGradient id="SVGID_8_" gradientUnits="userSpaceOnUse" x1="199.6457" y1="969.4419" x2="295.4122" y2="983.8725" gradientTransform="matrix(0.9416 -0.3368 0.3368 0.9416 -221.2722 -81.7324)">
			<stop  offset="0" style="stop-color:#E697F1"/>
			<stop  offset="0.9921" style="stop-color:#AF70F0;stop-opacity:0"/>
		</linearGradient>
		<path class="st25" d="M394.4,781.6c-26.2,18.4-58.5,20.3-92.7,12.5c-38.1-8.7-65-34.1-77.4-66.3c11.7,33.9,39.3,60.9,78.7,69.9
			c34.2,7.8,66.5,5.8,92.7-12.5c5.3-3.7,12.8-2.4,16.2,3.1c0,0,0,0.1,0.1,0.1c-0.2-1.3-0.7-2.6-1.4-3.7
			C407.3,779.3,399.8,777.9,394.4,781.6z"/>
	</g>
	
		<linearGradient id="SVGID_9_" gradientUnits="userSpaceOnUse" x1="351.972" y1="999.3215" x2="349.6862" y2="1017.0366" gradientTransform="matrix(0.9416 -0.3368 0.3368 0.9416 -221.2722 -81.7324)">
		<stop  offset="0" style="stop-color:#00BCEF"/>
		<stop  offset="0.3944" style="stop-color:#18CFF0"/>
		<stop  offset="1" style="stop-color:#44F2F2"/>
	</linearGradient>
	<path class="st26" d="M456.6,746.4c1.6,4.3-0.7,9-5.2,10.5s-9.3-0.7-10.9-5s0.7-9,5.2-10.5C450.1,739.9,455,742.1,456.6,746.4z"/>
	
		<linearGradient id="SVGID_10_" gradientUnits="userSpaceOnUse" x1="370.7628" y1="989.7727" x2="368.4788" y2="1001.4783" gradientTransform="matrix(0.9416 -0.3368 0.3368 0.9416 -221.2722 -81.7324)">
		<stop  offset="0" style="stop-color:#00BCEF"/>
		<stop  offset="0.3944" style="stop-color:#18CFF0"/>
		<stop  offset="1" style="stop-color:#44F2F2"/>
	</linearGradient>
	<path class="st27" d="M467,728.4c1,2.8-0.5,5.8-3.3,6.8c-2.9,1-6-0.5-7-3.2c-1-2.8,0.5-5.8,3.3-6.8S466,725.6,467,728.4z"/>
	<g>
		
			<linearGradient id="SVGID_11_" gradientUnits="userSpaceOnUse" x1="191.1416" y1="997.6706" x2="232.6419" y2="819.1403" gradientTransform="matrix(0.9416 -0.3368 0.3368 0.9416 -221.2722 -81.7324)">
			<stop  offset="0" style="stop-color:#95A5F8"/>
			<stop  offset="1" style="stop-color:#6D7DE5;stop-opacity:0"/>
		</linearGradient>
		<path class="st28" d="M213.1,669.5c8.4-39.3,36.7-69.7,72.6-82.9c-38,12.4-68.3,43.6-77.1,84.5c-9.9,45.9,22.3,158.4,150.4,143.3
			c4.7-0.8,9.3-1.7,13.9-2.8C237,833.5,203,716.5,213.1,669.5z"/>
	</g>
</g>
</svg>
