<?xml version="1.0" encoding="utf-8"?>
<!-- Generator: Adobe Illustrator 21.1.0, SVG Export Plug-In . SVG Version: 6.00 Build 0)  -->
<svg version="1.1" id="Capa_1" xmlns="http://www.w3.org/2000/svg" xmlns:xlink="http://www.w3.org/1999/xlink" x="0px" y="0px"
	 viewBox="0 0 639 1334" style="enable-background:new 0 0 639 1334;" xml:space="preserve">
<style type="text/css">
	.st0{fill:#8FCDF4;}
	.st1{fill:#FFFFFF;}
	.st2{font-family:'OpenSans-Bold';}
	.st3{font-size:18.3696px;}
	.st4{fill:url(#SVGID_1_);}
	.st5{font-family:'MyriadPro-Regular';}
	.st6{font-size:48.5719px;}
	.st7{fill:#EBEBEB;}
	.st8{fill:#3FAFAD;}
	.st9{fill:#359B97;}
	.st10{fill:#665C7A;}
	.st11{fill:#534B64;}
	.st12{fill:#D3D5D7;}
	.st13{fill:#FF8000;}
	.st14{fill:#5B575E;}
	.st15{fill:#F5B510;}
	.st16{fill:#FAC911;}
	.st17{fill:#F8E618;}
	.st18{fill:#EBDF9F;}
	.st19{fill:#7DCDCE;}
	.st20{fill:#F88011;}
	.st21{fill:#E3BF14;}
	.st22{fill:#4AB2AC;}
	.st23{opacity:9.000000e-02;fill:#FFFFFF;}
	.st24{fill:#FCFCFC;}
	.st25{fill:#E5E5E5;}
	.st26{opacity:0.7;fill:#C1C0C6;}
	.st27{fill:#C1C0C6;}
	.st28{fill:url(#SVGID_2_);}
	.st29{fill:url(#SVGID_3_);}
	.st30{fill:url(#SVGID_4_);}
	.st31{opacity:0.6;fill:url(#SVGID_5_);}
	.st32{fill:url(#SVGID_6_);}
	.st33{fill:url(#SVGID_7_);}
	.st34{fill:url(#SVGID_8_);}
	.st35{fill:url(#SVGID_9_);}
	.st36{fill:url(#SVGID_10_);}
	.st37{fill:url(#SVGID_11_);}
	.st38{fill:url(#SVGID_12_);}
</style>
<path class="st0" d="M452,548.2H181.4c-16.5,0-29.8,13.3-29.8,29.8l0,0c0,16.5,13.3,29.8,29.8,29.8H452c16.5,0,29.8-13.3,29.8-29.8
	l0,0C481.8,561.6,468.5,548.2,452,548.2z"/>
<text transform="matrix(1 0 0 1 234.7773 584.6133)" class="st1 st2 st3">CREAR USUARIO</text>
<g>
	<text transform="matrix(1 0 0 1 166.5078 646.3125)" class="st0 st2 st3">YA TENGO CUENTA CON BACCU</text>
</g>
<linearGradient id="SVGID_1_" gradientUnits="userSpaceOnUse" x1="-1011.6228" y1="354.4502" x2="-408.8768" y2="354.4502" gradientTransform="matrix(-1 0 0 -1 -383.8543 1391.463)">
	<stop  offset="0" style="stop-color:#00BCEF"/>
	<stop  offset="0.3944" style="stop-color:#18CFF0"/>
	<stop  offset="1" style="stop-color:#44F2F2"/>
</linearGradient>
<path class="st4" d="M25,1269.5V859.9c47.8-42.2,106.6-74.1,172.2-91.4c36.5-9.7,75.1-14.9,115.1-14.9c31.2,0,61.6,3.2,90.8,9.2
	c78,16,147.7,52.2,202.1,102.2c7.9,7.2,15.4,14.7,22.6,22.5v382c0,13.3-5.6,25.4-14.7,34.5c-10.2,10.1-24.7,16.4-40.9,16.4H80.6
	c-1.9,0-3.8-0.1-5.6-0.3h-0.1C46.9,1317.5,25,1295.8,25,1269.5"/>
<text transform="matrix(1 0 0 1 108.5059 1035.5586)"><tspan x="0" y="0" class="st1 st5 st6">Tu asistente personal</tspan><tspan x="34" y="58.3" class="st1 st5 st6">de rutas escolares</tspan></text>
<g>
	<path class="st7" d="M379,728.1h-62.8c-5.7,0-10.3-6.3-10.3-14.1c0-3.9,1.1-7.5,3.2-10.2c1.9-2.5,4.4-3.9,7.1-3.9H379
		c-1,0.7-1.9,1.6-2.7,2.6c-2.2,2.9-3.6,7-3.6,11.4C372.7,720.1,375.2,725.4,379,728.1z"/>
	<path class="st8" d="M384.7,728.1l0.2,4.1c-0.2,0-0.5,0-0.7,0h-68c-2.4,0-4.7-0.7-6.7-2.1c-0.9-0.6-1.7-1.3-2.5-2.1
		c-3.2-3.4-5.3-8.4-5.3-14.1c0-4.8,1.4-9.3,4.1-12.7c0.4-0.5,0.8-1,1.2-1.4c0.8-0.8,1.6-1.5,2.5-2.1c2-1.3,4.3-2.1,6.7-2.1h68
		c0.3,0,0.5,0,0.7,0l-0.2,4.1h-68.5c-2.6,0-5.2,1.4-7.1,3.9c-2.1,2.7-3.2,6.3-3.2,10.2c0,7.8,4.6,14.1,10.3,14.1H384.7z"/>
	<path class="st9" d="M309.5,730.2c2,1.3,4.3,2.1,6.7,2.1h-36c-8,0-14.4-8.2-14.4-18.2c0-10,6.5-18.2,14.4-18.2h36
		c-2.3,0-4.6,0.7-6.7,2.1c-0.9,0.6-1.7,1.3-2.5,2.1c-0.4,0.4-0.8,0.9-1.2,1.4c-2.6,3.4-4.1,7.9-4.1,12.7c0,5.7,2,10.7,5.3,14.1
		C307.8,728.9,308.7,729.6,309.5,730.2z"/>
	<path class="st7" d="M387.8,764.5h-62.4c-5.7,0-10.3-6.3-10.3-14.1c0-3.8,1.1-7.5,3.2-10.2c1.9-2.5,4.4-3.9,7.1-3.9h62.4
		c-1,0.7-1.9,1.6-2.7,2.6c-2.2,2.9-3.6,7-3.6,11.4C381.5,756.5,384,761.8,387.8,764.5z"/>
	<path class="st10" d="M393.6,764.5l0,4.1h-68.2c-2.4,0-4.7-0.7-6.7-2.1c-0.9-0.6-1.7-1.3-2.5-2.1c-3.2-3.3-5.3-8.4-5.3-14.1
		c0-4.7,1.4-9.3,4-12.7c0.4-0.5,0.8-1,1.2-1.4c0.8-0.8,1.6-1.5,2.5-2.1c2-1.3,4.3-2.1,6.7-2.1h68.2l0,4.1h-68.3
		c-2.7,0-5.2,1.4-7.1,3.9c-2.1,2.7-3.2,6.3-3.2,10.2c0,7.7,4.6,14.1,10.3,14.1H393.6z"/>
	<path class="st11" d="M318.7,766.6c2,1.3,4.3,2.1,6.7,2.1h-67c-7.9,0-14.4-8.2-14.4-18.2c0-10,6.5-18.2,14.4-18.2h67
		c-2.3,0-4.6,0.7-6.7,2.1c-0.9,0.6-1.7,1.3-2.5,2.1c-0.4,0.4-0.8,0.9-1.2,1.4c-2.6,3.4-4,7.9-4,12.7c0,5.7,2.1,10.7,5.3,14.1
		C317,765.3,317.8,766,318.7,766.6z"/>
	<path class="st12" d="M300.1,728.1h-6.4c-2.6-4-4.1-8.9-4.1-14.1c0-5.2,1.5-10.1,4.1-14.1h6.4c-2.6,3.9-4.1,8.9-4.1,14.1
		C296,719.2,297.5,724.2,300.1,728.1z"/>
	<path class="st12" d="M288.3,728.1h-10.5c0,0,0,0,0-0.1c-3.5-2.4-5.9-7-5.9-14c0-6.9,2.8-11.3,5.8-14c0,0,0,0,0-0.1h10.5
		c-2.6,3.9-4.1,8.9-4.1,14.1C284.2,719.2,285.6,724.2,288.3,728.1z"/>
	<path class="st12" d="M276.7,764.5h-16.2c-5.6,0-10.3-6.4-10.3-14.1c0-7.6,4.7-14.1,10.3-14.1h16.2c-2.6,4-4.1,8.9-4.1,14.1
		C272.6,755.7,274.1,760.6,276.7,764.5z"/>
	<path class="st12" d="M305.9,764.5h-14.5c-2.6-3.9-4.1-8.9-4.1-14.1c0-5.2,1.5-10.1,4.1-14.1h14.5c-2.6,4-4.1,8.9-4.1,14.1
		C301.8,755.7,303.3,760.6,305.9,764.5z"/>
	<path class="st12" d="M379,700c-1,0.7-1.9,1.6-2.7,2.6c-1.9,2.4-3.1,5.7-3.5,9.2l-16.3,16.3h-40.3c-5.7,0-10.3-6.3-10.3-14.1
		c0-3.8,1.1-7.5,3.2-10.2c1.9-2.5,4.4-3.9,7.1-3.9H379z"/>
	<path class="st12" d="M387.8,736.4c-1,0.7-1.9,1.6-2.7,2.7c-1.9,2.5-3.2,5.7-3.5,9.4l-16.1,16.1h-40.1c-5.7,0-10.3-6.3-10.3-14.1
		c0-3.9,1.1-7.5,3.2-10.2c1.9-2.5,4.4-3.9,7.1-3.9H387.8z"/>
</g>
<g>
	<g>
		<circle class="st13" cx="343.4" cy="318.6" r="131.6"/>
		<g>
			<path class="st14" d="M304.4,387c0,1.6-1.3,3-3,3h-15.5c-1.6,0-3-1.3-3-3v-25.2c0-1.6,1.3-3,3-3h15.5c1.6,0,3,1.3,3,3V387z"/>
			<path class="st14" d="M405.5,387c0,1.6-1.3,3-3,3H387c-1.6,0-3-1.3-3-3v-25.2c0-1.6,1.3-3,3-3h15.5c1.6,0,3,1.3,3,3V387z"/>
			<g>
				<g>
					<polygon class="st10" points="401.6,312.7 400.1,310.2 413,302.4 413,275.9 400.2,270 401.5,267.3 416,274 416,304.1 					"/>
				</g>
				<path class="st11" d="M421,298.3c0,1.4-1.1,2.5-2.5,2.5h-8.1c-1.4,0-2.5-1.1-2.5-2.5v-18.9c0-1.4,1.1-2.5,2.5-2.5h8.1
					c1.4,0,2.5,1.1,2.5,2.5V298.3z"/>
				<g>
					<polygon class="st10" points="287.1,312.7 272.7,304.1 272.7,274 287.2,267.3 288.5,270 275.7,275.9 275.7,302.4 288.6,310.2 
											"/>
				</g>
				<path class="st11" d="M267.7,298.3c0,1.4,1.1,2.5,2.5,2.5h8.1c1.4,0,2.5-1.1,2.5-2.5v-18.9c0-1.4-1.1-2.5-2.5-2.5h-8.1
					c-1.4,0-2.5,1.1-2.5,2.5V298.3z"/>
			</g>
			<rect x="285.3" y="268.7" class="st15" width="117.9" height="65.3"/>
			<rect x="290.5" y="313.2" class="st16" width="107.3" height="57.4"/>
			<path class="st17" d="M301.9,324.6v46h-22.8v-46c0-6.3,5.1-11.4,11.4-11.4c3.1,0,6,1.3,8.1,3.3
				C300.7,318.6,301.9,321.5,301.9,324.6z"/>
			<path class="st17" d="M409.3,324.6v46h-22.8v-46c0-6.3,5.1-11.4,11.4-11.4c3.2,0,6,1.3,8.1,3.3
				C408,318.6,409.3,321.5,409.3,324.6z"/>
			<path class="st18" d="M388.4,318.2c-1.2,1.8-2,4-2,6.4v46h-5.7V329C380.8,324,384,319.8,388.4,318.2z"/>
			<path class="st19" d="M416.9,364.9c0,3.3-2.6,5.9-5.9,5.9H277.5c-3.3,0-5.9-2.7-5.9-5.9c0-1.6,0.7-3.1,1.7-4.2
				c1.1-1.1,2.6-1.7,4.2-1.7h133.5C414.2,359,416.9,361.6,416.9,364.9z"/>
			<ellipse class="st15" cx="344.2" cy="268.7" rx="58.9" ry="17.7"/>
			<circle class="st1" cx="290.5" cy="326.3" r="7.6"/>
			<path class="st20" d="M295.9,341c0,3-2.4,5.4-5.4,5.4c-3,0-5.4-2.4-5.4-5.4c0-3,2.4-5.4,5.4-5.4C293.5,335.6,295.9,338,295.9,341
				z"/>
			<circle class="st20" cx="397.9" cy="341" r="5.4"/>
			<ellipse class="st1" cx="397.9" cy="326.3" rx="7.6" ry="7.6"/>
			<rect x="309.7" y="324.6" class="st21" width="69" height="28"/>
			<polygon class="st18" points="378.7,324.6 378.7,352.7 374.3,352.7 374.3,329 309.7,329 309.7,324.6 			"/>
			<rect x="293.2" y="279.2" class="st22" width="47.1" height="27.4"/>
			<rect x="348.7" y="279.2" class="st22" width="47.2" height="27.4"/>
			<polygon class="st23" points="395.8,279.2 395.8,306.6 348.7,279.2 			"/>
			<polygon class="st23" points="340.3,279.2 340.3,306.6 293.2,279.2 			"/>
			<rect x="318.1" y="261.5" class="st24" width="52.2" height="10.1"/>
			<rect x="322.6" y="366.4" class="st25" width="43.3" height="11.1"/>
		</g>
		<path class="st26" d="M404.5,389.2l-60.9,60.9h-0.1c-67.4,0-123.1-50.8-130.7-116.1l55-55c-0.1,0.1-0.1,0.3-0.1,0.4v18.9
			c0,1.4,1.1,2.5,2.5,2.5h2.5v3.3l12.5,7.5v2.9c-3.6,1.9-6.2,5.7-6.2,10.1V359h-1.6c-1.6,0-3.1,0.7-4.2,1.8
			c-1.1,1.1-1.8,2.5-1.8,4.2c0,3.3,2.7,5.9,5.9,5.9h5.5V387c0,1.6,1.3,3,3,3h15.5c1.6,0,3-1.3,3-3v-16.2h18.2v6.8h43.3v-6.8H384V387
			c0,1.6,1.3,3,3,3h15.5C403.2,390,403.9,389.7,404.5,389.2z"/>
		<path class="st27" d="M408,279.4v18.9c0,1.4,1.1,2.5,2.5,2.5h2.5v1.6l-9.9,5.9v-37l9.9,4.5v1h-2.5C409.1,276.9,408,278,408,279.4z
			"/>
		<path class="st27" d="M285.3,271.5v36.6l-9.6-5.8v-1.6h2.5c1.4,0,2.5-1.1,2.5-2.5v-18.9c0-1.4-1.1-2.5-2.5-2.5h-2.5v-1
			L285.3,271.5z"/>
	</g>
	
		<linearGradient id="SVGID_2_" gradientUnits="userSpaceOnUse" x1="234.5745" y1="558.9482" x2="540.3784" y2="558.9482" gradientTransform="matrix(0.9416 -0.3368 0.3368 0.9416 -221.2722 -81.7324)">
		<stop  offset="0" style="stop-color:#DC70C8"/>
		<stop  offset="1" style="stop-color:#AF70F0"/>
	</linearGradient>
	<path class="st28" d="M400.8,432.6C374.6,451,342.3,453,308,445.2c-60.2-13.7-92.7-69.2-83.5-127.3c9.7-61.3,68.3-97.7,131.1-85.6
		c13,2.5,25.1,7.1,36,13.3c15.9,9.1,35.7,9,51-0.9l1.3-0.8c17.2-11.1,19-34.9,3.6-48.4c-22.1-19.4-50-33.1-81.8-38.2
		c-84.5-13.7-166.2,40-184.3,121c-19.1,85.4,37.8,169,126,186.1c37.2,7.2,73.9,1.4,105.2-14.1c5.5-2.7,7.5-9.5,4.3-14.6l0,0
		C413.7,430.3,406.2,428.9,400.8,432.6z"/>
	
		<linearGradient id="SVGID_3_" gradientUnits="userSpaceOnUse" x1="387.1826" y1="512.7913" x2="390.2232" y2="679.4197" gradientTransform="matrix(0.9416 -0.3368 0.3368 0.9416 -221.2722 -81.7324)">
		<stop  offset="0" style="stop-color:#00BCEF"/>
		<stop  offset="0.3944" style="stop-color:#18CFF0"/>
		<stop  offset="1" style="stop-color:#44F2F2"/>
	</linearGradient>
	<path class="st29" d="M400.8,432.6C374.6,451,342.3,453,308,445.2c-60.2-13.7-92.7-69.2-83.5-127.3c9.7-61.3,68.3-97.7,131.1-85.6
		c13,2.5,25.1,7.1,36,13.3c15.9,9.1,35.7,9,51-0.9l1.3-0.8c17.2-11.1,19-34.9,3.6-48.4c-22.1-19.4-50-33.1-81.8-38.2
		c-84.5-13.7-166.2,40-184.3,121c-19.1,85.4,37.8,169,126,186.1c37.2,7.2,73.9,1.4,105.2-14.1c5.5-2.7,7.5-9.5,4.3-14.6l0,0
		C413.7,430.3,406.2,428.9,400.8,432.6z"/>
	
		<linearGradient id="SVGID_4_" gradientUnits="userSpaceOnUse" x1="401.5381" y1="456.2672" x2="360.4617" y2="647.9562" gradientTransform="matrix(0.9416 -0.3368 0.3368 0.9416 -221.2722 -81.7324)">
		<stop  offset="0" style="stop-color:#6B4C9D"/>
		<stop  offset="1" style="stop-color:#6D7DE5"/>
	</linearGradient>
	<path class="st30" d="M219.4,320.5c13.1-60.7,73.5-100.3,136.3-88.1c13,2.5,25.1,7.1,36,13.3c15.9,9.1,35.7,9,51-0.9l1.3-0.8
		c17.2-11.1,19-34.9,3.6-48.4c-22.1-19.4-50-33.1-81.8-38.2c-84.5-13.7-166.2,40-184.3,121c-19.1,85.4,37.8,169,126,186.1
		c24.6,4.8,49.1,3.8,71.9-1.9C243.3,484.5,209.3,367.5,219.4,320.5z"/>
	
		<linearGradient id="SVGID_5_" gradientUnits="userSpaceOnUse" x1="469.0213" y1="514.1398" x2="310.7198" y2="584.975" gradientTransform="matrix(0.9416 -0.3368 0.3368 0.9416 -221.2722 -81.7324)">
		<stop  offset="0.1098" style="stop-color:#666666"/>
		<stop  offset="0.2379" style="stop-color:#757575;stop-opacity:0.856"/>
		<stop  offset="0.484" style="stop-color:#9C9C9C;stop-opacity:0.5794"/>
		<stop  offset="0.82" style="stop-color:#DBDBDB;stop-opacity:0.2016"/>
		<stop  offset="0.9994" style="stop-color:#FFFFFF;stop-opacity:0"/>
	</linearGradient>
	<path class="st31" d="M219.4,320.5c13.1-60.7,73.5-100.3,136.3-88.1c13,2.5,25.1,7.1,36,13.3c15.9,9.1,35.7,9,51-0.9l1.3-0.8
		c17.2-11.1,19-34.9,3.6-48.4c-22.1-19.4-50-33.1-81.8-38.2c-84.5-13.7-166.2,40-184.3,121c-19.1,85.4,37.8,169,126,186.1
		c24.6,4.8,49.1,3.8,71.9-1.9C243.3,484.5,209.3,367.5,219.4,320.5z"/>
	<linearGradient id="SVGID_6_" gradientUnits="userSpaceOnUse" x1="177.8079" y1="262.1272" x2="458.0774" y2="262.1272">
		<stop  offset="0" style="stop-color:#00BCEF"/>
		<stop  offset="0.3944" style="stop-color:#18CFF0"/>
		<stop  offset="1" style="stop-color:#44F2F2"/>
	</linearGradient>
	<path class="st32" d="M264.1,224.3c62.6-23.9,105.5,1,129.6,18.7c14.7,10.8,33.5,11.7,48.9,1.8l1.3-0.8c17.2-11.1,19-34.9,3.6-48.4
		c-22.1-19.4-50-33.1-81.8-38.2c-84.5-13.7-166.2,40-184.3,121c-7.1,31.6-3.7,62.9,7.8,90.8C165.6,308.7,201.6,248.2,264.1,224.3z"
		/>
	
		<linearGradient id="SVGID_7_" gradientUnits="userSpaceOnUse" x1="234.6108" y1="504.2522" x2="540.3579" y2="504.2522" gradientTransform="matrix(0.9416 -0.3368 0.3368 0.9416 -221.2722 -81.7324)">
		<stop  offset="0" style="stop-color:#85EBFD"/>
		<stop  offset="1" style="stop-color:#87F1FC;stop-opacity:0"/>
	</linearGradient>
	<path class="st33" d="M441.9,238.4l-1.3,0.8c-15.4,9.9-34.2,9-48.9-1.8c-24.1-17.7-67-42.5-129.6-18.7
		c-62.6,23.9-98.5,84.4-74.9,144.8c-0.4-0.9-0.7-1.7-1-2.6c0.9,2.7,1.9,5.4,3,8.1c-23.7-60.4,12.3-120.9,74.9-144.8
		c62.6-23.9,105.5,1,129.6,18.7c14.7,10.8,33.5,11.7,48.9,1.8l1.3-0.8c13.6-8.7,17.5-25.4,11.1-38.6
		C458.2,217.4,453.7,230.9,441.9,238.4z"/>
	
		<linearGradient id="SVGID_8_" gradientUnits="userSpaceOnUse" x1="449.7321" y1="684.2851" x2="444.02" y2="710.2755" gradientTransform="matrix(0.9416 -0.3368 0.3368 0.9416 -221.2722 -81.7324)">
		<stop  offset="0" style="stop-color:#00BCEF"/>
		<stop  offset="0.3944" style="stop-color:#18CFF0"/>
		<stop  offset="1" style="stop-color:#44F2F2"/>
	</linearGradient>
	<path class="st34" d="M445,418.5c2.2,5.9-1,12.3-7.1,14.4c-6.1,2.1-12.8-1-14.9-6.8c-2.2-5.9,1-12.3,7.1-14.4
		C436.2,409.6,442.9,412.6,445,418.5z"/>
	<g>
		
			<linearGradient id="SVGID_9_" gradientUnits="userSpaceOnUse" x1="323.1314" y1="642.9592" x2="418.9548" y2="657.3983" gradientTransform="matrix(0.9416 -0.3368 0.3368 0.9416 -221.2722 -81.7324)">
			<stop  offset="0" style="stop-color:#E697F1"/>
			<stop  offset="0.9921" style="stop-color:#AF70F0;stop-opacity:0"/>
		</linearGradient>
		<path class="st35" d="M400.8,432.6C374.6,451,342.3,453,308,445.2c-38.1-8.7-65.1-34.1-77.4-66.3c11.7,34,39.3,61,78.8,69.9
			c34.2,7.8,66.6,5.8,92.8-12.6c5.3-3.8,12.8-2.4,16.3,3.1c0,0,0,0.1,0.1,0.1c-0.2-1.3-0.7-2.6-1.4-3.7
			C413.7,430.3,406.2,428.9,400.8,432.6z"/>
	</g>
	
		<linearGradient id="SVGID_10_" gradientUnits="userSpaceOnUse" x1="475.5483" y1="672.8566" x2="473.2611" y2="690.5821" gradientTransform="matrix(0.9416 -0.3368 0.3368 0.9416 -221.2722 -81.7324)">
		<stop  offset="0" style="stop-color:#00BCEF"/>
		<stop  offset="0.3944" style="stop-color:#18CFF0"/>
		<stop  offset="1" style="stop-color:#44F2F2"/>
	</linearGradient>
	<path class="st36" d="M463,397.4c1.6,4.3-0.7,9-5.2,10.6s-9.3-0.7-10.9-5c-1.6-4.3,0.7-9,5.2-10.6
		C456.5,390.9,461.4,393.1,463,397.4z"/>
	
		<linearGradient id="SVGID_11_" gradientUnits="userSpaceOnUse" x1="494.3502" y1="663.3021" x2="492.0648" y2="675.0146" gradientTransform="matrix(0.9416 -0.3368 0.3368 0.9416 -221.2722 -81.7324)">
		<stop  offset="0" style="stop-color:#00BCEF"/>
		<stop  offset="0.3944" style="stop-color:#18CFF0"/>
		<stop  offset="1" style="stop-color:#44F2F2"/>
	</linearGradient>
	<path class="st37" d="M473.5,379.3c1,2.8-0.5,5.8-3.3,6.8c-2.9,1-6-0.5-7-3.2c-1-2.8,0.5-5.8,3.3-6.8
		C469.3,375.1,472.5,376.6,473.5,379.3z"/>
	<g>
		
			<linearGradient id="SVGID_12_" gradientUnits="userSpaceOnUse" x1="314.6223" y1="671.2047" x2="356.1472" y2="492.5683" gradientTransform="matrix(0.9416 -0.3368 0.3368 0.9416 -221.2722 -81.7324)">
			<stop  offset="0" style="stop-color:#95A5F8"/>
			<stop  offset="1" style="stop-color:#6D7DE5;stop-opacity:0"/>
		</linearGradient>
		<path class="st38" d="M219.4,320.5c8.5-39.3,36.8-69.7,72.7-83c-38,12.4-68.3,43.6-77.1,84.5c-9.9,45.9,22.3,158.5,150.5,143.4
			c4.7-0.8,9.4-1.7,13.9-2.8C243.3,484.5,209.3,367.5,219.4,320.5z"/>
	</g>
</g>
</svg>
