<?xml version="1.0" encoding="utf-8"?>
<!-- Generator: Adobe Illustrator 21.1.0, SVG Export Plug-In . SVG Version: 6.00 Build 0)  -->
<svg version="1.1" id="Capa_1" xmlns="http://www.w3.org/2000/svg" xmlns:xlink="http://www.w3.org/1999/xlink" x="0px" y="0px"
	 viewBox="0 0 639 1334" style="enable-background:new 0 0 639 1334;" xml:space="preserve">
<style type="text/css">
	.st0{fill:url(#SVGID_1_);}
	.st1{fill:#FFFFFF;}
	.st2{fill:#151616;}
	.st3{fill:url(#SVGID_2_);}
	.st4{fill:#515151;}
	.st5{fill:url(#SVGID_3_);}
	.st6{fill:#BFC1BF;}
	.st7{font-family:'OpenSans';}
	.st8{font-size:24.2114px;}
	.st9{font-family:'OpenSans-Bold';}
	.st10{font-size:24.2741px;}
	.st11{letter-spacing:1;}
	.st12{font-size:21.577px;}
	.st13{fill:none;stroke:#FFFFFF;stroke-width:0.25;stroke-miterlimit:10;}
	.st14{fill:#F9FAFB;}
	.st15{fill:#FF8000;}
	.st16{fill:#5B575E;}
	.st17{fill:#665C7A;}
	.st18{fill:#534B64;}
	.st19{fill:#F5B510;}
	.st20{fill:#FAC911;}
	.st21{fill:#F8E618;}
	.st22{fill:#EBDF9F;}
	.st23{fill:#7DCDCE;}
	.st24{fill:#F88011;}
	.st25{fill:#E3BF14;}
	.st26{fill:#4AB2AC;}
	.st27{opacity:9.000000e-02;fill:#FFFFFF;}
	.st28{fill:#FCFCFC;}
	.st29{fill:#E5E5E5;}
	.st30{opacity:0.7;fill:#C1C0C6;}
	.st31{fill:#C1C0C6;}
	.st32{opacity:0.4;fill:url(#SVGID_4_);}
	.st33{fill:url(#SVGID_5_);}
	.st34{opacity:0.6;fill:url(#SVGID_6_);}
	.st35{fill:url(#SVGID_7_);}
	.st36{opacity:0.6;fill:url(#SVGID_8_);}
	.st37{fill:url(#SVGID_9_);}
	.st38{fill:url(#SVGID_10_);}
	.st39{fill:url(#SVGID_11_);}
	.st40{fill:url(#SVGID_12_);}
	.st41{fill:url(#SVGID_13_);}
	.st42{fill:url(#SVGID_14_);}
	.st43{fill:url(#SVGID_15_);}
	.st44{font-family:'AntipastoPro-ExtraBold';}
	.st45{font-size:78.9089px;}
	.st46{font-family:'Poppins-Regular';}
	.st47{font-size:16.1827px;}
	.st48{letter-spacing:8;}
	.st49{fill:#D1D1DB;}
</style>
<g>
	<g>
		<linearGradient id="SVGID_1_" gradientUnits="userSpaceOnUse" x1="204.8989" y1="1087.1349" x2="461.3477" y2="1087.1349">
			<stop  offset="0" style="stop-color:#00BCEF"/>
			<stop  offset="0.2976" style="stop-color:#03BEEF"/>
			<stop  offset="0.5182" style="stop-color:#0CC6F0"/>
			<stop  offset="0.714" style="stop-color:#1CD3F0"/>
			<stop  offset="0.8942" style="stop-color:#33E4F1"/>
			<stop  offset="1" style="stop-color:#44F2F2"/>
		</linearGradient>
		<path class="st0" d="M206.9,1123.8h252.4c1.1,0,2-0.9,2-2v-69.3c0-1.1-0.9-2-2-2H206.9c-1.1,0-2,0.9-2,2v69.3
			C204.9,1122.9,205.8,1123.8,206.9,1123.8z"/>
		<path class="st1" d="M421.6,670.1c0,18.3-6.4,35.1-17.2,48.3c-14,17.3-35.4,28.3-59.4,28.3c-24,0-45.4-11-59.4-28.3
			c-10.7-13.2-17.1-30-17.1-48.3c0-42.3,34.3-76.6,76.6-76.6S421.6,627.8,421.6,670.1z"/>
		<path class="st2" d="M404.4,718.4c-14,17.3-35.4,28.3-59.4,28.3c-24,0-45.4-11-59.4-28.3c1.5-2.1,3.5-3.8,6-4.8l29.9-12.7
			c3.5-1.5,5.8-4.9,5.8-8.8v-5.8c-4.3-4.7-7.7-11.4-10.1-19.8c-1.1-0.2-2.2-0.9-2.6-2.1l-3.9-10.6c-0.6-1.7,0.3-3.6,2.1-4.2l1.4-0.5
			c-1.5-22.1,8.2-32.7,30.6-32.8c22.4,0.1,32.1,10.7,30.6,32.8l0-0.1l1.8,0.6c1.8,0.6,2.7,2.5,2.1,4.2l-3.9,10.6
			c-0.5,1.3-1.7,2.1-3,2.1c-2.3,8.2-5.6,14.7-9.6,19.4v6.3c0,3.8,2.3,7.3,5.8,8.8l29.9,12.7C400.9,714.6,403,716.3,404.4,718.4z"/>
		<linearGradient id="SVGID_2_" gradientUnits="userSpaceOnUse" x1="110.913" y1="810.6143" x2="184.2231" y2="810.6143">
			<stop  offset="0" style="stop-color:#00BCEF"/>
			<stop  offset="0.2976" style="stop-color:#03BEEF"/>
			<stop  offset="0.5182" style="stop-color:#0CC6F0"/>
			<stop  offset="0.714" style="stop-color:#1CD3F0"/>
			<stop  offset="0.8942" style="stop-color:#33E4F1"/>
			<stop  offset="1" style="stop-color:#44F2F2"/>
		</linearGradient>
		<path class="st3" d="M184.2,847.3h-71.3c-1.1,0-2-0.9-2-2V776c0-1.1,0.9-2,2-2h71.3V847.3z"/>
		<path class="st4" d="M541.6,847.3H184.2V774h357.4c1.1,0,2,0.9,2,2v69.3C543.6,846.4,542.7,847.3,541.6,847.3z"/>
		<path class="st1" d="M153.1,808.3c3.1-1.9,5.1-5.3,5.1-9.1c0-5.9-4.8-10.7-10.7-10.7c-5.9,0-10.7,4.8-10.7,10.7
			c0,3.9,2.1,7.3,5.1,9.1c-5.8,2.2-9.9,7.9-9.9,14.5v10h31v-10C163.1,816.2,158.9,810.5,153.1,808.3z"/>
		<linearGradient id="SVGID_3_" gradientUnits="userSpaceOnUse" x1="110.913" y1="910.7619" x2="184.2231" y2="910.7619">
			<stop  offset="0" style="stop-color:#00BCEF"/>
			<stop  offset="0.2976" style="stop-color:#03BEEF"/>
			<stop  offset="0.5182" style="stop-color:#0CC6F0"/>
			<stop  offset="0.714" style="stop-color:#1CD3F0"/>
			<stop  offset="0.8942" style="stop-color:#33E4F1"/>
			<stop  offset="1" style="stop-color:#44F2F2"/>
		</linearGradient>
		<path class="st5" d="M184.2,947.4h-71.3c-1.1,0-2-0.9-2-2v-69.3c0-1.1,0.9-2,2-2h71.3V947.4z"/>
		<path class="st4" d="M541.6,947.4H184.2v-73.3h357.4c1.1,0,2,0.9,2,2v69.3C543.6,946.5,542.7,947.4,541.6,947.4z"/>
		<path class="st1" d="M161.9,905.4V903c0-7.9-6.4-14.3-14.3-14.3c-7.9,0-14.3,6.4-14.3,14.3v2.4h-3v27.5h34.7v-27.5H161.9z
			 M148.9,917.9v7.7c0,0.7-0.6,1.3-1.3,1.3c-0.7,0-1.3-0.6-1.3-1.3v-7.7c-1.2-0.5-2-1.7-2-3.1c0-1.8,1.5-3.3,3.3-3.3
			c1.8,0,3.3,1.5,3.3,3.3C150.9,916.2,150.1,917.4,148.9,917.9z M157.9,905.4h-20.7V903c0-5.7,4.6-10.3,10.3-10.3
			c5.7,0,10.3,4.6,10.3,10.3V905.4z"/>
		<text transform="matrix(1 0 0 1 216.4336 817.7109)" class="st6 st7 st8">Usuario</text>
		<text transform="matrix(1 0 0 1 216.4336 918.0703)" class="st6 st7 st8">Contraseña</text>
		<text transform="matrix(1 0 0 1 230.2656 1096.6875)" class="st1 st9 st10 st11">INICIAR SESIÓN</text>
		<text transform="matrix(1 0 0 1 157.8984 995.3633)" class="st7 st12">Recuérdame</text>
		<text transform="matrix(1 0 0 1 345.9063 995.3633)" class="st7 st12">¿Olvidaste tu contraseña?</text>
		<rect x="110.9" y="979.6" class="st2" width="23.4" height="23.4"/>
		<polyline class="st13" points="117.1,991.3 120.7,995.5 130.2,985.9 		"/>
	</g>
	<g>
		<path class="st14" d="M425.4,1293.8H240.8c-2,0-3.7-1.7-3.7-3.7c0-2,1.7-3.7,3.7-3.7h184.6c2,0,3.7,1.7,3.7,3.7
			C429.1,1292.2,427.5,1293.8,425.4,1293.8z"/>
	</g>
</g>
<g>
	<circle class="st15" cx="359.3" cy="328.3" r="69.9"/>
	<g>
		<path class="st16" d="M338.6,364.6c0,0.9-0.7,1.6-1.6,1.6h-8.2c-0.9,0-1.6-0.7-1.6-1.6v-13.4c0-0.9,0.7-1.6,1.6-1.6h8.2
			c0.9,0,1.6,0.7,1.6,1.6V364.6z"/>
		<path class="st16" d="M392.3,364.6c0,0.9-0.7,1.6-1.6,1.6h-8.2c-0.9,0-1.6-0.7-1.6-1.6v-13.4c0-0.9,0.7-1.6,1.6-1.6h8.2
			c0.9,0,1.6,0.7,1.6,1.6V364.6z"/>
		<g>
			<g>
				<polygon class="st17" points="390.3,325.2 389.4,323.8 396.3,319.7 396.3,305.6 389.5,302.5 390.2,301.1 397.9,304.6 
					397.9,320.6 				"/>
			</g>
			<path class="st18" d="M400.5,317.5c0,0.7-0.6,1.3-1.3,1.3h-4.3c-0.7,0-1.3-0.6-1.3-1.3v-10c0-0.7,0.6-1.3,1.3-1.3h4.3
				c0.7,0,1.3,0.6,1.3,1.3V317.5z"/>
			<g>
				<polygon class="st17" points="329.4,325.2 321.8,320.6 321.8,304.6 329.5,301.1 330.2,302.5 323.4,305.6 323.4,319.7 
					330.3,323.8 				"/>
			</g>
			<path class="st18" d="M319.1,317.5c0,0.7,0.6,1.3,1.3,1.3h4.3c0.7,0,1.3-0.6,1.3-1.3v-10c0-0.7-0.6-1.3-1.3-1.3h-4.3
				c-0.7,0-1.3,0.6-1.3,1.3V317.5z"/>
		</g>
		<rect x="328.5" y="301.8" class="st19" width="62.6" height="34.7"/>
		<rect x="331.3" y="325.5" class="st20" width="57" height="30.5"/>
		<path class="st21" d="M337.3,331.5V356h-12.1v-24.4c0-3.3,2.7-6.1,6.1-6.1c1.7,0,3.2,0.7,4.3,1.8
			C336.6,328.3,337.3,329.9,337.3,331.5z"/>
		<path class="st21" d="M394.3,331.5V356h-12.1v-24.4c0-3.3,2.7-6.1,6.1-6.1c1.7,0,3.2,0.7,4.3,1.8
			C393.7,328.3,394.3,329.9,394.3,331.5z"/>
		<path class="st22" d="M383.3,328.1c-0.7,1-1,2.1-1,3.4V356h-3v-22.1C379.2,331.2,380.9,328.9,383.3,328.1z"/>
		<path class="st23" d="M398.4,352.9c0,1.7-1.4,3.2-3.2,3.2h-70.9c-1.7,0-3.2-1.4-3.2-3.2c0-0.9,0.4-1.7,0.9-2.2
			c0.6-0.6,1.4-0.9,2.2-0.9h70.9C396.9,349.8,398.4,351.2,398.4,352.9z"/>
		<ellipse class="st19" cx="359.8" cy="301.8" rx="31.3" ry="9.4"/>
		<circle class="st1" cx="331.3" cy="332.4" r="4"/>
		<circle class="st24" cx="331.3" cy="340.2" r="2.8"/>
		<circle class="st24" cx="388.3" cy="340.2" r="2.8"/>
		<circle class="st1" cx="388.3" cy="332.4" r="4"/>
		<rect x="341.5" y="331.5" class="st25" width="36.6" height="14.9"/>
		<polygon class="st22" points="378.1,331.5 378.1,346.4 375.8,346.4 375.8,333.8 341.5,333.8 341.5,331.5 		"/>
		<rect x="332.6" y="307.4" class="st26" width="25" height="14.5"/>
		<rect x="362.1" y="307.4" class="st26" width="25.1" height="14.5"/>
		<polygon class="st27" points="387.2,307.4 387.2,321.9 362.2,307.4 		"/>
		<polygon class="st27" points="357.7,307.4 357.7,321.9 332.6,307.4 		"/>
		<rect x="345.9" y="298" class="st28" width="27.7" height="5.4"/>
		<rect x="348.3" y="353.7" class="st29" width="23" height="5.9"/>
	</g>
	<path class="st30" d="M391.8,365.8l-32.3,32.3h-0.1c-35.8,0-65.4-27-69.4-61.7l29.2-29.2c0,0.1,0,0.1,0,0.2v10
		c0,0.7,0.6,1.3,1.3,1.3h1.3v1.8l6.7,4v1.6c-1.9,1-3.3,3-3.3,5.4v18.2h-0.9c-0.9,0-1.7,0.4-2.2,0.9c-0.6,0.6-0.9,1.3-0.9,2.2
		c0,1.7,1.4,3.2,3.2,3.2h2.9v8.6c0,0.9,0.7,1.6,1.6,1.6h8.2c0.9,0,1.6-0.7,1.6-1.6v-8.6h9.7v3.6h23v-3.6h9.7v8.6
		c0,0.9,0.7,1.6,1.6,1.6h8.2C391.1,366.2,391.5,366.1,391.8,365.8z"/>
	<path class="st31" d="M393.6,307.5v10c0,0.7,0.6,1.3,1.3,1.3h1.3v0.9l-5.2,3.2v-19.6l5.2,2.4v0.5h-1.3
		C394.2,306.2,393.6,306.8,393.6,307.5z"/>
	<path class="st31" d="M328.5,303.3v19.5l-5.1-3.1v-0.9h1.3c0.7,0,1.3-0.6,1.3-1.3v-10c0-0.7-0.6-1.3-1.3-1.3h-1.3v-0.5L328.5,303.3
		z"/>
</g>
<g>
	
		<radialGradient id="SVGID_4_" cx="345.9667" cy="529.8556" r="88.1603" gradientTransform="matrix(1 0 0 6.610256e-02 12.1414 381.6653)" gradientUnits="userSpaceOnUse">
		<stop  offset="0.1098" style="stop-color:#666666"/>
		<stop  offset="0.2379" style="stop-color:#757575;stop-opacity:0.856"/>
		<stop  offset="0.484" style="stop-color:#9C9C9C;stop-opacity:0.5794"/>
		<stop  offset="0.82" style="stop-color:#DBDBDB;stop-opacity:0.2016"/>
		<stop  offset="0.9994" style="stop-color:#FFFFFF;stop-opacity:0"/>
	</radialGradient>
	<ellipse class="st32" cx="358.1" cy="416.7" rx="93.1" ry="7.3"/>
	
		<linearGradient id="SVGID_5_" gradientUnits="userSpaceOnUse" x1="322.4097" y1="577.2995" x2="484.8143" y2="577.2995" gradientTransform="matrix(0.9416 -0.3368 0.3368 0.9416 -221.2722 -81.7324)">
		<stop  offset="0" style="stop-color:#DC70C8"/>
		<stop  offset="1" style="stop-color:#AF70F0"/>
	</linearGradient>
	<path class="st33" d="M389.8,388.9c-13.9,9.8-31.1,10.8-49.3,6.7c-32-7.3-49.2-36.7-44.3-67.6c5.2-32.5,36.3-51.9,69.6-45.4
		c6.9,1.3,13.3,3.8,19.1,7.1c8.4,4.8,18.9,4.8,27.1-0.5l0.7-0.4c9.2-5.9,10.1-18.5,1.9-25.7c-11.7-10.3-26.6-17.6-43.4-20.3
		c-44.9-7.3-88.3,21.3-97.9,64.3c-10.1,45.3,20.1,89.8,66.9,98.9c19.7,3.8,39.3,0.8,55.9-7.5c2.9-1.5,4-5,2.3-7.8l0,0
		C396.6,387.6,392.7,386.9,389.8,388.9z"/>
	
		<linearGradient id="SVGID_6_" gradientUnits="userSpaceOnUse" x1="403.4559" y1="552.7867" x2="405.0707" y2="641.2788" gradientTransform="matrix(0.9416 -0.3368 0.3368 0.9416 -221.2722 -81.7324)">
		<stop  offset="0.1098" style="stop-color:#666666"/>
		<stop  offset="0.2379" style="stop-color:#757575;stop-opacity:0.856"/>
		<stop  offset="0.484" style="stop-color:#9C9C9C;stop-opacity:0.5794"/>
		<stop  offset="0.82" style="stop-color:#DBDBDB;stop-opacity:0.2016"/>
		<stop  offset="0.9994" style="stop-color:#FFFFFF;stop-opacity:0"/>
	</linearGradient>
	<path class="st34" d="M389.8,388.9c-13.9,9.8-31.1,10.8-49.3,6.7c-32-7.3-49.2-36.7-44.3-67.6c5.2-32.5,36.3-51.9,69.6-45.4
		c6.9,1.3,13.3,3.8,19.1,7.1c8.4,4.8,18.9,4.8,27.1-0.5l0.7-0.4c9.2-5.9,10.1-18.5,1.9-25.7c-11.7-10.3-26.6-17.6-43.4-20.3
		c-44.9-7.3-88.3,21.3-97.9,64.3c-10.1,45.3,20.1,89.8,66.9,98.9c19.7,3.8,39.3,0.8,55.9-7.5c2.9-1.5,4-5,2.3-7.8l0,0
		C396.6,387.6,392.7,386.9,389.8,388.9z"/>
	
		<linearGradient id="SVGID_7_" gradientUnits="userSpaceOnUse" x1="411.0797" y1="522.7682" x2="389.2651" y2="624.5693" gradientTransform="matrix(0.9416 -0.3368 0.3368 0.9416 -221.2722 -81.7324)">
		<stop  offset="0" style="stop-color:#6B4C9D"/>
		<stop  offset="1" style="stop-color:#6D7DE5"/>
	</linearGradient>
	<path class="st35" d="M293.5,329.3c6.9-32.2,39-53.3,72.4-46.8c6.9,1.3,13.3,3.8,19.1,7.1c8.4,4.8,18.9,4.8,27.1-0.5l0.7-0.4
		c9.2-5.9,10.1-18.5,1.9-25.7c-11.7-10.3-26.6-17.6-43.4-20.3c-44.9-7.3-88.3,21.3-97.9,64.3c-10.1,45.3,20.1,89.8,66.9,98.9
		c13.1,2.5,26.1,2,38.2-1C306.2,416.5,288.1,354.3,293.5,329.3z"/>
	
		<linearGradient id="SVGID_8_" gradientUnits="userSpaceOnUse" x1="446.9184" y1="553.5029" x2="362.8485" y2="591.1216" gradientTransform="matrix(0.9416 -0.3368 0.3368 0.9416 -221.2722 -81.7324)">
		<stop  offset="0.1098" style="stop-color:#666666"/>
		<stop  offset="0.2379" style="stop-color:#757575;stop-opacity:0.856"/>
		<stop  offset="0.484" style="stop-color:#9C9C9C;stop-opacity:0.5794"/>
		<stop  offset="0.82" style="stop-color:#DBDBDB;stop-opacity:0.2016"/>
		<stop  offset="0.9994" style="stop-color:#FFFFFF;stop-opacity:0"/>
	</linearGradient>
	<path class="st36" d="M293.5,329.3c6.9-32.2,39-53.3,72.4-46.8c6.9,1.3,13.3,3.8,19.1,7.1c8.4,4.8,18.9,4.8,27.1-0.5l0.7-0.4
		c9.2-5.9,10.1-18.5,1.9-25.7c-11.7-10.3-26.6-17.6-43.4-20.3c-44.9-7.3-88.3,21.3-97.9,64.3c-10.1,45.3,20.1,89.8,66.9,98.9
		c13.1,2.5,26.1,2,38.2-1C306.2,416.5,288.1,354.3,293.5,329.3z"/>
	
		<linearGradient id="SVGID_9_" gradientUnits="userSpaceOnUse" x1="322.4162" y1="536.6994" x2="484.8076" y2="536.6994" gradientTransform="matrix(0.9416 -0.3368 0.3368 0.9416 -221.2722 -81.7324)">
		<stop  offset="0" style="stop-color:#73A9FA"/>
		<stop  offset="1" style="stop-color:#87F1FC"/>
	</linearGradient>
	<path class="st37" d="M317.2,278.2c33.2-12.7,56,0.5,68.8,9.9c7.8,5.7,17.8,6.2,26,0.9l0.7-0.4c9.2-5.9,10.1-18.5,1.9-25.7
		c-11.7-10.3-26.6-17.6-43.4-20.3c-44.9-7.3-88.3,21.3-97.9,64.3c-3.7,16.8-2,33.4,4.1,48.2C264.9,323.1,284,290.9,317.2,278.2z"/>
	
		<linearGradient id="SVGID_10_" gradientUnits="userSpaceOnUse" x1="322.429" y1="548.2518" x2="484.8034" y2="548.2518" gradientTransform="matrix(0.9416 -0.3368 0.3368 0.9416 -221.2722 -81.7324)">
		<stop  offset="0" style="stop-color:#85EBFD"/>
		<stop  offset="1" style="stop-color:#87F1FC;stop-opacity:0"/>
	</linearGradient>
	<path class="st38" d="M411.7,285.8l-0.7,0.4c-8.2,5.3-18.2,4.8-26-0.9c-12.8-9.4-35.6-22.6-68.8-9.9
		c-33.2,12.7-52.3,44.8-39.8,76.9c-0.2-0.5-0.4-0.9-0.5-1.4c0.5,1.4,1,2.9,1.6,4.3c-12.6-32.1,6.5-64.2,39.8-76.9
		c33.2-12.7,56,0.5,68.8,9.9c7.8,5.7,17.8,6.2,26,0.9l0.7-0.4c7.2-4.6,9.3-13.5,5.9-20.5C420.3,274.6,417.9,281.7,411.7,285.8z"/>
	
		<linearGradient id="SVGID_11_" gradientUnits="userSpaceOnUse" x1="436.6744" y1="643.8627" x2="433.6408" y2="657.6655" gradientTransform="matrix(0.9416 -0.3368 0.3368 0.9416 -221.2722 -81.7324)">
		<stop  offset="0" style="stop-color:#DC70C8"/>
		<stop  offset="1" style="stop-color:#AF70F0"/>
	</linearGradient>
	<path class="st39" d="M413.3,381.4c1.2,3.1-0.5,6.6-3.7,7.7c-3.2,1.1-6.8-0.5-7.9-3.6c-1.2-3.1,0.5-6.6,3.7-7.7
		C408.6,376.6,412.2,378.3,413.3,381.4z"/>
	<g>
		
			<linearGradient id="SVGID_12_" gradientUnits="userSpaceOnUse" x1="369.44" y1="621.9155" x2="420.3293" y2="629.5838" gradientTransform="matrix(0.9416 -0.3368 0.3368 0.9416 -221.2722 -81.7324)">
			<stop  offset="0" style="stop-color:#E697F1"/>
			<stop  offset="0.9921" style="stop-color:#AF70F0;stop-opacity:0"/>
		</linearGradient>
		<path class="st40" d="M389.8,388.9c-13.9,9.8-31.1,10.8-49.3,6.7c-20.2-4.6-34.6-18.1-41.1-35.2c6.2,18,20.9,32.4,41.8,37.1
			c18.2,4.1,35.4,3.1,49.3-6.7c2.8-2,6.8-1.3,8.6,1.6c0,0,0,0,0,0.1c-0.1-0.7-0.4-1.4-0.7-2C396.6,387.6,392.7,386.9,389.8,388.9z"
			/>
	</g>
	
		<linearGradient id="SVGID_13_" gradientUnits="userSpaceOnUse" x1="450.3847" y1="637.7933" x2="449.17" y2="647.2068" gradientTransform="matrix(0.9416 -0.3368 0.3368 0.9416 -221.2722 -81.7324)">
		<stop  offset="0" style="stop-color:#DC70C8"/>
		<stop  offset="1" style="stop-color:#AF70F0"/>
	</linearGradient>
	<path class="st41" d="M422.8,370.2c0.8,2.3-0.4,4.8-2.7,5.6s-4.9-0.4-5.8-2.7c-0.8-2.3,0.4-4.8,2.7-5.6
		C419.4,366.7,422,367.9,422.8,370.2z"/>
	
		<linearGradient id="SVGID_14_" gradientUnits="userSpaceOnUse" x1="460.3699" y1="632.7191" x2="459.1562" y2="638.9394" gradientTransform="matrix(0.9416 -0.3368 0.3368 0.9416 -221.2722 -81.7324)">
		<stop  offset="0" style="stop-color:#DC70C8"/>
		<stop  offset="1" style="stop-color:#AF70F0"/>
	</linearGradient>
	<path class="st42" d="M428.4,360.6c0.5,1.5-0.2,3.1-1.8,3.6c-1.5,0.5-3.2-0.2-3.7-1.7c-0.5-1.5,0.2-3.1,1.8-3.6
		C426.2,358.4,427.9,359.1,428.4,360.6z"/>
	<g>
		
			<linearGradient id="SVGID_15_" gradientUnits="userSpaceOnUse" x1="364.921" y1="636.916" x2="386.9738" y2="542.0468" gradientTransform="matrix(0.9416 -0.3368 0.3368 0.9416 -221.2722 -81.7324)">
			<stop  offset="0" style="stop-color:#95A5F8"/>
			<stop  offset="1" style="stop-color:#6D7DE5;stop-opacity:0"/>
		</linearGradient>
		<path class="st43" d="M293.5,329.3c4.5-20.9,19.5-37,38.6-44.1c-20.2,6.6-36.3,23.2-40.9,44.9c-5.2,24.4,11.9,84.2,79.9,76.2
			c2.5-0.4,5-0.9,7.4-1.5C306.2,416.5,288.1,354.3,293.5,329.3z"/>
	</g>
</g>
<g>
	<text transform="matrix(1 0 0 1 137.1465 357.8008)" class="st15 st44 st45">Bac</text>
	<g>
		<text transform="matrix(1 0 0 1 130.1172 486.3594)" class="st46 st47 st48">A SER SOLUCIONES PRODUCT</text>
	</g>
	<path class="st49" d="M599.2,462.1H69.8c-0.8,0-1.4,0.6-1.4,1.4l0,0c0,0.8,0.6,1.4,1.4,1.4h529.4c0.8,0,1.4-0.6,1.4-1.4l0,0
		C600.6,462.8,600,462.1,599.2,462.1z"/>
</g>
<g>
	<text transform="matrix(1 0 0 1 433.7324 357.8008)" class="st15 st44 st45">u</text>
</g>
</svg>
