<?xml version="1.0" encoding="utf-8"?>
<!-- Generator: Adobe Illustrator 21.1.0, SVG Export Plug-In . SVG Version: 6.00 Build 0)  -->
<svg version="1.1" xmlns="http://www.w3.org/2000/svg" xmlns:xlink="http://www.w3.org/1999/xlink" x="0px" y="0px"
	 viewBox="0 0 500 500" style="enable-background:new 0 0 500 500;" xml:space="preserve">
<style type="text/css">
	.st0{fill:#ECEFF1;}
	.st1{fill:url(#SVGID_1_);}
	.st2{opacity:0.62;fill:url(#SVGID_2_);}
	.st3{opacity:0.37;fill:#FFFFFF;}
	.st4{fill:none;stroke:#FFFFFF;stroke-linecap:round;stroke-linejoin:round;stroke-miterlimit:10;}
	.st5{opacity:0.8;}
	.st6{fill:#FFFFFF;}
	.st7{font-family:'Roboto-BoldCondensed';}
	.st8{font-size:15px;}
	.st9{font-family:'Roboto-Regular';}
	.st10{font-size:8.3109px;}
	.st11{fill:none;stroke:#FFFFFF;stroke-miterlimit:10;}
	.st12{font-family:'RobotoCondensed-Light';}
	.st13{font-size:8.8655px;}
	.st14{clip-path:url(#SVGID_4_);}
	.st15{fill:#049DBF;}
	.st16{fill:#E8E3DD;}
	.st17{fill:#C0BBB5;}
	.st18{fill:#B9D16F;}
	.st19{fill:#87D0E1;}
	.st20{opacity:0.5;fill:#FBB03B;}
	.st21{fill:#FBB03B;}
	.st22{fill:#FF7918;}
	.st23{fill:#FAC911;}
	.st24{fill:#F8E618;}
	.st25{fill:#F5B510;}
	.st26{fill:#5B575E;}
	.st27{fill:#F88011;}
	.st28{fill:#D7B500;}
	.st29{fill:#7DCDCE;}
	.st30{fill:#EBDF9F;fill-opacity:0.61;}
	.st31{fill:#4AB2AC;}
	.st32{fill:#FFFFFF;fill-opacity:0.1;}
	.st33{fill:#FCFCFC;}
	.st34{fill-opacity:0.18;}
	.st35{fill:url(#SVGID_5_);}
	.st36{fill:url(#SVGID_6_);}
	.st37{fill:url(#SVGID_7_);}
	.st38{fill:url(#SVGID_8_);}
</style>
<g id="BACKGROUND">
	<g>
		<rect class="st0" width="500" height="500"/>
	</g>
</g>
<g id="OBJECTS">
	<g>
		
			<image style="overflow:visible;opacity:0.75;" width="524" height="524" xlink:href="7F3C7BAF.png"  transform="matrix(1 0 0 1 -9 -9)">
		</image>
		<g>
			<g>
				<linearGradient id="SVGID_1_" gradientUnits="userSpaceOnUse" x1="0" y1="250" x2="500" y2="250">
					<stop  offset="0" style="stop-color:#0063BC"/>
					<stop  offset="1" style="stop-color:#4AE5FF"/>
				</linearGradient>
				<rect class="st1" width="500" height="500"/>
				<linearGradient id="SVGID_2_" gradientUnits="userSpaceOnUse" x1="19.2991" y1="261.2455" x2="75.7916" y2="261.2455">
					<stop  offset="0" style="stop-color:#00BCEF"/>
					<stop  offset="1" style="stop-color:#44F2F2"/>
				</linearGradient>
				<polygon class="st2" points="75.8,71.3 19.3,70.9 19.3,451.6 75.8,451.6 75.8,238.3 75.8,232.9 75.8,227.3 75.8,96.8 68.2,91.1 
					75.8,85.3 				"/>
				<rect x="19.2" y="18" class="st3" width="461.6" height="53.6"/>
				<g>
					<g>
						<polygon class="st4" points="47.5,120.7 49.4,124.4 53.4,125 50.5,127.9 51.2,131.9 47.5,130 43.9,131.9 44.6,127.9 41.7,125 
							45.7,124.4 						"/>
						<g>
							<rect x="42.5" y="155.3" class="st4" width="10" height="12.6"/>
							<g>
								<line class="st4" x1="44.8" y1="159" x2="50.3" y2="159"/>
								<line class="st4" x1="44.8" y1="161.6" x2="50.3" y2="161.6"/>
								<line class="st4" x1="44.8" y1="164.2" x2="50.3" y2="164.2"/>
							</g>
						</g>
						<g>
							<polygon class="st4" points="49.5,195.1 49.5,191.6 45.4,191.6 45.4,195.1 42,195.1 47.5,202.1 53.1,195.1 							"/>
							<line class="st4" x1="42.1" y1="202.1" x2="53" y2="202.1"/>
						</g>
						<path class="st4" d="M359.5,37.6c-0.2-0.2-0.4-0.3-0.5-0.5c0-0.1,0-0.1,0-0.2c0-0.2,0.1-0.4,0.1-0.6c0-0.1,0-0.2,0-0.2
							s0-0.1,0-0.2c0-0.1,0-0.3-0.1-0.6c0-0.1,0-0.1,0-0.2c0.2-0.1,0.3-0.3,0.5-0.5c0.2-0.2,0.4-0.4,0.5-0.6
							c0.1-0.2,0.2-0.3,0.2-0.3s0-0.1-0.1-0.3c-0.1-0.2-0.2-0.4-0.3-0.6c-0.2-0.4-0.5-0.8-0.5-0.8s-0.1,0-0.4,0
							c-0.2,0-0.5,0.1-0.8,0.2c-0.2,0.1-0.5,0.1-0.7,0.2c0,0-0.1-0.1-0.1-0.1c-0.4-0.3-0.7-0.4-0.7-0.4s-0.3-0.2-0.7-0.3
							c-0.1,0-0.1,0-0.2-0.1c0-0.2-0.1-0.4-0.1-0.7c-0.2-0.6-0.4-1.1-0.4-1.1s-0.1,0-0.3,0c-0.2,0-0.4,0-0.6,0c-0.2,0-0.5,0-0.6,0
							c-0.2,0-0.3,0-0.3,0s-0.3,0.5-0.4,1.1c-0.1,0.2-0.1,0.5-0.1,0.7c-0.1,0-0.1,0-0.2,0.1c-0.4,0.2-0.7,0.3-0.7,0.3
							s-0.3,0.2-0.7,0.4c0,0-0.1,0.1-0.1,0.1c-0.2-0.1-0.4-0.2-0.7-0.2c-0.3-0.1-0.6-0.1-0.8-0.2c-0.2,0-0.4,0-0.4,0
							s-0.3,0.4-0.5,0.8c-0.1,0.2-0.2,0.4-0.3,0.6c-0.1,0.2-0.1,0.3-0.1,0.3s0.1,0.1,0.2,0.3c0.1,0.2,0.3,0.4,0.5,0.6
							c0.2,0.2,0.4,0.3,0.5,0.5c0,0.1,0,0.1,0,0.2c0,0.2-0.1,0.4-0.1,0.6c0,0.1,0,0.2,0,0.2s0,0.1,0,0.2c0,0.1,0,0.3,0.1,0.6
							c0,0.1,0,0.1,0,0.2c-0.2,0.1-0.3,0.3-0.5,0.5c-0.2,0.2-0.4,0.4-0.5,0.6c-0.1,0.2-0.2,0.3-0.2,0.3s0,0.1,0.1,0.3
							c0.1,0.2,0.2,0.4,0.3,0.6c0.2,0.4,0.5,0.8,0.5,0.8s0.1,0,0.4,0c0.2,0,0.5-0.1,0.8-0.2c0.2-0.1,0.5-0.1,0.7-0.2
							c0,0,0.1,0.1,0.1,0.1c0.4,0.3,0.7,0.4,0.7,0.4s0.3,0.2,0.7,0.3c0.1,0,0.1,0,0.2,0.1c0,0.2,0.1,0.4,0.1,0.7
							c0.2,0.6,0.4,1.1,0.4,1.1s0.1,0,0.3,0c0.2,0,0.4,0,0.6,0c0.2,0,0.5,0,0.6,0c0.2,0,0.3,0,0.3,0s0.3-0.5,0.4-1.1
							c0.1-0.2,0.1-0.5,0.1-0.7c0.1,0,0.1,0,0.2-0.1c0.4-0.2,0.7-0.3,0.7-0.3s0.3-0.2,0.7-0.4c0,0,0.1-0.1,0.1-0.1
							c0.2,0.1,0.4,0.2,0.7,0.2c0.3,0.1,0.6,0.1,0.8,0.2c0.2,0,0.4,0,0.4,0s0.3-0.4,0.5-0.8c0.1-0.2,0.2-0.4,0.3-0.6
							c0.1-0.2,0.1-0.3,0.1-0.3s-0.1-0.1-0.2-0.3C359.9,38,359.7,37.8,359.5,37.6z M355.5,37.8c-0.2,0.1-0.3,0.2-0.3,0.2
							s-0.1,0.1-0.3,0.1c-0.2,0.1-0.5,0.1-0.7,0.1c-0.3,0-0.5-0.1-0.7-0.1c-0.2-0.1-0.3-0.1-0.3-0.1s-0.1-0.1-0.3-0.2
							c-0.2-0.1-0.3-0.3-0.5-0.6c-0.1-0.2-0.2-0.5-0.2-0.7c0-0.1,0-0.2,0-0.2c0-0.1,0-0.1,0-0.1s0,0,0-0.1c0-0.1,0-0.1,0-0.2
							c0-0.2,0.1-0.5,0.2-0.7c0.1-0.2,0.3-0.4,0.5-0.6c0.2-0.1,0.3-0.2,0.3-0.2s0.1-0.1,0.3-0.1c0.2-0.1,0.5-0.1,0.7-0.1
							c0.3,0,0.5,0.1,0.7,0.1c0.2,0.1,0.3,0.1,0.3,0.1s0.1,0.1,0.3,0.2c0.2,0.1,0.3,0.3,0.5,0.6c0.1,0.2,0.2,0.5,0.2,0.7
							c0,0.1,0,0.2,0,0.2c0,0.1,0,0.1,0,0.1s0,0,0,0.1c0,0.1,0,0.1,0,0.2c0,0.2-0.1,0.5-0.2,0.7C355.9,37.4,355.7,37.6,355.5,37.8z"
							/>
						<g>
							<rect x="41.4" y="224.5" class="st4" width="12.3" height="7.7"/>
							<polygon class="st4" points="41.4,224.5 47.5,229.4 53.7,224.5 							"/>
							<line class="st4" x1="41.4" y1="232.1" x2="45.9" y2="228.1"/>
							<line class="st4" x1="53.7" y1="232.1" x2="49.2" y2="228.1"/>
						</g>
					</g>
					<g>
						<text transform="matrix(1 0 0 1 83.0366 95.3306)" class="st5"><tspan x="0" y="0" class="st6 st7 st8">Rutas</tspan><tspan x="0" y="10" class="st6 st9 st10">Histórico</tspan><tspan x="0" y="29.9" class="st6 st9 st10">Programados</tspan><tspan x="0" y="49.9" class="st6 st9 st10">Búsqueda</tspan></text>
					</g>
				</g>
				<g>
					<g>
						<path class="st6" d="M34.7,54.9c0-3,2.4-5.4,5.4-5.4h0.2c1.7,2.2,4.3,3.6,7.3,3.6s5.6-1.4,7.3-3.6H55c3,0,5.4,2.4,5.4,5.4v1.3
							c2.7-3,4.4-7.1,4.4-11.5c0-9.5-7.7-17.2-17.2-17.2s-17.2,7.7-17.2,17.2c0,4.4,1.7,8.4,4.4,11.5V54.9z M47.5,36.5
							c4.1,0,7.4,3.3,7.4,7.4c0,4.1-3.3,7.4-7.4,7.4s-7.4-3.3-7.4-7.4C40.1,39.8,43.5,36.5,47.5,36.5z"/>
						<circle class="st11" cx="47.5" cy="44.8" r="17.2"/>
					</g>
					<g>
						<g>
							<circle class="st11" cx="285.6" cy="35.8" r="4.2"/>
							<line class="st11" x1="288.5" y1="38.7" x2="291.4" y2="41.6"/>
						</g>
						<g>
							<circle class="st6" cx="224.3" cy="34.2" r="3.2"/>
							<path class="st6" d="M228.5,36.6h-0.9c-0.8,1-2,1.7-3.4,1.7c-1.4,0-2.6-0.7-3.4-1.7h-0.9c-1,0-1.8,0.8-1.8,1.8v3.1h12v-3.1
								C230.2,37.4,229.4,36.6,228.5,36.6z"/>
						</g>
					</g>
					<g>
						<text transform="matrix(1 0 0 1 209.6759 56.7635)" class="st6 st12 st13">Mi Perfil                Busqueda            Configuración</text>
					</g>
					<g>
						<text transform="matrix(1 0 0 1 77.4922 49.2178)" class="st6 st12 st13">Pedro Pérez</text>
					</g>
				</g>
			</g>
		</g>
	</g>
	<path class="st6" d="M55.1,88.3c-0.3-0.2-0.9-0.2-1.2,0c-0.1,0-0.2,0.1-0.2,0.1c-0.4-1.3-0.5-2.6-1.2-3.7c-0.8-1.2-2.9-0.8-4.1-0.7
		c-1.5,0-3.9-0.5-5.2,0.6c-0.9,0.8-1.8,2.6-1.8,3.9c-0.2-0.2-0.6-0.3-0.9-0.3c-0.5,0-0.9,0.4-0.9,0.9c0,0.4,0.2,0.7,0.6,0.8
		c0.2,0.1,0.4,0.2,0.6,0.2c-0.2,1.8-0.9,4.6,0.6,5.9c1.1,1,2.4-0.2,2.5-1.4c1.3,0.4,2.7,0.4,4.1,0.5c1.2,0.1,2.4,0.1,3.6,0.1
		c0.3,1,1.6,1.4,2.6,0.8c0.7-0.5,0.7-1.7,0.7-2.4c0-1-0.1-2.3-0.4-3.4c0.4,0,0.8-0.2,1.1-0.6C55.8,89,55.5,88.5,55.1,88.3z
		 M53.7,91.5c-0.3,0.5-1,0.6-1.5,0.7c-0.3,0.1-0.6,0.1-0.9,0.1c-0.2,0-0.4-0.1-0.5-0.1c0,0,0-0.1,0-0.1c-0.4-0.6,0.8-1,1.2-1.1
		C52.2,90.9,54.2,90.6,53.7,91.5z M43.6,85.5c0.8-1,3.5-0.5,4.6-0.5c1.5,0,3.1-0.4,3.7,1.4c0.2,0.6,0.3,1.3,0.5,2
		c-0.3,0.1-0.6,0.2-0.9,0.3c-0.6,0.1-1.2,0.2-1.8,0.3c-1,0.1-2,0.1-2.9,0.1c-1,0-2.1-0.1-3.1-0.3c-0.5-0.1-1-0.3-1.5-0.5
		C42.7,87.5,43,86.3,43.6,85.5z M41.3,92.1c-0.1-0.6,0-1.3,0.8-1.4c0.6,0,1.3,0.5,1.8,0.8c0.2,0.2,0.6,0.5,0.1,0.6
		c-0.3,0.1-0.6,0-0.9,0C42.5,92.2,41.9,92.2,41.3,92.1z"/>
	<g>
		<defs>
			<rect id="SVGID_3_" x="153.3" y="117.5" width="302.8" height="305.7"/>
		</defs>
		<clipPath id="SVGID_4_">
			<use xlink:href="#SVGID_3_"  style="overflow:visible;"/>
		</clipPath>
		<g class="st14">
			<g>
				<polygon class="st15" points="419.1,266 411.2,259.1 407.9,266 415.7,272.6 411,281.9 360.5,275.4 351.9,274.3 337.3,272.4 
					332.1,271.8 324,288.9 323,299.6 318,303.9 302.9,306.7 294.1,321.7 289.2,325 272.3,322.1 274,343.3 281.6,354.8 284.7,363.2 
					280.4,370.8 257.8,371.1 251.1,369.2 248.8,360.5 242.6,354.1 233.1,333.9 227.2,309 230.3,302 250.6,288.9 245,275.8 
					210.9,252.4 206,248.1 197.1,240.3 197.1,229.1 203.8,214.1 204,210.2 207.2,206.6 204.6,202.2 198.7,192.2 195.4,196.2 
					201.3,205.9 189,210.2 174.5,220.1 174.5,234 193.9,244 197.6,247.2 198.7,252.6 206,254.6 210.9,258.9 214.3,267.9 
					227.9,285.8 227.2,297 224.1,304 210.9,317.3 214.1,327.2 236.5,365 239.6,373 247.6,373.3 254.4,375.2 255.1,385.7 
					293.7,392.7 295.3,384.2 295.6,379.3 291.3,367.3 287.4,356.4 290.2,344.5 280.4,336.9 291.2,337 292.8,328.4 297.7,325.1 
					311.5,315.8 321.7,307.2 326.8,302.9 342.4,289.5 338.9,277.5 354.1,279.5 362.6,280.6 408.6,286.6 413.6,287.5 419.6,275.8 
					422.9,269.3 				"/>
				<polygon class="st15" points="197.6,247.2 198.7,252.6 206,254.6 210.9,258.9 214.3,267.9 227.9,285.8 227.6,290.6 237.6,297.3 
					250.6,288.9 245,275.8 210.9,252.4 206,248.1 197.1,240.3 197.1,229.1 203.8,214.1 204,210.2 207.2,206.6 204.6,202.2 
					198.7,192.2 195.4,196.2 201.3,205.9 189,210.2 174.5,220.1 174.5,234 193.9,244 				"/>
				<g>
					<g>
						<polygon class="st16" points="187.5,102 173.6,155.2 150.1,142.3 147.6,102 						"/>
						<polygon class="st16" points="372.3,104.9 354.5,161 415.4,138.3 415.4,104.9 						"/>
						<polygon class="st16" points="428.9,136.5 384.9,156.8 403.3,172.5 						"/>
						<polygon class="st16" points="419.7,104.9 419.7,136.5 463.1,120.7 464.5,104.9 						"/>
						<polygon class="st16" points="469.9,123.9 444.2,132.9 474.1,151.6 						"/>
						<polygon class="st16" points="197.5,386.7 210.9,433.6 251.4,433.6 258,414.6 251.4,396.1 						"/>
						<polygon class="st16" points="258,395.3 277.4,433.6 313.7,433.6 316.3,406.3 						"/>
						<polygon class="st16" points="447.3,357.3 433.7,370.2 474.1,409.4 474.1,383.4 						"/>
						<polygon class="st16" points="399.2,391.4 372.9,406.7 348.5,432.9 418.2,433.6 						"/>
						<g>
							<g>
								<polygon class="st16" points="234.7,279.8 210.9,258.9 210.9,270.4 227.2,297 								"/>
								<polygon class="st16" points="258.4,255.2 210.9,220.1 210.9,252.4 240.6,278.5 230.3,302 237.5,313.8 264.4,299.7 								
									"/>
							</g>
						</g>
						<g>
							<g>
								<polygon class="st16" points="294.1,321.7 308.7,311.8 318,303.9 264.4,256 269.8,298.2 								"/>
								<polygon class="st16" points="360.6,341.9 321.7,307.2 311.5,315.8 297.7,325.1 334.4,360.5 								"/>
							</g>
						</g>
						<g>
							<g>
								<polygon class="st16" points="329.4,262.6 295,260.8 284.1,265.7 323,299.6 336.9,287.9 								"/>
								<polygon class="st16" points="342.4,289.5 326.8,302.9 364.7,335.9 375.9,333.1 354.1,279.5 338.9,277.5 								"/>
								<polygon class="st16" points="351.9,274.3 347.6,263.6 334.5,262.9 337.3,272.4 								"/>
							</g>
						</g>
						<g>
							<g>
								<polygon class="st16" points="288.5,257.7 274.7,227.1 256.7,225.9 251.5,212.9 214.3,215.7 279.7,260.8 								"/>
								<polygon class="st16" points="272.4,222.1 267.7,211.7 256.6,212.5 260.1,221.2 								"/>
							</g>
						</g>
						<g>
							<g>
								<polygon class="st16" points="325,205.9 337.8,203.1 290,158.5 271.5,206.6 278.5,222.5 312.5,224.9 								"/>
								<polygon class="st16" points="369.8,233.1 360.5,224.4 329.3,245.1 332.9,257.5 339.2,257.7 								"/>
								<polygon class="st16" points="315,230 280.7,227.6 293.3,256.2 327.8,257.3 323.6,243 356.9,221 342.1,207.2 327.9,210.2 
																	"/>
							</g>
						</g>
						<g>
							<g>
								<polygon class="st16" points="443.8,228.1 431.4,252.6 449.1,274 483.5,267.2 481.7,204.9 428.9,204.9 422.3,218.8 								
									"/>
								<polygon class="st16" points="420.2,223.2 415.4,233.4 428,248.5 437.1,230.5 								"/>
							</g>
						</g>
						<g>
							<g>
								<polygon class="st16" points="406.9,231.5 374.8,227.5 419.1,266 425.4,253.7 								"/>
								<polygon class="st16" points="422.9,269.3 440.5,284.6 444.2,276.2 428.8,257.7 								"/>
							</g>
						</g>
						<g>
							<g>
								<polygon class="st16" points="313.7,347.6 292.8,328.4 280.4,336.9 287.4,356.4 302.2,360.5 								"/>
								<polygon class="st16" points="281.6,354.8 274.5,334.9 289.2,325 266.7,304.4 241.1,318.7 256.1,347.6 								"/>
							</g>
						</g>
						<polygon class="st16" points="415.7,272.6 372.2,236.1 352.1,253.7 360.5,275.4 411,281.9 						"/>
						<polygon class="st16" points="433.1,314.8 440.5,293.4 419.6,275.8 407.8,298.9 						"/>
						<g>
							<g>
								<polygon class="st16" points="436.5,322.7 432.5,336.2 436,339.8 443.9,327.4 								"/>
								<polygon class="st16" points="449.5,279.1 438,317.9 450.6,325.8 439.4,343.5 468.4,374.1 468.4,279.1 								"/>
							</g>
						</g>
						<g>
							<g>
								<polygon class="st16" points="427.8,337.8 382.6,335.9 375.9,339.8 405.6,346.8 422.4,361.3 433.7,343.5 								"/>
								<polygon class="st16" points="426.1,364.5 429.9,367.9 444.6,354.1 437.2,347 								"/>
							</g>
						</g>
						<polygon class="st16" points="419.9,365.2 406.1,352.6 403.9,372.2 414.2,374.2 						"/>
						<g>
							<g>
								<polygon class="st16" points="398.8,371.2 402.2,350.5 369.8,342.3 339.7,363.1 361.3,384.8 380.7,367.6 								"/>
								<polygon class="st16" points="382.1,372.9 364.7,388.3 374.6,398.1 396.3,386.7 398.1,376 								"/>
							</g>
						</g>
						<g>
							<g>
								<polygon class="st16" points="344.1,406.6 335.3,399.7 319.8,414.5 317.9,429.7 339.7,429.7 366.1,400.9 358.9,393.5 
																	"/>
								<polygon class="st16" points="355.5,390 350.8,385.1 338.9,396.4 343.9,400.3 								"/>
							</g>
						</g>
						<g>
							<g>
								<polygon class="st16" points="321.6,382.8 335.5,393.7 348.1,381.8 316.3,354.1 307,364.3 308.6,374.1 307.5,380.9 								
									"/>
								<polygon class="st16" points="319.7,387.5 306.7,385.7 304.7,398.1 325.1,403.4 331.9,397.1 								"/>
							</g>
						</g>
						<g>
							<g>
								<polygon class="st16" points="266.7,360.5 257.8,371.1 277.9,376.9 290.2,378.6 284.7,363.2 280.4,360.5 								"/>
								<polygon class="st16" points="276.9,381.7 276.8,381.7 254.4,375.2 244.8,386.7 297.1,398.1 299.9,384.8 								"/>
								<polygon class="st16" points="300.9,380 302.2,374.1 291.3,367.3 295.6,379.3 								"/>
							</g>
						</g>
						<g>
							<g>
								<polygon class="st16" points="219.9,360.3 236.5,365 215.5,323.6 224.1,304 209.1,279.1 178.1,306.8 183.2,329.2 
									202.3,322.4 								"/>
								<polygon class="st16" points="251.1,369.2 258.4,360.5 227.2,309 220.9,323.5 242.8,366.8 								"/>
								<polygon class="st16" points="216.5,364.4 199.8,328.5 184.4,334 195.1,380.2 236.3,386.7 247.6,373.3 								"/>
							</g>
						</g>
						<g>
							<g>
								<polygon class="st16" points="162.2,336.7 177.8,331.1 171.7,308.3 150.1,304.4 150.1,335.3 								"/>
								<polygon class="st16" points="162.8,341.7 150.1,340.3 150.1,380.6 186.6,363.9 179.1,335.9 								"/>
							</g>
						</g>
						<g>
							<g>
								<g>
									<polygon class="st16" points="206,272.8 206,254.6 197.6,247.2 173.4,270 150.1,256.7 150.1,298.3 173.3,299.7 									
										"/>
								</g>
								<g>
									<polygon class="st16" points="206,248.1 206,213.5 204,210.2 185.9,230.4 									"/>
								</g>
								<g>
									<polygon class="st16" points="172.7,263.9 193.9,244 178.9,230.8 201.3,205.9 173.6,161 150.1,149.5 150.1,251.1 									
										"/>
								</g>
							</g>
						</g>
						<polygon class="st16" points="218.2,187 221.7,183.2 238.1,178.6 233.1,162.5 223.5,156.3 205.8,172.7 						"/>
						<polygon class="st16" points="207,139.8 222.9,150.1 238.7,135.5 238.7,119.3 214.4,110 						"/>
						<polygon class="st16" points="210.3,211.7 249.3,207.4 239.7,183.2 224.3,187.5 207.2,206.6 						"/>
						<polygon class="st16" points="215,190.6 199.1,172.3 219.2,153.5 201.5,142 209.8,108.2 193.6,102 178.1,157.7 204.6,202.2 
													"/>
						<polygon class="st16" points="243.6,135.3 264.9,151.8 279.6,147.1 259.4,127.2 243.6,121.1 						"/>
						<g>
							<g>
								<polygon class="st16" points="291,148.6 320.7,177.1 337.1,170 319.5,139.4 								"/>
								<polygon class="st16" points="303.7,139.4 321.8,133.6 341.6,168.1 345.6,166.4 367.7,105.2 320.2,97.5 								"/>
								<polygon class="st16" points="297.7,141.3 315.3,96.7 290.4,92.7 264.4,122.9 287,144.7 								"/>
							</g>
						</g>
						<g>
							<g>
								<polygon class="st16" points="354.1,199.6 340.1,175.1 324.9,180.7 347.7,201 								"/>
								<polygon class="st16" points="369.6,201.3 352.2,205 364.5,215.9 379.8,205.7 								"/>
								<polygon class="st16" points="401.3,209.7 416,216 424.6,200.5 378,161 368.4,164.5 								"/>
								<polygon class="st16" points="368.2,219.3 369.8,220.6 411.8,223.5 413.6,220.3 385.2,208 								"/>
								<polygon class="st16" points="344.7,173.4 359.1,198.5 370.1,196.2 392.5,205.9 363.7,166.3 								"/>
							</g>
						</g>
						<polygon class="st17" points="302.1,169.7 298.7,175.1 310.4,185 314.1,180.9 						"/>
						<polygon class="st17" points="228.3,233 225.2,239.4 243.3,250.6 246.9,246.7 						"/>
						<rect x="244.8" y="280.6" class="st17" width="6.6" height="8.3"/>
						<polygon class="st17" points="429.7,222 439.5,226.2 444.2,214.3 434.4,210.3 						"/>
						<polygon class="st17" points="293.3,256.2 301,256.5 304.3,248.3 294.4,244.3 291.4,252 						"/>
						<rect x="383.9" y="353.2" class="st17" width="6.6" height="8.3"/>
						<rect x="372.6" y="353.2" class="st17" width="6.6" height="8.3"/>
						<polygon class="st17" points="331.5,320.7 327.4,317.1 322.9,322.3 327.1,325.9 						"/>
						<polygon class="st17" points="337,325.4 332.9,321.8 328.4,327 332.6,330.6 						"/>
						<polygon class="st17" points="342.5,330.2 338.4,326.6 333.9,331.8 338.1,335.4 						"/>
						<polygon class="st17" points="214.9,389.8 207.5,388.5 204.8,400.2 212.2,401.9 						"/>
						<polygon class="st17" points="219.7,396.3 215.4,395.5 213.9,402.3 218.1,403.3 						"/>
						<polygon class="st17" points="225.6,396.3 221.3,395.5 219.7,402.3 224,403.3 						"/>
						<polygon class="st17" points="231.4,396.3 227.1,395.5 225.6,402.3 229.8,403.3 						"/>
						<g>
							<polygon class="st17" points="199,278.6 203.9,274.6 203.9,267 199,267 							"/>
							<polygon class="st17" points="182.3,291.1 182.3,281.9 177.4,281.9 177.4,294.1 177.4,296.3 177.5,296.3 182.3,292.3 							
								"/>
							<polygon class="st17" points="196.7,271.9 191.8,271.9 191.8,284.1 191.8,284.5 196.7,280.5 							"/>
							<polygon class="st17" points="189.5,286.1 189.5,276.9 184.6,276.9 184.6,289.1 184.6,290.4 189.5,286.4 							"/>
						</g>
						<polygon class="st17" points="256.1,347.6 263.8,349.8 264.4,335.4 255.8,326.2 246.5,329.1 						"/>
						<polygon class="st17" points="384,140.7 379.8,140.7 370.4,144.7 371,154.8 391.4,147.2 						"/>
						<polygon class="st17" points="405.9,141.9 411.2,139.9 411.2,127.3 405.9,127.3 						"/>
					</g>
					<g>
						<polygon class="st18" points="437.8,136.5 406.8,177.1 432.1,198.7 464.2,198.7 474.1,158.5 						"/>
						<polygon class="st18" points="186.6,370.8 150.1,389.2 150.1,432.4 204.4,432.4 						"/>
						<g>
							<g>
								<g>
									<polygon class="st18" points="426.8,333.1 431.4,319.5 401.5,300.6 408.6,286.6 362.6,280.6 383,333.1 									"/>
								</g>
							</g>
						</g>
						<g>
							<g>
								<g>
									<polygon class="st18" points="423.6,368.5 416.5,379.6 403.3,377 402.2,386.8 426.5,435.2 466.4,435.2 474.1,414.5 
																			"/>
								</g>
							</g>
						</g>
						<g>
							<g>
								<g>
									<polygon class="st18" points="241.3,139.7 227.1,152.9 237.2,159.4 243.4,179.4 254.3,206.8 266.2,205.5 287.1,154.5 
										283.5,151 263.9,157.2 									"/>
								</g>
							</g>
						</g>
						<path class="st19" d="M272,169.3c-0.6-1-1.4-1.8-2-2.7c0,0-3.5-4.7-11.5-4.2c-3.7,0.3-6.7,0.1-9.6,2.8
							c-2.2,2.1-1.7,6.1-0.6,8.6c0.8,1.8,1.9,3.4,2.8,5.1c0.8,1.6,1.5,3.3,2.4,4.8c1.6,2.9,4.6,4.8,7.9,4.6c3.3-0.2,7.6-2.1,9.6-5.2
							c1.9-2.9,2-6,2-9.4C272.9,171.9,272.9,171,272,169.3z"/>
					</g>
				</g>
			</g>
			<g>
				<ellipse class="st20" cx="232.5" cy="292.5" rx="15.1" ry="15.3"/>
				<g>
					<polygon class="st21" points="229.7,281.1 234.1,288.9 243,288.1 226.4,303.8 					"/>
					<polygon class="st21" points="229.7,281.1 234.1,288.9 243,288.1 232.5,292.1 					"/>
					<polygon class="st20" points="229.7,281.1 226.4,303.8 232.5,292.1 					"/>
				</g>
			</g>
			<g>
				<g>
					<path class="st15" d="M405.6,259.7c0,1.2-1,2.2-2.2,2.2h-27.2c-1.2,0-2.2-1-2.2-2.2v-6.2c0-1.2,1-2.2,2.2-2.2h27.2
						c1.2,0,2.2,1,2.2,2.2V259.7z"/>
					<path class="st15" d="M405.6,259.7c0,1.2-1,2.2-2.2,2.2h-27.2c-1.2,0-2.2-1-2.2-2.2v-6.2c0-1.2,1-2.2,2.2-2.2h27.2
						c1.2,0,2.2,1,2.2,2.2V259.7z"/>
				</g>
			</g>
		</g>
	</g>
	<g id="Logo" transform="matrix(1.03535,0,0,1.03535,-312.06,-331.568)">
		<g transform="matrix(0,-2.37827,-2.37827,0,374.618,335.49)">
			<path class="st22" d="M-182.5-83.6c-6.3,0-11.3,5.1-11.3,11.3c0,6.3,5.1,11.3,11.3,11.3c6.3,0,11.3-5.1,11.3-11.3
				C-171.1-78.5-176.2-83.6-182.5-83.6"/>
		</g>
		<g id="Bus" transform="matrix(1,0,0,1,3.37461,3.90149)">
			<g transform="matrix(-2.37827,0,0,2.37827,630.291,-178.034)">
				<rect x="31.3" y="402" class="st23" width="9.3" height="-5"/>
			</g>
			<path class="st24" d="M536.1,778.1h-4.7v-9.4c0-1.3,1-2.3,2.3-2.3c0.6,0,1.2,0.3,1.7,0.7c0.4,0.4,0.7,1,0.7,1.7V778.1z
				 M558.1,778.1h-4.7v-9.4c0-1.3,1-2.3,2.3-2.3c0.6,0,1.2,0.3,1.7,0.7c0.4,0.4,0.7,1,0.7,1.7V778.1z"/>
			<path class="st25" d="M532.6,757.2c0-2,5.4-3.6,12.1-3.6c6.7,0,12.1,1.6,12.1,3.6v9.5h-24.2V757.2L532.6,757.2z"/>
			<path class="st26" d="M536.6,778.2v3.3c0,0.3-0.3,0.6-0.6,0.6h-3.2c-0.3,0-0.6-0.3-0.6-0.6v-3.3H536.6z M557.3,778.2v3.3
				c0,0.3-0.3,0.6-0.6,0.6h-3.2c-0.3,0-0.6-0.3-0.6-0.6v-3.3H557.3z M559.4,763.8v0.7l-2.6,1.6v-0.7l2-1.2v-0.3h-0.5
				c-0.3,0-0.5-0.2-0.5-0.5v-3.9c0-0.3,0.2-0.5,0.5-0.5h0.5v-0.2l-2-0.9v-0.5c0,0,0-0.1,0-0.1l2.6,1.2v0.6h0.5
				c0.3,0,0.5,0.2,0.5,0.5v3.9c0,0.3-0.2,0.5-0.5,0.5H559.4z M530.7,763.8v0.3l2,1.2v0.7l-2.6-1.5v-0.7h-0.5c-0.3,0-0.5-0.2-0.5-0.5
				v-3.9c0-0.3,0.2-0.5,0.5-0.5h0.5v-0.6l2.6-1.2c0,0,0,0.1,0,0.1v0v0.6l-2,0.9v0.2h0.5c0.3,0,0.5,0.2,0.5,0.5v3.9
				c0,0.3-0.2,0.5-0.5,0.5H530.7z"/>
			<path class="st27" d="M534.8,772c0,0.6-0.5,1.1-1.1,1.1c-0.6,0-1.1-0.5-1.1-1.1s0.5-1.1,1.1-1.1
				C534.3,770.9,534.8,771.4,534.8,772z M556.8,772c0,0.6-0.5,1.1-1.1,1.1c-0.6,0-1.1-0.5-1.1-1.1s0.5-1.1,1.1-1.1
				C556.3,770.9,556.8,771.4,556.8,772z"/>
			<path class="st6" d="M557.3,769c0,0.9-0.7,1.6-1.6,1.6c-0.9,0-1.6-0.7-1.6-1.6c0-0.9,0.7-1.6,1.6-1.6
				C556.6,767.5,557.3,768.2,557.3,769z M535.3,769c0,0.9-0.7,1.6-1.6,1.6c-0.9,0-1.6-0.7-1.6-1.6c0-0.9,0.7-1.6,1.6-1.6
				C534.6,767.5,535.3,768.2,535.3,769z"/>
			<path class="st28" d="M552.2,775.7v-6.1c0-1,0.7-1.9,1.6-2.2c-0.3,0.4-0.4,0.8-0.4,1.3v7H552.2z M551.8,774.4h-14.1v-5.8h14.1
				V774.4z"/>
			<g transform="matrix(2.37827,0,0,2.37827,406.986,413.884)">
				<path class="st29" d="M64.2,152.7c0,0.3-0.2,0.5-0.5,0.5H52.2c-0.3,0-0.5-0.2-0.5-0.5c0-0.1,0.1-0.3,0.2-0.4
					c0.1-0.1,0.2-0.2,0.4-0.2h11.5C64,152.1,64.2,152.4,64.2,152.7"/>
			</g>
			<g transform="matrix(2.37827,0,0,2.37827,390.158,408.493)">
				<path class="st30" d="M68,151.4v2.4h-0.4v-2H62v-0.4H68z"/>
			</g>
			<path class="st31" d="M543.9,765h-9.7v-5.6h9.7V765z M555.3,765h-9.7v-5.6h9.7V765z"/>
			<path class="st32" d="M555.3,759.3v5.6l-9.7-5.6H555.3z M543.9,759.3v5.6l-9.7-5.6H543.9z"/>
			<path class="st33" d="M549.2,779.5h-8.9v-2.3h8.9V779.5z M550.1,757.8h-10.7v-2.1h10.7V757.8z"/>
		</g>
		<g transform="matrix(0.965859,0,0,0.965859,301.406,320.248)">
			<path class="st34" d="M228.1,469.7l11-11.1c0,0,0,0.1,0,0.1v4c0,0.3,0.2,0.5,0.5,0.5h0.5v0.7l2.7,1.6v0.6
				c-0.8,0.4-1.3,1.2-1.3,2.1v7.3h-0.3c-0.3,0-0.7,0.1-0.9,0.4c-0.2,0.2-0.4,0.5-0.4,0.9c0,0.7,0.6,1.3,1.3,1.3h1.2v3.4
				c0,0.4,0.3,0.6,0.6,0.6h3.3c0.3,0,0.6-0.3,0.6-0.6v-3.4h3.9v1.4h9.2v-1.4h3.9v3.4c0,0.4,0.3,0.6,0.6,0.6h3.3
				c0.2,0,0.3-0.1,0.4-0.2l-10.1,10.1c-3.7,0.7-7.8,0.4-12-0.5C235.2,489.1,228.5,480,228.1,469.7z M270,463.2v0.4l-2.1,1.3V457
				l2.1,1v0.2h-0.5c-0.3,0-0.5,0.2-0.5,0.5v4c0,0.3,0.2,0.5,0.5,0.5H270z M242.9,457v7.8l-2-1.2v-0.3h0.5c0.3,0,0.5-0.2,0.5-0.5v-4
				c0-0.3-0.2-0.5-0.5-0.5h-0.5V458L242.9,457z"/>
		</g>
		
			<linearGradient id="SVGID_5_" gradientUnits="userSpaceOnUse" x1="182.0811" y1="1206.6455" x2="182.1655" y2="1206.6455" gradientTransform="matrix(744.0074 0 0 -785.9048 -134957.2188 949076.125)">
			<stop  offset="0" style="stop-color:#1A80F0"/>
			<stop  offset="0.19" style="stop-color:#1AA1F0"/>
			<stop  offset="0.4" style="stop-color:#1AC2F0"/>
			<stop  offset="1" style="stop-color:#1AD0F0"/>
		</linearGradient>
		<path class="st35" d="M513.2,760.8c-3.9,17.5,7.8,34.7,25.9,38.2c7.6,1.5,15.2,0.3,21.6-2.9c1.1-0.6,1.5-1.9,0.9-3
			c-0.7-1.1-2.2-1.4-3.3-0.6c-5.4,3.8-12,4.2-19,2.6c-12.3-2.8-19-14.2-17.1-26.1c2-12.6,14-20,26.9-17.6c2.7,0.5,5.2,1.5,7.4,2.7
			c3.3,1.9,7.3,1.8,10.5-0.2l0.3-0.2c3.5-2.3,3.9-7.2,0.7-9.9c-4.5-4-10.3-6.8-16.8-7.8c-1.8-0.3-3.6-0.4-5.4-0.4
			C530.3,735.6,516.5,745.9,513.2,760.8z M564.2,788.6c-1.2,0.4-1.9,1.8-1.4,3c0.4,1.2,1.8,1.8,3.1,1.4c1.2-0.4,1.9-1.8,1.4-3
			c-0.4-0.9-1.3-1.5-2.3-1.5C564.7,788.5,564.4,788.5,564.2,788.6z M568.7,784.7c-0.9,0.3-1.4,1.3-1.1,2.2c0.3,0.9,1.3,1.3,2.2,1
			c0.9-0.3,1.4-1.3,1.1-2.2c-0.3-0.7-0.9-1.1-1.6-1.1C569,784.6,568.9,784.6,568.7,784.7z M571.6,781.3c-0.6,0.2-0.9,0.8-0.7,1.4
			c0.2,0.6,0.9,0.9,1.4,0.7c0.6-0.2,0.9-0.8,0.7-1.4c-0.2-0.4-0.6-0.7-1.1-0.7C571.9,781.3,571.7,781.3,571.6,781.3z"/>
		<g transform="matrix(123.508,0,0,-123.508,301.786,367.801)">
			
				<linearGradient id="SVGID_6_" gradientUnits="userSpaceOnUse" x1="-0.969" y1="-6.7903" x2="-0.8846" y2="-6.7903" gradientTransform="matrix(5.5147 0 0 -5.5147 -144.3384 -5890.3354)">
				<stop  offset="0" style="stop-color:#00BCEF"/>
				<stop  offset="1" style="stop-color:#44F2F2"/>
			</linearGradient>
			<path class="st36" d="M1.7-3.2c0-0.1,0-0.1,0-0.2c0,0.1,0,0.2,0.1,0.2c0.1,0,0.2,0,0.2,0c0,0,0.1,0,0.1,0l0,0c0,0,0,0.1,0,0.1
				C2.1-3,2.1-3,2-3c0,0,0,0,0,0C1.9-3,1.7-3.1,1.7-3.2z"/>
		</g>
		
			<linearGradient id="SVGID_7_" gradientUnits="userSpaceOnUse" x1="181.8299" y1="1207.1619" x2="181.884" y2="1207.1619" gradientTransform="matrix(744.0074 0 0 -785.9048 -134957.2188 949076.125)">
			<stop  offset="0" style="stop-color:#1A80F0"/>
			<stop  offset="0.19" style="stop-color:#1AA1F0"/>
			<stop  offset="0.4" style="stop-color:#1AC2F0"/>
			<stop  offset="1" style="stop-color:#1AD0F0"/>
		</linearGradient>
		<path class="st37" d="M326,357.4c-2.5,11.4,5,22.5,16.6,24.8c4.9,1,9.7,0.2,13.8-1.9c0.7-0.4,1-1.3,0.6-1.9
			c-0.4-0.7-1.4-0.9-2.1-0.4c-3.4,2.4-7.7,2.7-12.2,1.7c-7.9-1.8-12.2-9.2-11-16.9c1.3-8.1,9-13,17.2-11.4c1.7,0.3,3.3,0.9,4.7,1.8
			c2.1,1.2,4.7,1.2,6.7-0.1l0.2-0.1c2.3-1.5,2.5-4.6,0.5-6.4c-2.9-2.6-6.6-4.4-10.8-5.1c-1.2-0.2-2.3-0.3-3.5-0.3
			C337,341,328.2,347.7,326,357.4z M358.7,375.4c-0.8,0.3-1.2,1.1-0.9,1.9c0.3,0.8,1.2,1.2,2,0.9c0.8-0.3,1.2-1.1,0.9-1.9
			c-0.2-0.6-0.8-1-1.4-1C359.1,375.3,358.9,375.4,358.7,375.4z M361.6,372.8c-0.6,0.2-0.9,0.8-0.7,1.4c0.2,0.6,0.9,0.9,1.4,0.7
			c0.6-0.2,0.9-0.8,0.7-1.4c-0.2-0.4-0.6-0.7-1.1-0.7C361.9,372.8,361.7,372.8,361.6,372.8z M363.5,370.7c-0.4,0.1-0.6,0.5-0.4,0.9
			c0.1,0.4,0.5,0.6,0.9,0.4c0.4-0.1,0.6-0.5,0.4-0.9c-0.1-0.3-0.4-0.5-0.7-0.5C363.7,370.6,363.6,370.7,363.5,370.7z"/>
		<g transform="matrix(123.508,0,0,-123.508,301.786,367.801)">
			
				<linearGradient id="SVGID_8_" gradientUnits="userSpaceOnUse" x1="-0.9712" y1="-6.795" x2="-0.917" y2="-6.795" gradientTransform="matrix(5.5147 0 0 -5.5147 -144.3384 -5890.3354)">
				<stop  offset="0" style="stop-color:#00BCEF"/>
				<stop  offset="1" style="stop-color:#44F2F2"/>
			</linearGradient>
			<path class="st38" d="M0.2,0.1C0.2,0.1,0.2,0,0.2,0.1C0.2,0.1,0.2,0.1,0.2,0.1c0.2,0.1,0.2,0.1,0.2,0c0,0,0,0,0.1,0l0,0
				c0,0,0,0,0,0.1c0,0-0.1,0-0.1,0c0,0,0,0,0,0C0.3,0.2,0.2,0.2,0.2,0.1z"/>
		</g>
	</g>
</g>
<g id="Fondo">
</g>
</svg>
