<?xml version="1.0" encoding="utf-8"?>
<!-- Generator: Adobe Illustrator 21.1.0, SVG Export Plug-In . SVG Version: 6.00 Build 0)  -->
<svg version="1.1" xmlns="http://www.w3.org/2000/svg" xmlns:xlink="http://www.w3.org/1999/xlink" x="0px" y="0px"
	 viewBox="0 0 111.7 239.4" style="enable-background:new 0 0 111.7 239.4;" xml:space="preserve">
<style type="text/css">
	.st0{fill:#FFFFFF;}
	.st1{fill:url(#SVGID_1_);}
	.st2{fill:none;}
	.st3{fill:#151616;}
	.st4{font-family:'OpenSans';}
	.st5{font-size:5.6121px;}
	.st6{fill:#BFC1BF;}
	.st7{font-size:4.0885px;}
	.st8{font-size:4px;}
	.st9{font-size:13px;}
	.st10{fill:none;stroke:#FFFFFF;stroke-width:0.5;stroke-miterlimit:10;}
	.st11{font-size:2.7257px;}
	.st12{fill:#25BCAF;}
	.st13{fill:#049DBF;}
	.st14{fill:#E8E3DD;}
	.st15{fill:#C0BBB5;}
	.st16{fill:#B9D16F;}
	.st17{fill:#87D0E1;}
	.st18{opacity:0.5;fill:#FBB03B;}
	.st19{fill:#FBB03B;}
	.st20{font-family:'Quicksand-Bold';}
	.st21{font-size:1.7319px;}
	.st22{fill:#EA2E49;}
	.st23{fill-rule:evenodd;clip-rule:evenodd;fill:#727270;}
	.st24{opacity:0.4;fill:url(#SVGID_3_);}
	.st25{fill:url(#SVGID_4_);}
	.st26{opacity:0.6;fill:url(#SVGID_5_);}
	.st27{fill:url(#SVGID_6_);}
	.st28{opacity:0.6;fill:url(#SVGID_7_);}
	.st29{fill:url(#SVGID_8_);}
	.st30{fill:url(#SVGID_9_);}
	.st31{fill:url(#SVGID_10_);}
	.st32{fill:url(#SVGID_11_);}
	.st33{fill:url(#SVGID_12_);}
	.st34{fill:url(#SVGID_13_);}
	.st35{fill:url(#SVGID_14_);}
</style>
<g id="BACKGROUND">
</g>
<g id="OBJECTS">
	<g>
		<path class="st0" d="M111.7,11.9v215.7c0,6.5-5.3,11.9-11.8,11.9h-88c-6.5,0-11.9-5.3-11.9-11.9V11.9C0,5.3,5.3,0,11.9,0h13.8v4
			c0,3.3,2.7,6,6,6H80c3.3,0,6-2.7,6-6V0h13.8C106.4,0,111.7,5.3,111.7,11.9z"/>
		<linearGradient id="SVGID_1_" gradientUnits="userSpaceOnUse" x1="0" y1="39.1772" x2="111.6589" y2="39.1772">
			<stop  offset="0" style="stop-color:#009EFF"/>
			<stop  offset="4.572010e-02" style="stop-color:#18A2FC"/>
			<stop  offset="0.1235" style="stop-color:#3BA7F9"/>
			<stop  offset="0.2091" style="stop-color:#59ACF6"/>
			<stop  offset="0.3029" style="stop-color:#72B0F3"/>
			<stop  offset="0.408" style="stop-color:#85B2F1"/>
			<stop  offset="0.531" style="stop-color:#92B4F0"/>
			<stop  offset="0.6885" style="stop-color:#9AB6EF"/>
			<stop  offset="1" style="stop-color:#9CB6EF"/>
		</linearGradient>
		<path class="st1" d="M111.7,11.9v54.7c0,6.5-5.3,11.9-11.8,11.9h-88C5.3,78.4,0,73,0,66.5V11.9C0,5.3,5.3,0,11.9,0h13.8H86
			C87,0.6,67.1,8.6,67.2,0l10,0.1c6.1,9.9-4.9,8-4.9,4.7L86,0h13.8C106.4,0,111.7,5.3,111.7,11.9z"/>
		<path id="SVGID_2_" class="st2" d="M111.7,11.9v215.7c0,6.5-5.3,11.9-11.8,11.9h-88c-6.5,0-11.9-5.3-11.9-11.9V11.9
			C0,5.3,5.3,0,11.9,0h13.8v4c0,3.3,2.7,6,6,6H80c3.3,0,6-2.7,6-6V0h13.8C106.4,0,111.7,5.3,111.7,11.9z"/>
		<g>
			<path class="st0" d="M95.7,6.9c-0.2,0-0.4,0.2-0.4,0.4c0,0.2,0.2,0.4,0.4,0.4s0.4-0.2,0.4-0.4C96.1,7,96,6.9,95.7,6.9z M94.9,6.4
				l0.3,0.3c0.1-0.1,0.3-0.2,0.5-0.2c0.2,0,0.4,0.1,0.5,0.2l0.3-0.3C96.4,6.2,96.1,6,95.7,6C95.4,6,95.1,6.2,94.9,6.4z M94.1,5.6
				L94.5,6c0.3-0.3,0.8-0.5,1.3-0.5c0.5,0,0.9,0.2,1.3,0.5l0.3-0.3c-0.4-0.4-1-0.7-1.6-0.7C95.1,5,94.6,5.2,94.1,5.6z M95.7,4.1
				c-0.9,0-1.7,0.4-2.3,0.9l0.3,0.3c0.5-0.5,1.2-0.8,1.9-0.8c0.8,0,1.4,0.3,1.9,0.8L98,5C97.4,4.4,96.6,4.1,95.7,4.1z"/>
			<path class="st0" d="M91.9,4.6v2.9h0.5V4.6H91.9z M91,7.5h0.5V5.1H91V7.5z M90.2,7.5h0.5V5.6h-0.5V7.5z M89.3,7.5h0.5V6.2h-0.5
				V7.5z M88.4,7.5h0.5V6.7h-0.5V7.5z"/>
			<path class="st0" d="M99.5,5.4v1.5c0,0.2,0.2,0.4,0.4,0.4h3.5V5h-3.5C99.7,5,99.5,5.2,99.5,5.4z M104.9,5.8V5.3
				c0-0.3-0.3-0.6-0.6-0.6h-4.5c-0.3,0-0.6,0.3-0.6,0.6v1.6c0,0.3,0.3,0.6,0.6,0.6h4.5c0.3,0,0.6-0.3,0.6-0.6V6.5h0.3V5.8H104.9z
				 M104.8,6.9c0,0.3-0.2,0.5-0.5,0.5h-4.5c-0.3,0-0.5-0.2-0.5-0.5V5.3c0-0.3,0.2-0.5,0.5-0.5h4.5c0.3,0,0.5,0.2,0.5,0.5V6.9z"/>
		</g>
		<g>
			<path class="st0" d="M30.8,37c0,3.1-1.1,5.9-2.9,8.2c-2.4,2.9-6,4.8-10,4.8s-7.7-1.9-10-4.8C6,42.9,4.9,40.1,4.9,37
				c0-7.1,5.8-12.9,12.9-12.9S30.8,29.9,30.8,37z"/>
			<path class="st3" d="M27.9,45.2c-2.4,2.9-6,4.8-10,4.8s-7.7-1.9-10-4.8c0.2-0.4,0.6-0.6,1-0.8l5-2.1c0.6-0.3,1-0.8,1-1.5v-1
				c-0.7-0.8-1.3-1.9-1.7-3.3c-0.2,0-0.4-0.2-0.4-0.4l-0.7-1.8c-0.1-0.3,0.1-0.6,0.3-0.7l0.2-0.1c-0.3-3.7,1.4-5.5,5.2-5.5
				c3.8,0,5.4,1.8,5.2,5.5l0,0l0.3,0.1c0.3,0.1,0.5,0.4,0.3,0.7L23,36.1c-0.1,0.2-0.3,0.4-0.5,0.4c-0.4,1.4-0.9,2.5-1.6,3.3v1.1
				c0,0.6,0.4,1.2,1,1.5l5,2.1C27.3,44.5,27.6,44.8,27.9,45.2z"/>
		</g>
		<g>
			<text transform="matrix(1 0 0 1 35.7408 28.8933)" class="st0 st4 st5">Pepito Pérez</text>
		</g>
		<g>
			<text transform="matrix(1 0 0 1 4.9225 86.7965)" class="st6 st4 st7">UBICACIÓN EN TIEMPO REAL</text>
		</g>
		<g>
			<text transform="matrix(1 0 0 1 23.7408 66.0535)"><tspan x="0" y="0" class="st0 st4 st8">Distancia </tspan><tspan x="18.1" y="0" class="st0 st4 st9">4km</tspan></text>
		</g>
		<line class="st10" x1="35.7" y1="37" x2="92.2" y2="37"/>
		<g>
			<text transform="matrix(1 0 0 1 35.7408 43.3394)"><tspan x="0" y="0" class="st3 st4 st11">Edad</tspan><tspan x="6.4" y="0" class="st0 st4 st11"> 07</tspan></text>
		</g>
		<text transform="matrix(1 0 0 1 35.7408 49.9487)"><tspan x="0" y="0" class="st3 st4 st11">Curso</tspan><tspan x="7.5" y="0" class="st0 st4 st11"> Segundo</tspan></text>
		<g>
			<text transform="matrix(1 0 0 1 57.0673 43.3394)"><tspan x="0" y="0" class="st3 st4 st11">Colegio</tspan><tspan x="9.4" y="0" class="st0 st4 st11"> Taller infantil pasitos</tspan></text>
		</g>
		<g>
			<text transform="matrix(1 0 0 1 4.9225 91.3574)" class="st12 st4 st11">Pepito Pérez</text>
		</g>
	</g>
	<g>
		<g>
			<polygon class="st13" points="89.2,156.1 86.7,154 85.7,156.1 88.1,158.2 86.7,161.1 70.9,159 68.3,158.7 63.7,158.1 62.1,158 
				59.5,163.2 59.3,166.5 57.7,167.8 53,168.7 50.3,173.3 48.7,174.4 43.5,173.4 44,180 46.4,183.5 47.3,186.1 46,188.5 38.9,188.6 
				36.8,188 36.1,185.3 34.2,183.3 31.3,177.1 29.4,169.4 30.4,167.3 36.7,163.2 35,159.2 24.3,152 22.8,150.6 20,148.2 20,144.8 
				22.1,140.2 22.2,138.9 23.2,137.8 22.4,136.5 20.5,133.4 19.5,134.6 21.4,137.6 17.5,138.9 13,142 13,146.3 19.1,149.4 
				20.2,150.3 20.5,152 22.8,152.6 24.3,154 25.4,156.7 29.6,162.3 29.4,165.7 28.5,167.9 24.3,172 25.3,175 32.3,186.7 33.3,189.1 
				35.8,189.2 37.9,189.8 38.1,193.1 50.1,195.2 50.6,192.6 50.7,191.1 49.4,187.4 48.2,184 49,180.4 46,178 49.4,178.1 49.9,175.4 
				51.4,174.4 55.7,171.5 58.8,168.9 60.4,167.5 65.3,163.4 64.2,159.7 68.9,160.3 71.6,160.6 85.9,162.5 87.5,162.8 89.3,159.2 
				90.4,157.2 			"/>
			<polygon class="st13" points="20.2,150.3 20.5,152 22.8,152.6 24.3,154 25.4,156.7 29.6,162.3 29.5,163.7 32.7,165.8 36.7,163.2 
				35,159.2 24.3,152 22.8,150.6 20,148.2 20,144.8 22.1,140.2 22.2,138.9 23.2,137.8 22.4,136.5 20.5,133.4 19.5,134.6 21.4,137.6 
				17.5,138.9 13,142 13,146.3 19.1,149.4 			"/>
			<g>
				<g>
					<polygon class="st14" points="17.1,105.6 12.7,122 5.4,118 4.6,105.6 					"/>
					<polygon class="st14" points="74.6,106.5 69.1,123.8 88,116.8 88,106.5 					"/>
					<polygon class="st14" points="92.2,116.2 78.5,122.5 84.3,127.3 					"/>
					<polygon class="st14" points="89.4,106.5 89.4,116.2 102.9,111.3 103.3,106.5 					"/>
					<polygon class="st14" points="105,112.3 97,115.1 106.3,120.9 					"/>
					<polygon class="st14" points="20.2,193.4 24.3,207.8 36.9,207.8 39,202 36.9,196.3 					"/>
					<polygon class="st14" points="39,196 45.1,207.8 56.4,207.8 57.2,199.4 					"/>
					<polygon class="st14" points="98,184.3 93.7,188.3 106.3,200.4 106.3,192.4 					"/>
					<polygon class="st14" points="83,194.8 74.8,199.6 67.2,207.6 88.9,207.8 					"/>
					<g>
						<g>
							<polygon class="st14" points="31.8,160.4 24.3,154 24.3,157.5 29.4,165.7 							"/>
							<polygon class="st14" points="39.1,152.8 24.3,142 24.3,152 33.6,160 30.4,167.3 32.6,170.9 41,166.6 							"/>
						</g>
					</g>
					<g>
						<g>
							<polygon class="st14" points="50.3,173.3 54.8,170.3 57.7,167.8 41,153.1 42.7,166.1 							"/>
							<polygon class="st14" points="71,179.6 58.8,168.9 55.7,171.5 51.4,174.4 62.8,185.3 							"/>
						</g>
					</g>
					<g>
						<g>
							<polygon class="st14" points="61.2,155.1 50.5,154.5 47.1,156.1 59.3,166.5 63.6,162.9 							"/>
							<polygon class="st14" points="65.3,163.4 60.4,167.5 72.2,177.7 75.7,176.8 68.9,160.3 64.2,159.7 							"/>
							<polygon class="st14" points="68.3,158.7 66.9,155.4 62.8,155.2 63.7,158.1 							"/>
						</g>
					</g>
					<g>
						<g>
							<polygon class="st14" points="48.5,153.6 44.2,144.2 38.6,143.8 37,139.8 25.4,140.6 45.8,154.5 							"/>
							<polygon class="st14" points="43.5,142.6 42,139.4 38.6,139.6 39.6,142.3 							"/>
						</g>
					</g>
					<g>
						<g>
							<polygon class="st14" points="59.9,137.6 63.9,136.8 49,123 43.2,137.8 45.4,142.7 56,143.5 							"/>
							<polygon class="st14" points="73.8,146 70.9,143.3 61.2,149.7 62.3,153.5 64.3,153.6 							"/>
							<polygon class="st14" points="56.8,145.1 46.1,144.3 50,153.1 60.8,153.5 59.4,149.1 69.8,142.3 65.2,138 60.8,139 							
								"/>
						</g>
					</g>
					<g>
						<g>
							<polygon class="st14" points="96.9,144.5 93,152 98.5,158.6 109.2,156.5 108.7,137.3 92.2,137.3 90.2,141.6 							"/>
							<polygon class="st14" points="89.5,143 88,146.1 91.9,150.8 94.8,145.2 							"/>
						</g>
					</g>
					<g>
						<g>
							<polygon class="st14" points="85.4,145.5 75.4,144.3 89.2,156.1 91.1,152.3 							"/>
							<polygon class="st14" points="90.4,157.2 95.8,161.9 97,159.3 92.2,153.6 							"/>
						</g>
					</g>
					<g>
						<g>
							<polygon class="st14" points="56.4,181.3 49.9,175.4 46,178 48.2,184 52.8,185.3 							"/>
							<polygon class="st14" points="46.4,183.5 44.2,177.4 48.7,174.4 41.7,168 33.8,172.4 38.4,181.3 							"/>
						</g>
					</g>
					<polygon class="st14" points="88.1,158.2 74.6,146.9 68.3,152.3 70.9,159 86.7,161.1 					"/>
					<polygon class="st14" points="93.5,171.2 95.8,164.6 89.3,159.2 85.7,166.3 					"/>
					<g>
						<g>
							<polygon class="st14" points="94.6,173.6 93.4,177.8 94.4,178.9 96.9,175.1 							"/>
							<polygon class="st14" points="98.6,160.2 95,172.2 99,174.6 95.5,180 104.5,189.5 104.5,160.2 							"/>
						</g>
					</g>
					<g>
						<g>
							<polygon class="st14" points="91.9,178.3 77.8,177.7 75.7,178.9 85,181.1 90.2,185.6 93.7,180.1 							"/>
							<polygon class="st14" points="91.4,186.5 92.5,187.6 97.1,183.3 94.8,181.1 							"/>
						</g>
					</g>
					<polygon class="st14" points="89.4,186.7 85.1,182.9 84.4,188.9 87.7,189.5 					"/>
					<g>
						<g>
							<polygon class="st14" points="82.9,188.6 83.9,182.2 73.8,179.7 64.4,186.1 71.2,192.8 77.2,187.5 							"/>
							<polygon class="st14" points="77.6,189.1 72.2,193.9 75.3,196.9 82.1,193.4 82.6,190.1 							"/>
						</g>
					</g>
					<g>
						<g>
							<polygon class="st14" points="65.8,199.5 63.1,197.4 58.2,201.9 57.7,206.6 64.4,206.6 72.7,197.8 70.4,195.5 							"/>
							<polygon class="st14" points="69.4,194.4 67.9,192.9 64.2,196.4 65.8,197.6 							"/>
						</g>
					</g>
					<g>
						<g>
							<polygon class="st14" points="58.8,192.2 63.1,195.5 67.1,191.9 57.2,183.3 54.3,186.5 54.8,189.5 54.4,191.6 							"/>
							<polygon class="st14" points="58.2,193.6 54.2,193.1 53.6,196.9 59.9,198.5 62,196.6 							"/>
						</g>
					</g>
					<g>
						<g>
							<polygon class="st14" points="41.7,185.3 38.9,188.6 45.2,190.4 49,190.9 47.3,186.1 46,185.3 							"/>
							<polygon class="st14" points="44.9,191.8 44.9,191.8 37.9,189.8 34.9,193.4 51.2,196.9 52.1,192.8 							"/>
							<polygon class="st14" points="52.4,191.3 52.8,189.5 49.4,187.4 50.7,191.1 							"/>
						</g>
					</g>
					<g>
						<g>
							<polygon class="st14" points="27.2,185.2 32.3,186.7 25.8,173.9 28.5,167.9 23.8,160.2 14.1,168.7 15.7,175.6 21.7,173.5 
															"/>
							<polygon class="st14" points="36.8,188 39.1,185.3 29.4,169.4 27.5,173.9 34.3,187.3 							"/>
							<polygon class="st14" points="26.1,186.5 20.9,175.4 16.1,177.1 19.4,191.4 32.3,193.4 35.8,189.2 							"/>
						</g>
					</g>
					<g>
						<g>
							<polygon class="st14" points="9.2,178 14,176.2 12.1,169.2 5.4,168 5.4,177.5 							"/>
							<polygon class="st14" points="9.3,179.5 5.4,179.1 5.4,191.5 16.8,186.3 14.4,177.7 							"/>
						</g>
					</g>
					<g>
						<g>
							<g>
								<polygon class="st14" points="22.8,158.2 22.8,152.6 20.2,150.3 12.7,157.4 5.4,153.3 5.4,166.1 12.6,166.6 								"/>
							</g>
							<g>
								<polygon class="st14" points="22.8,150.6 22.8,139.9 22.2,138.9 16.5,145.2 								"/>
							</g>
							<g>
								<polygon class="st14" points="12.4,155.5 19.1,149.4 14.4,145.3 21.4,137.6 12.7,123.8 5.4,120.2 5.4,151.5 								"/>
							</g>
						</g>
					</g>
					<polygon class="st14" points="26.6,131.8 27.7,130.6 32.8,129.2 31.3,124.2 28.3,122.3 22.8,127.4 					"/>
					<polygon class="st14" points="23.1,117.2 28.1,120.4 33,115.9 33,110.9 25.4,108 					"/>
					<polygon class="st14" points="24.1,139.4 36.3,138.1 33.3,130.6 28.5,131.9 23.2,137.8 					"/>
					<polygon class="st14" points="25.6,132.9 20.7,127.2 26.9,121.5 21.4,117.9 24,107.5 18.9,105.6 14.1,122.8 22.4,136.5 					
						"/>
					<polygon class="st14" points="34.5,115.8 41.2,120.9 45.7,119.5 39.5,113.3 34.5,111.5 					"/>
					<g>
						<g>
							<polygon class="st14" points="49.3,119.9 58.5,128.7 63.7,126.5 58.2,117.1 							"/>
							<polygon class="st14" points="53.2,117.1 58.9,115.3 65,126 66.3,125.4 73.2,106.6 58.4,104.2 							"/>
							<polygon class="st14" points="51.4,117.7 56.9,103.9 49.1,102.7 41,112 48.1,118.7 							"/>
						</g>
					</g>
					<g>
						<g>
							<polygon class="st14" points="68.9,135.7 64.6,128.1 59.9,129.9 66.9,136.1 							"/>
							<polygon class="st14" points="73.8,136.2 68.4,137.3 72.2,140.7 77,137.6 							"/>
							<polygon class="st14" points="83.6,138.8 88.2,140.7 90.9,136 76.4,123.8 73.4,124.9 							"/>
							<polygon class="st14" points="73.3,141.7 73.8,142.2 86.9,143.1 87.5,142.1 78.6,138.3 							"/>
							<polygon class="st14" points="66,127.6 70.5,135.3 73.9,134.6 80.9,137.6 71.9,125.4 							"/>
						</g>
					</g>
					<polygon class="st15" points="52.7,126.4 51.7,128.1 55.3,131.2 56.5,129.9 					"/>
					<polygon class="st15" points="29.8,146 28.8,148 34.4,151.4 35.5,150.2 					"/>
					<rect x="34.9" y="160.6" class="st15" width="2.1" height="2.6"/>
					<polygon class="st15" points="92.5,142.6 95.5,143.9 97,140.2 93.9,139 					"/>
					<polygon class="st15" points="50,153.1 52.4,153.2 53.4,150.7 50.4,149.5 49.4,151.8 					"/>
					<rect x="78.2" y="183" class="st15" width="2.1" height="2.6"/>
					<rect x="74.7" y="183" class="st15" width="2.1" height="2.6"/>
					
						<rect x="59.5" y="172.4" transform="matrix(0.6522 -0.7581 0.7581 0.6522 -110.2703 106.1765)" class="st15" width="2.1" height="1.7"/>
					
						<rect x="61.2" y="173.9" transform="matrix(0.6522 -0.7581 0.7581 0.6522 -110.7926 107.9897)" class="st15" width="2.1" height="1.7"/>
					
						<rect x="62.9" y="175.4" transform="matrix(0.6522 -0.7581 0.7581 0.6522 -111.3139 109.8003)" class="st15" width="2.1" height="1.7"/>
					<polygon class="st15" points="25.6,194.3 23.3,193.9 22.4,197.5 24.7,198.1 					"/>
					<polygon class="st15" points="27.1,196.3 25.7,196.1 25.3,198.2 26.6,198.5 					"/>
					<polygon class="st15" points="28.9,196.3 27.6,196.1 27.1,198.2 28.4,198.5 					"/>
					<polygon class="st15" points="30.7,196.3 29.4,196.1 28.9,198.2 30.2,198.5 					"/>
					<g>
						<polygon class="st15" points="20.6,160 22.1,158.8 22.1,156.4 20.6,156.4 						"/>
						<polygon class="st15" points="15.4,163.9 15.4,161.1 13.9,161.1 13.9,164.8 13.9,165.5 13.9,165.5 15.4,164.3 						"/>
						<polygon class="st15" points="19.9,158 18.4,158 18.4,161.7 18.4,161.9 19.9,160.6 						"/>
						<polygon class="st15" points="17.7,162.4 17.7,159.5 16.2,159.5 16.2,163.3 16.2,163.7 17.7,162.4 						"/>
					</g>
					<polygon class="st15" points="38.4,181.3 40.8,182 41,177.6 38.3,174.7 35.4,175.6 					"/>
					<polygon class="st15" points="78.2,117.5 77,117.5 74,118.7 74.2,121.9 80.6,119.5 					"/>
					<polygon class="st15" points="85.1,117.9 86.7,117.2 86.7,113.4 85.1,113.4 					"/>
				</g>
				<g>
					<polygon class="st16" points="95,116.2 85.4,128.7 93.2,135.4 103.2,135.4 106.3,123 					"/>
					<polygon class="st16" points="16.8,188.5 5.4,194.1 5.4,207.5 22.3,207.5 					"/>
					<g>
						<g>
							<g>
								<polygon class="st16" points="91.6,176.8 93,172.7 83.7,166.8 85.9,162.5 71.6,160.6 77.9,176.8 								"/>
							</g>
						</g>
					</g>
					<g>
						<g>
							<g>
								<polygon class="st16" points="90.6,187.8 88.4,191.2 84.3,190.4 83.9,193.4 91.5,208.4 103.9,208.4 106.3,201.9 								"/>
							</g>
						</g>
					</g>
					<g>
						<g>
							<g>
								<polygon class="st16" points="33.8,117.2 29.4,121.3 32.5,123.3 34.5,129.4 37.9,137.9 41.6,137.5 48.1,121.8 47,120.7 
									40.9,122.6 								"/>
							</g>
						</g>
					</g>
					<path class="st17" d="M43.4,126.3c-0.2-0.3-0.4-0.5-0.6-0.8c0,0-1.1-1.5-3.6-1.3c-1.2,0.1-2.1,0-3,0.8
						c-0.7,0.6-0.5,1.9-0.2,2.7c0.3,0.6,0.6,1,0.9,1.6c0.2,0.5,0.5,1,0.8,1.5c0.5,0.9,1.4,1.5,2.5,1.4c1-0.1,2.4-0.6,3-1.6
						c0.6-0.9,0.6-1.9,0.6-2.9C43.7,127.1,43.6,126.8,43.4,126.3z"/>
				</g>
			</g>
		</g>
		<g>
			<circle class="st18" cx="31.1" cy="164.3" r="4.7"/>
			<g>
				<polygon class="st19" points="30.2,160.8 31.6,163.2 34.3,163 29.2,167.8 				"/>
				<polygon class="st19" points="30.2,160.8 31.6,163.2 34.3,163 31.1,164.2 				"/>
				<polygon class="st18" points="30.2,160.8 29.2,167.8 31.1,164.2 				"/>
			</g>
		</g>
		<g>
			<g>
				<path class="st13" d="M85,154.2c0,0.4-0.3,0.7-0.7,0.7h-8.5c-0.4,0-0.7-0.3-0.7-0.7v-1.9c0-0.4,0.3-0.7,0.7-0.7h8.5
					c0.4,0,0.7,0.3,0.7,0.7V154.2z"/>
				<path class="st13" d="M85,154.2c0,0.4-0.3,0.7-0.7,0.7h-8.5c-0.4,0-0.7-0.3-0.7-0.7v-1.9c0-0.4,0.3-0.7,0.7-0.7h8.5
					c0.4,0,0.7,0.3,0.7,0.7V154.2z"/>
			</g>
			<text transform="matrix(1 0 0 1 76.0468 153.8246)" class="st0 st20 st21">6KM 20M</text>
		</g>
		<g>
			<g>
				<circle class="st22" cx="18.2" cy="129" r="2.7"/>
				<polygon class="st22" points="18.2,133.8 16.1,130.7 20.4,130.7 				"/>
				<circle class="st0" cx="18.2" cy="129" r="1.7"/>
			</g>
			<g>
				<circle class="st22" cx="14" cy="174.4" r="2.7"/>
				<polygon class="st22" points="14,179.2 11.9,176 16.2,176 				"/>
				<circle class="st0" cx="14" cy="174.4" r="1.7"/>
			</g>
			<g>
				<path class="st22" d="M66.9,190.1c-0.1,0-0.1,0-0.2,0.1c0,0-0.1,0.1-0.1,0.2c0,0.1,0,0.1,0.1,0.2c0,0,0.1,0.1,0.2,0.1
					c0.1,0,0.1,0,0.2-0.1c0,0,0.1-0.1,0.1-0.2c0-0.1,0-0.1-0.1-0.2C67,190.1,66.9,190.1,66.9,190.1z"/>
				<path class="st22" d="M66.8,189.4l-0.1,0.3h0c-0.1,0-0.1,0-0.1,0.1v0.7h0.1v-0.1c0-0.1,0-0.2,0.1-0.2c0.1-0.1,0.1-0.1,0.2-0.1
					c0.1,0,0.2,0.1,0.2,0.2v-0.9L66.8,189.4C66.8,189.3,66.8,189.3,66.8,189.4z"/>
				<path class="st22" d="M68.2,190.1c-0.1,0-0.1,0-0.2,0.1c0,0-0.1,0.1-0.1,0.2c0,0.1,0,0.1,0.1,0.2c0,0,0.1,0.1,0.2,0.1
					c0.1,0,0.1,0,0.2-0.1c0,0,0.1-0.1,0.1-0.2c0-0.1,0-0.1-0.1-0.2C68.4,190.1,68.3,190.1,68.2,190.1z"/>
				<path class="st22" d="M67.1,189.1v1.4h0.8l0-0.1c0-0.1,0-0.2,0.1-0.2c0.1-0.1,0.1-0.1,0.2-0.1c0.1,0,0.1,0,0.2,0.1
					c0.1,0.1,0.1,0.1,0.1,0.2v0.1h0.1v-1.4H67.1z"/>
			</g>
			<path class="st22" d="M19.6,128.7l-0.5-0.4v-0.6h-0.3v0.4l-0.5-0.4l-1.3,1l0.2,0.3l0.1-0.1v1.3h2v-1.3l0.1,0.1L19.6,128.7z
				 M19,129.9h-0.4v-0.7h-0.7v0.7h-0.4v-1.2l0.8-0.6l0.8,0.6V129.9z"/>
			<g>
				<path class="st22" d="M14.5,173c-0.2,0-0.4,0.2-0.4,0.4v0.1v0.1l0,0c0,0.2,0.1,0.3,0.3,0.4v1.6c0,0.1,0,0.1,0.1,0.1
					c0.1,0,0.1,0,0.1-0.1V174c0.2-0.1,0.3-0.2,0.3-0.4v-0.1v0C14.9,173.2,14.7,173,14.5,173z"/>
				<path class="st22" d="M13.9,173C13.9,173,13.9,173.1,13.9,173l-0.1,0.5c0,0.1,0,0.2-0.1,0.2v-0.7c0,0,0-0.1-0.1-0.1
					c0,0-0.1,0-0.1,0.1v0.7c0,0,0,0,0,0c0,0,0,0,0,0v-0.7c0,0,0-0.1-0.1-0.1c0,0-0.1,0-0.1,0.1v0.7c0-0.1-0.1-0.1-0.1-0.2v-0.4
					c0,0,0-0.1-0.1-0.1c0,0-0.1,0-0.1,0.1v0.4c0,0.2,0.1,0.4,0.3,0.4v0.4v0.1v0.2v0.2v0.8c0,0.1,0,0.1,0.1,0.1c0.1,0,0.1,0,0.1-0.1
					v-0.8v-0.2v-0.2v-0.1V174c0.2-0.1,0.3-0.2,0.3-0.4L13.9,173C14,173.1,14,173,13.9,173z"/>
			</g>
		</g>
	</g>
	<path class="st23" d="M97.1,197.4V197c0-0.3,0.2-0.5,0.5-0.5h1.9c-0.1-0.4-0.1-0.7-0.3-1c-0.2-0.6-0.6-1.1-1-1.5
		c-0.4-0.4-0.9-0.7-1.5-1c-0.3-0.1-0.7-0.2-1.1-0.3v1.9c0,0.3-0.2,0.5-0.5,0.5h-0.4c-0.3,0-0.5-0.2-0.5-0.5v-1.9
		c-0.4,0.1-0.7,0.1-1.1,0.3c-0.6,0.2-1.1,0.6-1.5,1c-0.4,0.4-0.8,0.9-1,1.5c-0.1,0.3-0.2,0.7-0.3,1h2c0.3,0,0.5,0.2,0.5,0.5v0.4
		c0,0.3-0.2,0.5-0.5,0.5h-2c0.1,0.4,0.2,0.7,0.3,1c0.2,0.6,0.6,1.1,1,1.5c0.4,0.4,0.9,0.8,1.5,1c0.3,0.1,0.7,0.2,1.1,0.3v-2
		c0-0.3,0.2-0.5,0.5-0.5H95c0.3,0,0.5,0.2,0.5,0.5v2c0.4-0.1,0.7-0.2,1.1-0.3c0.6-0.2,1.1-0.6,1.5-1c0.4-0.4,0.8-0.9,1-1.5
		c0.1-0.3,0.2-0.7,0.3-1h-1.9C97.3,197.9,97.1,197.6,97.1,197.4L97.1,197.4z M95.6,191.5c0.5,0.1,1,0.2,1.5,0.4
		c0.7,0.3,1.3,0.7,1.9,1.2c0.5,0.5,1,1.1,1.3,1.8c0.2,0.5,0.3,1,0.4,1.5h0.6c0.3,0,0.5,0.2,0.5,0.5v0.4c0,0.3-0.2,0.5-0.5,0.5h-0.6
		c-0.1,0.5-0.2,1-0.4,1.5c-0.3,0.7-0.7,1.3-1.3,1.8c-0.5,0.5-1.2,1-1.9,1.2c-0.5,0.2-1,0.3-1.5,0.4v0.4c0,0.3-0.2,0.5-0.5,0.5h-0.4
		c-0.3,0-0.5-0.2-0.5-0.5v-0.4c-0.5-0.1-1-0.2-1.5-0.4c-0.7-0.3-1.3-0.7-1.9-1.2c-0.5-0.5-1-1.1-1.3-1.8c-0.2-0.5-0.3-1-0.4-1.5
		h-0.6c-0.3,0-0.5-0.2-0.5-0.5V197c0-0.3,0.2-0.5,0.5-0.5h0.6c0.1-0.5,0.2-1,0.4-1.5c0.3-0.7,0.7-1.3,1.3-1.8c0.5-0.5,1.2-1,1.9-1.2
		c0.5-0.2,1-0.3,1.5-0.4V191c0-0.3,0.2-0.5,0.5-0.5H95c0.3,0,0.5,0.2,0.5,0.5V191.5z"/>
</g>
<g id="Capas">
	<g>
		
			<radialGradient id="SVGID_3_" cx="18.5689" cy="93.9344" r="13.5991" gradientTransform="matrix(1.1129 0 0 8.085576e-02 -2.7988 44.4411)" gradientUnits="userSpaceOnUse">
			<stop  offset="0.1098" style="stop-color:#666666"/>
			<stop  offset="0.2379" style="stop-color:#757575;stop-opacity:0.856"/>
			<stop  offset="0.484" style="stop-color:#9C9C9C;stop-opacity:0.5794"/>
			<stop  offset="0.82" style="stop-color:#DBDBDB;stop-opacity:0.2016"/>
			<stop  offset="0.9994" style="stop-color:#FFFFFF;stop-opacity:0"/>
		</radialGradient>
		<ellipse class="st24" cx="17.9" cy="52" rx="16" ry="1.4"/>
		
			<linearGradient id="SVGID_4_" gradientUnits="userSpaceOnUse" x1="1.4563" y1="72.9432" x2="29.8122" y2="72.9432" gradientTransform="matrix(0.9416 -0.3368 0.3368 0.9416 -22.194 -28.557)">
			<stop  offset="0" style="stop-color:#DC70C8"/>
			<stop  offset="1" style="stop-color:#AF70F0"/>
		</linearGradient>
		<path class="st25" d="M23.3,46.8c-2.4,1.8-5.3,2-8.5,1.3c-5.5-1.4-8.5-6.9-7.6-12.8c0.9-6.1,6.2-9.8,12-8.6
			c1.2,0.3,2.3,0.7,3.3,1.3c1.5,0.9,3.3,0.9,4.7-0.1l0.1-0.1c1.6-1.1,1.7-3.5,0.3-4.8c-2-1.9-4.6-3.3-7.5-3.8
			c-7.7-1.4-15.2,4-16.8,12.1C1.6,39.9,6.8,48.3,14.8,50c3.4,0.7,6.7,0.1,9.6-1.4c0.5-0.3,0.7-0.9,0.4-1.5l0,0
			C24.5,46.6,23.8,46.4,23.3,46.8z"/>
		
			<linearGradient id="SVGID_5_" gradientUnits="userSpaceOnUse" x1="15.6012" y1="68.3684" x2="15.9024" y2="84.8745" gradientTransform="matrix(0.9416 -0.3368 0.3368 0.9416 -22.194 -28.557)">
			<stop  offset="0.1098" style="stop-color:#666666"/>
			<stop  offset="0.2379" style="stop-color:#757575;stop-opacity:0.856"/>
			<stop  offset="0.484" style="stop-color:#9C9C9C;stop-opacity:0.5794"/>
			<stop  offset="0.82" style="stop-color:#DBDBDB;stop-opacity:0.2016"/>
			<stop  offset="0.9994" style="stop-color:#FFFFFF;stop-opacity:0"/>
		</linearGradient>
		<path class="st26" d="M23.3,46.8c-2.4,1.8-5.3,2-8.5,1.3c-5.5-1.4-8.5-6.9-7.6-12.8c0.9-6.1,6.2-9.8,12-8.6
			c1.2,0.3,2.3,0.7,3.3,1.3c1.5,0.9,3.3,0.9,4.7-0.1l0.1-0.1c1.6-1.1,1.7-3.5,0.3-4.8c-2-1.9-4.6-3.3-7.5-3.8
			c-7.7-1.4-15.2,4-16.8,12.1C1.6,39.9,6.8,48.3,14.8,50c3.4,0.7,6.7,0.1,9.6-1.4c0.5-0.3,0.7-0.9,0.4-1.5l0,0
			C24.5,46.6,23.8,46.4,23.3,46.8z"/>
		
			<linearGradient id="SVGID_6_" gradientUnits="userSpaceOnUse" x1="17.0731" y1="62.7092" x2="12.9636" y2="81.8869" gradientTransform="matrix(0.9416 -0.3368 0.3368 0.9416 -22.194 -28.557)">
			<stop  offset="0" style="stop-color:#6B4C9D"/>
			<stop  offset="1" style="stop-color:#6D7DE5"/>
		</linearGradient>
		<path class="st27" d="M6.8,35.6c1.2-6.1,6.7-10,12.4-8.8c1.2,0.3,2.3,0.7,3.3,1.3c1.5,0.9,3.3,0.9,4.7-0.1l0.1-0.1
			c1.6-1.1,1.7-3.5,0.3-4.8c-2-1.9-4.6-3.3-7.5-3.8c-7.7-1.4-15.2,4-16.8,12.1C1.6,39.9,6.8,48.3,14.8,50c2.2,0.5,4.5,0.4,6.6-0.2
			C9,52,5.8,40.3,6.8,35.6z"/>
		
			<linearGradient id="SVGID_7_" gradientUnits="userSpaceOnUse" x1="23.4023" y1="68.8106" x2="8.2737" y2="75.5802" gradientTransform="matrix(0.9416 -0.3368 0.3368 0.9416 -22.194 -28.557)">
			<stop  offset="0.1098" style="stop-color:#666666"/>
			<stop  offset="0.2379" style="stop-color:#757575;stop-opacity:0.856"/>
			<stop  offset="0.484" style="stop-color:#9C9C9C;stop-opacity:0.5794"/>
			<stop  offset="0.82" style="stop-color:#DBDBDB;stop-opacity:0.2016"/>
			<stop  offset="0.9994" style="stop-color:#FFFFFF;stop-opacity:0"/>
		</linearGradient>
		<path class="st28" d="M6.8,35.6c1.2-6.1,6.7-10,12.4-8.8c1.2,0.3,2.3,0.7,3.3,1.3c1.5,0.9,3.3,0.9,4.7-0.1l0.1-0.1
			c1.6-1.1,1.7-3.5,0.3-4.8c-2-1.9-4.6-3.3-7.5-3.8c-7.7-1.4-15.2,4-16.8,12.1C1.6,39.9,6.8,48.3,14.8,50c2.2,0.5,4.5,0.4,6.6-0.2
			C9,52,5.8,40.3,6.8,35.6z"/>
		
			<linearGradient id="SVGID_8_" gradientUnits="userSpaceOnUse" x1="1.4575" y1="65.5924" x2="29.8111" y2="65.5924" gradientTransform="matrix(0.9416 -0.3368 0.3368 0.9416 -22.194 -28.557)">
			<stop  offset="0" style="stop-color:#73A9FA"/>
			<stop  offset="1" style="stop-color:#87F1FC"/>
		</linearGradient>
		<path class="st29" d="M10.9,25.9c5.7-2.4,9.6,0.1,11.8,1.9c1.3,1.1,3.1,1.2,4.5,0.2l0.1-0.1c1.6-1.1,1.7-3.5,0.3-4.8
			c-2-1.9-4.6-3.3-7.5-3.8c-7.7-1.4-15.2,4-16.8,12.1C2.7,34.5,3,37.6,4,40.4C1.9,34.4,5.1,28.3,10.9,25.9z"/>
		
			<linearGradient id="SVGID_9_" gradientUnits="userSpaceOnUse" x1="1.458" y1="67.8" x2="29.8103" y2="67.8" gradientTransform="matrix(0.9416 -0.3368 0.3368 0.9416 -22.194 -28.557)">
			<stop  offset="0" style="stop-color:#85EBFD"/>
			<stop  offset="1" style="stop-color:#87F1FC;stop-opacity:0"/>
		</linearGradient>
		<path class="st30" d="M27.1,27.3l-0.1,0.1c-1.4,1-3.1,0.9-4.5-0.2c-2.2-1.8-6.1-4.3-11.8-1.9c-5.7,2.4-9,8.5-6.8,14.5
			c0-0.1-0.1-0.2-0.1-0.3c0.1,0.3,0.2,0.5,0.3,0.8c-2.2-6,1.1-12.1,6.8-14.5c5.7-2.4,9.6,0.1,11.8,1.9c1.3,1.1,3.1,1.2,4.5,0.2
			l0.1-0.1c1.2-0.9,1.6-2.5,1-3.9C28.5,25.2,28.1,26.6,27.1,27.3z"/>
		
			<linearGradient id="SVGID_10_" gradientUnits="userSpaceOnUse" x1="20.917" y1="85.2162" x2="20.3455" y2="87.8167" gradientTransform="matrix(0.9416 -0.3368 0.3368 0.9416 -22.194 -28.557)">
			<stop  offset="0" style="stop-color:#DC70C8"/>
			<stop  offset="1" style="stop-color:#AF70F0"/>
		</linearGradient>
		<path class="st31" d="M27.3,45.4c0.2,0.6-0.1,1.2-0.6,1.4c-0.6,0.2-1.2-0.1-1.4-0.7c-0.2-0.6,0.1-1.2,0.6-1.4
			C26.5,44.5,27.1,44.8,27.3,45.4z"/>
		<g>
			
				<linearGradient id="SVGID_11_" gradientUnits="userSpaceOnUse" x1="9.4017" y1="81.4889" x2="18.0794" y2="82.7965" gradientTransform="matrix(0.9416 -0.3368 0.3368 0.9416 -22.194 -28.557)">
				<stop  offset="0" style="stop-color:#E697F1"/>
				<stop  offset="0.9921" style="stop-color:#AF70F0;stop-opacity:0"/>
			</linearGradient>
			<path class="st32" d="M23.3,46.8c-2.4,1.8-5.3,2-8.5,1.3c-3.5-0.9-5.9-3.4-7.1-6.6c1.1,3.4,3.6,6.1,7.2,7
				c3.1,0.8,6.1,0.6,8.5-1.3c0.5-0.4,1.2-0.2,1.5,0.3c0,0,0,0,0,0c0-0.1-0.1-0.3-0.1-0.4C24.5,46.6,23.8,46.4,23.3,46.8z"/>
		</g>
		
			<linearGradient id="SVGID_12_" gradientUnits="userSpaceOnUse" x1="23.3261" y1="84.0094" x2="23.0978" y2="85.7782" gradientTransform="matrix(0.9416 -0.3368 0.3368 0.9416 -22.194 -28.557)">
			<stop  offset="0" style="stop-color:#DC70C8"/>
			<stop  offset="1" style="stop-color:#AF70F0"/>
		</linearGradient>
		<path class="st33" d="M29,43.3c0.1,0.4-0.1,0.9-0.5,1.1c-0.4,0.2-0.8-0.1-1-0.5c-0.1-0.4,0.1-0.9,0.5-1.1S28.8,42.8,29,43.3z"/>
		
			<linearGradient id="SVGID_13_" gradientUnits="userSpaceOnUse" x1="25.0967" y1="83.0088" x2="24.8682" y2="84.18" gradientTransform="matrix(0.9416 -0.3368 0.3368 0.9416 -22.194 -28.557)">
			<stop  offset="0" style="stop-color:#DC70C8"/>
			<stop  offset="1" style="stop-color:#AF70F0"/>
		</linearGradient>
		<path class="st34" d="M29.9,41.5c0.1,0.3,0,0.6-0.3,0.7c-0.3,0.1-0.5,0-0.6-0.3c-0.1-0.3,0-0.6,0.3-0.7
			C29.6,41,29.8,41.2,29.9,41.5z"/>
		<g>
			
				<linearGradient id="SVGID_14_" gradientUnits="userSpaceOnUse" x1="8.5605" y1="84.2625" x2="12.7083" y2="66.4191" gradientTransform="matrix(0.9416 -0.3368 0.3368 0.9416 -22.194 -28.557)">
				<stop  offset="0" style="stop-color:#95A5F8"/>
				<stop  offset="1" style="stop-color:#6D7DE5;stop-opacity:0"/>
			</linearGradient>
			<path class="st35" d="M6.8,35.6c0.8-3.9,3.4-7,6.6-8.3c-3.5,1.2-6.2,4.4-7,8.5c-0.9,4.6,2,15.9,13.7,14.4
				c0.4-0.1,0.9-0.2,1.3-0.3C9,52,5.8,40.3,6.8,35.6z"/>
		</g>
	</g>
</g>
</svg>
