<svg xmlns="http://www.w3.org/2000/svg" xmlns:xlink="http://www.w3.org/1999/xlink" viewBox="0 0 111.7 78.4"><defs><style>.cls-1{fill:url(#Degradado_sin_nombre);}.cls-2,.cls-4,.cls-6,.cls-7,.cls-9{fill:#fff;}.cls-3,.cls-8{fill:#151616;}.cls-10,.cls-12,.cls-14,.cls-4,.cls-5,.cls-6,.cls-7,.cls-8,.cls-9{isolation:isolate;}.cls-4{font-size:5.61px;}.cls-4,.cls-6,.cls-7,.cls-8,.cls-9{font-family:OpenSans-Regular, Open Sans;}.cls-6{font-size:4px;}.cls-7{font-size:13px;}.cls-8,.cls-9{font-size:2.73px;}.cls-10{opacity:0.4;fill:url(#Degradado_sin_nombre_2);}.cls-11{fill:url(#Degradado_sin_nombre_12);}.cls-12,.cls-14{opacity:0.6;}.cls-12{fill:url(#Degradado_sin_nombre_6);}.cls-13{fill:url(#Degradado_sin_nombre_5);}.cls-14{fill:url(#Degradado_sin_nombre_6-2);}.cls-15{fill:url(#Degradado_sin_nombre_7);}.cls-16{fill:url(#Degradado_sin_nombre_8);}.cls-17{fill:url(#Degradado_sin_nombre_12-2);}.cls-18{fill:url(#Degradado_sin_nombre_10);}.cls-19{fill:url(#Degradado_sin_nombre_12-3);}.cls-20{fill:url(#Degradado_sin_nombre_12-4);}.cls-21{fill:url(#Degradado_sin_nombre_13);}</style><linearGradient id="Degradado_sin_nombre" y1="359.6" x2="111.7" y2="359.6" gradientTransform="matrix(1, 0, 0, -1, 0, 398.8)" gradientUnits="userSpaceOnUse"><stop offset="0" stop-color="#009eff"/><stop offset="0.05" stop-color="#18a2fc"/><stop offset="0.12" stop-color="#3ba7f9"/><stop offset="0.21" stop-color="#59acf6"/><stop offset="0.3" stop-color="#72b0f3"/><stop offset="0.41" stop-color="#85b2f1"/><stop offset="0.53" stop-color="#92b4f0"/><stop offset="0.69" stop-color="#9ab6ef"/><stop offset="1" stop-color="#9cb6ef"/></linearGradient><radialGradient id="Degradado_sin_nombre_2" cx="-19.74" cy="-1932.5" r="13.6" gradientTransform="matrix(1.11, 0, 0, -0.08, 39.83, -104.02)" gradientUnits="userSpaceOnUse"><stop offset="0.11" stop-color="#666"/><stop offset="0.24" stop-color="#757575" stop-opacity="0.86"/><stop offset="0.48" stop-color="#9c9c9c" stop-opacity="0.58"/><stop offset="0.82" stop-color="#dbdbdb" stop-opacity="0.2"/><stop offset="1" stop-color="#fff" stop-opacity="0"/></radialGradient><linearGradient id="Degradado_sin_nombre_12" x1="-86.89" y1="210" x2="-58.53" y2="210" gradientTransform="matrix(0.94, -0.34, -0.34, -0.94, 156.28, 208.29)" gradientUnits="userSpaceOnUse"><stop offset="0" stop-color="#dc70c8"/><stop offset="1" stop-color="#af70f0"/></linearGradient><linearGradient id="Degradado_sin_nombre_6" x1="-72.72" y1="214.56" x2="-72.42" y2="198.05" gradientTransform="matrix(0.94, -0.34, -0.34, -0.94, 156.28, 208.29)" xlink:href="#Degradado_sin_nombre_2"/><linearGradient id="Degradado_sin_nombre_5" x1="-71.26" y1="220.21" x2="-75.37" y2="201.04" gradientTransform="matrix(0.94, -0.34, -0.34, -0.94, 156.28, 208.29)" gradientUnits="userSpaceOnUse"><stop offset="0" stop-color="#6b4c9d"/><stop offset="1" stop-color="#6d7de5"/></linearGradient><linearGradient id="Degradado_sin_nombre_6-2" x1="-64.93" y1="214.09" x2="-80.06" y2="207.32" gradientTransform="matrix(0.94, -0.34, -0.34, -0.94, 156.28, 208.29)" xlink:href="#Degradado_sin_nombre_2"/><linearGradient id="Degradado_sin_nombre_7" x1="-86.91" y1="217.31" x2="-58.55" y2="217.31" gradientTransform="matrix(0.94, -0.34, -0.34, -0.94, 156.28, 208.29)" gradientUnits="userSpaceOnUse"><stop offset="0" stop-color="#73a9fa"/><stop offset="1" stop-color="#87f1fc"/></linearGradient><linearGradient id="Degradado_sin_nombre_8" x1="-86.89" y1="215.2" x2="-58.55" y2="215.2" gradientTransform="matrix(0.94, -0.34, -0.34, -0.94, 156.28, 208.29)" gradientUnits="userSpaceOnUse"><stop offset="0" stop-color="#85ebfd"/><stop offset="1" stop-color="#87f1fc" stop-opacity="0"/></linearGradient><linearGradient id="Degradado_sin_nombre_12-2" x1="-67.47" y1="197.72" x2="-68.05" y2="195.12" xlink:href="#Degradado_sin_nombre_12"/><linearGradient id="Degradado_sin_nombre_10" x1="-78.96" y1="201.36" x2="-70.28" y2="200.05" gradientTransform="matrix(0.94, -0.34, -0.34, -0.94, 156.28, 208.29)" gradientUnits="userSpaceOnUse"><stop offset="0" stop-color="#e697f1"/><stop offset="0.99" stop-color="#af70f0" stop-opacity="0"/></linearGradient><linearGradient id="Degradado_sin_nombre_12-3" x1="-65.03" y1="198.92" x2="-65.26" y2="197.15" xlink:href="#Degradado_sin_nombre_12"/><linearGradient id="Degradado_sin_nombre_12-4" x1="-63.28" y1="199.92" x2="-63.51" y2="198.75" xlink:href="#Degradado_sin_nombre_12"/><linearGradient id="Degradado_sin_nombre_13" x1="-79.77" y1="198.66" x2="-75.62" y2="216.5" gradientTransform="matrix(0.94, -0.34, -0.34, -0.94, 156.28, 208.29)" gradientUnits="userSpaceOnUse"><stop offset="0" stop-color="#95a5f8"/><stop offset="1" stop-color="#6d7de5" stop-opacity="0"/></linearGradient></defs><title>Recurso 7</title><g id="Capa_2" data-name="Capa 2"><g id="Capa_1-2" data-name="Capa 1"><path class="cls-1" d="M111.7,11.88V66.52A11.9,11.9,0,0,1,99.9,78.4h-88A12.07,12.07,0,0,1,0,66.42V11.88A11.85,11.85,0,0,1,11.9,0H86c1,.6-18.9,8.59-18.8,0l10,.1c6.1,9.89-4.9,8-4.9,4.69L86,0H99.8A11.85,11.85,0,0,1,111.7,11.88Z"/><path class="cls-2" d="M95.7,7.1a.4.4,0,1,0,.4.4C96.1,7.2,96,7.1,95.7,7.1Zm-.8-.5.3.3a.72.72,0,0,1,1,0l.3-.3a.89.89,0,0,0-.8-.4A1.23,1.23,0,0,0,94.9,6.6Zm-.8-.8.4.4a1.9,1.9,0,0,1,1.3-.5,2.11,2.11,0,0,1,1.3.5l.3-.3a2.36,2.36,0,0,0-1.6-.7A2.52,2.52,0,0,0,94.1,5.8Zm1.6-1.5a3.64,3.64,0,0,0-2.3.9l.3.3a2.73,2.73,0,0,1,1.9-.8,2.56,2.56,0,0,1,1.9.8l.5-.3A3.17,3.17,0,0,0,95.7,4.3Z"/><path class="cls-2" d="M91.9,4.8V7.7h.5V4.8ZM91,7.7h.5V5.3H91Zm-.8,0h.5V5.8h-.5Zm-.9,0h.5V6.4h-.5Zm-.9,0h.5V6.9h-.5Z"/><path class="cls-2" d="M99.5,5.6V7.1a.43.43,0,0,0,.4.4h3.5V5.2H99.9A.43.43,0,0,0,99.5,5.6Zm5.4.4V5.5a.65.65,0,0,0-.6-.6H99.8a.65.65,0,0,0-.6.6V7.1a.65.65,0,0,0,.6.6h4.5a.65.65,0,0,0,.6-.6V6.7h.3V6Zm-.1,1.1a.47.47,0,0,1-.5.5H99.8a.47.47,0,0,1-.5-.5V5.5a.47.47,0,0,1,.5-.5h4.5a.47.47,0,0,1,.5.5Z"/><path class="cls-2" d="M30.8,37.2a13.21,13.21,0,0,1-2.9,8.2,13,13,0,0,1-10,4.8,12.87,12.87,0,0,1-10-4.8,12.73,12.73,0,0,1-3-8.2,13,13,0,0,1,25.9,0Z"/><path class="cls-3" d="M27.9,45.4a13,13,0,0,1-10,4.8,12.87,12.87,0,0,1-10-4.8,2,2,0,0,1,1-.8l5-2.1a1.64,1.64,0,0,0,1-1.5V40a8.53,8.53,0,0,1-1.7-3.3.43.43,0,0,1-.4-.4l-.7-1.8a.61.61,0,0,1,.3-.7l.2-.1c-.3-3.7,1.4-5.5,5.2-5.5S23.2,30,23,33.7h0l.3.1a.46.46,0,0,1,.3.7L23,36.3a.66.66,0,0,1-.5.4A8.47,8.47,0,0,1,20.9,40v1.1a1.75,1.75,0,0,0,1,1.5l5,2.1C27.3,44.7,27.6,45,27.9,45.4Z"/><text class="cls-4" transform="translate(35.74 29.09)">Pepito Pérez</text><g class="cls-5"><text class="cls-6" transform="translate(23.74 66.25)">Distancia </text><text class="cls-7" transform="translate(41.84 66.25)">4km</text></g><g class="cls-5"><text class="cls-8" transform="translate(35.74 43.54)">Edad</text><text class="cls-9" transform="translate(42.14 43.54)"><tspan xml:space="preserve"> 07</tspan></text></g><g class="cls-5"><text class="cls-8" transform="translate(35.74 50.15)">Curso</text><text class="cls-9" transform="translate(43.24 50.15)"><tspan xml:space="preserve"> Segundo</tspan></text></g><g class="cls-5"><text class="cls-8" transform="translate(57.07 43.54)">Colegio</text><text class="cls-9" transform="translate(66.47 43.54)"><tspan xml:space="preserve"> Taller infantil pasitos</tspan></text></g><g id="Capas"><ellipse class="cls-10" cx="17.9" cy="52.2" rx="16" ry="1.4"/><path class="cls-11" d="M23.3,47c-2.4,1.8-5.3,2-8.5,1.3-5.5-1.4-8.5-6.9-7.6-12.8a9.91,9.91,0,0,1,12-8.6,12,12,0,0,1,3.3,1.3,4.23,4.23,0,0,0,4.7-.1l.1-.1a3.13,3.13,0,0,0,.3-4.8,14.54,14.54,0,0,0-7.5-3.8C12.4,18,4.9,23.4,3.3,31.5c-1.7,8.6,3.5,17,11.5,18.7a14.37,14.37,0,0,0,9.6-1.4,1.1,1.1,0,0,0,.4-1.5h0A1,1,0,0,0,23.3,47Z"/><path class="cls-12" d="M23.3,47c-2.4,1.8-5.3,2-8.5,1.3-5.5-1.4-8.5-6.9-7.6-12.8a9.91,9.91,0,0,1,12-8.6,12,12,0,0,1,3.3,1.3,4.23,4.23,0,0,0,4.7-.1l.1-.1a3.13,3.13,0,0,0,.3-4.8,14.54,14.54,0,0,0-7.5-3.8C12.4,18,4.9,23.4,3.3,31.5c-1.7,8.6,3.5,17,11.5,18.7a14.37,14.37,0,0,0,9.6-1.4,1.1,1.1,0,0,0,.4-1.5h0A1,1,0,0,0,23.3,47Z"/><path class="cls-13" d="M6.8,35.8c1.2-6.1,6.7-10,12.4-8.8a12,12,0,0,1,3.3,1.3,4.23,4.23,0,0,0,4.7-.1l.1-.1a3.13,3.13,0,0,0,.3-4.8,14.54,14.54,0,0,0-7.5-3.8c-7.7-1.4-15.2,4-16.8,12.1C1.6,40.1,6.8,48.5,14.8,50.2a13.39,13.39,0,0,0,6.6-.2C9,52.2,5.8,40.5,6.8,35.8Z"/><path class="cls-14" d="M6.8,35.8c1.2-6.1,6.7-10,12.4-8.8a12,12,0,0,1,3.3,1.3,4.23,4.23,0,0,0,4.7-.1l.1-.1a3.13,3.13,0,0,0,.3-4.8,14.54,14.54,0,0,0-7.5-3.8c-7.7-1.4-15.2,4-16.8,12.1C1.6,40.1,6.8,48.5,14.8,50.2a13.39,13.39,0,0,0,6.6-.2C9,52.2,5.8,40.5,6.8,35.8Z"/><path class="cls-15" d="M10.9,26.1c5.7-2.4,9.6.1,11.8,1.9a3.61,3.61,0,0,0,4.5.2l.1-.1a3.13,3.13,0,0,0,.3-4.8,14.54,14.54,0,0,0-7.5-3.8c-7.7-1.4-15.2,4-16.8,12.1a17.08,17.08,0,0,0,.7,9C1.9,34.6,5.1,28.5,10.9,26.1Z"/><path class="cls-16" d="M27.1,27.5l-.1.1a3.62,3.62,0,0,1-4.5-.2c-2.2-1.8-6.1-4.3-11.8-1.9S1.7,34,3.9,40c0-.1-.1-.2-.1-.3.1.3.2.5.3.8-2.2-6,1.1-12.1,6.8-14.5s9.6.1,11.8,1.9a3.61,3.61,0,0,0,4.5.2l.1-.1a3.24,3.24,0,0,0,1-3.9A3.5,3.5,0,0,1,27.1,27.5Z"/><path class="cls-17" d="M27.3,45.6a1.11,1.11,0,0,1-.6,1.4,1.08,1.08,0,0,1-1.4-.7,1.11,1.11,0,0,1,.6-1.4A1.08,1.08,0,0,1,27.3,45.6Z"/><path class="cls-18" d="M23.3,47c-2.4,1.8-5.3,2-8.5,1.3a10.25,10.25,0,0,1-7.1-6.6,10.17,10.17,0,0,0,7.2,7c3.1.8,6.1.6,8.5-1.3a1,1,0,0,1,1.5.3h0c0-.1-.1-.3-.1-.4A1,1,0,0,0,23.3,47Z"/><path class="cls-19" d="M29,43.5a1,1,0,0,1-.5,1.1c-.4.2-.8-.1-1-.5A1,1,0,0,1,28,43C28.4,42.8,28.8,43,29,43.5Z"/><path class="cls-20" d="M29.9,41.7a.52.52,0,0,1-.3.7.42.42,0,0,1-.6-.3.52.52,0,0,1,.3-.7C29.6,41.2,29.8,41.4,29.9,41.7Z"/><path class="cls-21" d="M6.8,35.8a11.36,11.36,0,0,1,6.6-8.3,11,11,0,0,0-7,8.5c-.9,4.6,2,15.9,13.7,14.4l1.3-.3C9,52.2,5.8,40.5,6.8,35.8Z"/></g></g></g></svg>