<svg xmlns="http://www.w3.org/2000/svg" xmlns:xlink="http://www.w3.org/1999/xlink" viewBox="0 0 111.66 239.37"><defs><style>.cls-1{isolation:isolate;}.cls-15,.cls-2{fill:#fff;}.cls-3{fill:#ff8000;}.cls-4{fill:#5b575e;}.cls-5{fill:#665c7a;}.cls-6{fill:#534b64;}.cls-7{fill:#f5b510;}.cls-8{fill:#fac911;}.cls-9{fill:#f8e618;}.cls-10{fill:#ebdf9f;}.cls-10,.cls-18,.cls-19,.cls-23{mix-blend-mode:multiply;}.cls-11{fill:#7dcdce;}.cls-12{fill:#f88011;}.cls-13{fill:#e3bf14;}.cls-14{fill:#4ab2ac;}.cls-15{opacity:0.09;}.cls-16{fill:#fcfcfc;}.cls-17{fill:#e5e5e5;}.cls-18,.cls-19{fill:#c1c0c6;}.cls-18{opacity:0.7;}.cls-20{fill:url(#Degradado_sin_nombre_19);}.cls-21{fill:url(#Degradado_sin_nombre_6);}.cls-22{fill:url(#Degradado_sin_nombre_13);}.cls-23{opacity:0.6;fill:url(#Degradado_sin_nombre_44);}.cls-24{fill:url(#Degradado_sin_nombre_6-2);}.cls-25{fill:url(#Degradado_sin_nombre_49);}.cls-26{fill:url(#Degradado_sin_nombre_6-3);}.cls-27{fill:url(#Degradado_sin_nombre_69);}.cls-28{fill:url(#Degradado_sin_nombre_6-4);}.cls-29{fill:url(#Degradado_sin_nombre_6-5);}.cls-30{fill:url(#Degradado_sin_nombre_61);}</style><linearGradient id="Degradado_sin_nombre_19" x1="10.69" y1="68.95" x2="67.35" y2="68.95" gradientTransform="translate(-5.43 67.16) rotate(-19.68)" gradientUnits="userSpaceOnUse"><stop offset="0" stop-color="#dc70c8"/><stop offset="1" stop-color="#af70f0"/></linearGradient><linearGradient id="Degradado_sin_nombre_6" x1="38.96" y1="60.4" x2="39.53" y2="91.27" gradientTransform="translate(-5.43 67.16) rotate(-19.68)" gradientUnits="userSpaceOnUse"><stop offset="0" stop-color="#00bcef"/><stop offset="0.39" stop-color="#18cff0"/><stop offset="1" stop-color="#44f2f2"/></linearGradient><linearGradient id="Degradado_sin_nombre_13" x1="41.62" y1="49.93" x2="34.01" y2="85.44" gradientTransform="translate(-5.43 67.16) rotate(-19.68)" gradientUnits="userSpaceOnUse"><stop offset="0" stop-color="#6b4c9d"/><stop offset="1" stop-color="#6d7de5"/></linearGradient><linearGradient id="Degradado_sin_nombre_44" x1="54.13" y1="60.65" x2="24.8" y2="73.78" gradientTransform="translate(-5.43 67.16) rotate(-19.68)" gradientUnits="userSpaceOnUse"><stop offset="0.11" stop-color="#666"/><stop offset="0.29" stop-color="#7c7c7c" stop-opacity="0.85"/><stop offset="0.63" stop-color="#b7b7b7" stop-opacity="0.47"/><stop offset="1" stop-color="#fff" stop-opacity="0"/></linearGradient><linearGradient id="Degradado_sin_nombre_6-2" x1="26" y1="109.31" x2="77.93" y2="109.31" gradientTransform="matrix(1, 0, 0, 1, 0, 0)" xlink:href="#Degradado_sin_nombre_6"/><linearGradient id="Degradado_sin_nombre_49" x1="10.69" y1="58.82" x2="67.35" y2="58.82" gradientTransform="translate(-5.43 67.16) rotate(-19.68)" gradientUnits="userSpaceOnUse"><stop offset="0" stop-color="#85ebfd"/><stop offset="1" stop-color="#87f1fc" stop-opacity="0"/></linearGradient><linearGradient id="Degradado_sin_nombre_6-3" x1="50.55" y1="92.18" x2="49.5" y2="96.99" xlink:href="#Degradado_sin_nombre_6"/><linearGradient id="Degradado_sin_nombre_69" x1="27.1" y1="84.52" x2="44.85" y2="87.19" gradientTransform="translate(-5.43 67.16) rotate(-19.68)" gradientUnits="userSpaceOnUse"><stop offset="0" stop-color="#e697f1"/><stop offset="0.99" stop-color="#af70f0" stop-opacity="0"/></linearGradient><linearGradient id="Degradado_sin_nombre_6-4" x1="55.34" y1="90.06" x2="54.91" y2="93.34" xlink:href="#Degradado_sin_nombre_6"/><linearGradient id="Degradado_sin_nombre_6-5" x1="58.82" y1="88.29" x2="58.4" y2="90.46" xlink:href="#Degradado_sin_nombre_6"/><linearGradient id="Degradado_sin_nombre_61" x1="25.52" y1="89.75" x2="33.21" y2="56.65" gradientTransform="translate(-5.43 67.16) rotate(-19.68)" gradientUnits="userSpaceOnUse"><stop offset="0" stop-color="#95a5f8"/><stop offset="1" stop-color="#6d7de5" stop-opacity="0"/></linearGradient></defs><title>GDFRecurso 1MICOSCOLOR</title><g class="cls-1"><g id="Capa_2" data-name="Capa 2"><g id="Capas"><path class="cls-2" d="M111.66,11.85V227.52a11.84,11.84,0,0,1-11.85,11.85h-88A11.85,11.85,0,0,1,0,227.52V11.85A11.86,11.86,0,0,1,11.85,0H25.68V4a6,6,0,0,0,6,6H80a6,6,0,0,0,6-6V0H99.81A11.85,11.85,0,0,1,111.66,11.85Z"/><path class="cls-3" d="M81.06,119.77A24.38,24.38,0,1,1,56.68,95.39,24.38,24.38,0,0,1,81.06,119.77Z"/><rect class="cls-4" x="45.48" y="127.22" width="3.97" height="5.78" rx="0.55" ry="0.55"/><rect class="cls-4" x="64.21" y="127.22" width="3.97" height="5.78" rx="0.55" ry="0.55"/><polygon class="cls-5" points="67.47 118.69 67.18 118.22 69.58 116.77 69.58 111.86 67.21 110.78 67.44 110.28 70.13 111.51 70.13 117.08 67.47 118.69"/><rect class="cls-6" x="68.64" y="112.04" width="2.41" height="4.42" rx="0.46" ry="0.46"/><polygon class="cls-5" points="46.25 118.69 43.59 117.08 43.59 111.51 46.27 110.28 46.5 110.78 44.14 111.86 44.14 116.77 46.53 118.22 46.25 118.69"/><rect class="cls-6" x="42.66" y="112.04" width="2.41" height="4.42" rx="0.46" ry="0.46"/><rect class="cls-7" x="45.91" y="110.53" width="21.84" height="12.11"/><rect class="cls-8" x="46.88" y="118.78" width="19.89" height="10.64"/><path class="cls-9" d="M49,120.9v8.52H44.77V120.9a2.12,2.12,0,1,1,4.23,0Z"/><path class="cls-9" d="M68.89,120.9v8.52H64.66V120.9a2.12,2.12,0,1,1,4.23,0Z"/><path class="cls-10" d="M65,119.71a2.06,2.06,0,0,0-.36,1.18v8.53h-1V121.7A2.1,2.1,0,0,1,65,119.71Z"/><path class="cls-11" d="M70.29,128.36a1.1,1.1,0,0,1-1.1,1.1H44.46a1.11,1.11,0,0,1-1.1-1.1,1.1,1.1,0,0,1,.33-.78,1.06,1.06,0,0,1,.77-.32H69.19A1.1,1.1,0,0,1,70.29,128.36Z"/><path class="cls-7" d="M67.75,110.53c0,1.81-4.89,3.27-10.92,3.27s-10.92-1.46-10.92-3.27,4.89-3.27,10.92-3.27S67.75,108.72,67.75,110.53Z"/><path class="cls-2" d="M48.29,121.2a1.41,1.41,0,1,1-1.41-1.41A1.41,1.41,0,0,1,48.29,121.2Z"/><path class="cls-12" d="M47.88,123.92a1,1,0,1,1-1-1A1,1,0,0,1,47.88,123.92Z"/><path class="cls-12" d="M67.77,123.92a1,1,0,1,1-1-1A1,1,0,0,1,67.77,123.92Z"/><path class="cls-2" d="M68.18,121.2a1.41,1.41,0,1,1-1.41-1.41A1.41,1.41,0,0,1,68.18,121.2Z"/><rect class="cls-13" x="50.44" y="120.89" width="12.78" height="5.2"/><polygon class="cls-10" points="63.22 120.89 63.22 126.09 62.41 126.09 62.41 121.7 50.44 121.7 50.44 120.89 63.22 120.89"/><rect class="cls-14" x="47.37" y="112.47" width="8.73" height="5.07"/><rect class="cls-14" x="57.65" y="112.47" width="8.74" height="5.07"/><polygon class="cls-15" points="66.39 112.47 66.39 117.55 57.66 112.47 66.39 112.47"/><polygon class="cls-15" points="56.09 112.47 56.09 117.55 47.37 112.47 56.09 112.47"/><rect class="cls-16" x="51.99" y="109.2" width="9.68" height="1.88"/><rect class="cls-17" x="52.82" y="128.64" width="8.02" height="2.06"/><path class="cls-18" d="M68,132.86,56.71,144.15h0a24.38,24.38,0,0,1-24.21-21.52l10.19-10.2a.22.22,0,0,0,0,.08V116a.47.47,0,0,0,.46.46h.47v.62l2.33,1.39V119a2.09,2.09,0,0,0-1.14,1.87v6.35h-.31a1.11,1.11,0,0,0-.78.33,1.1,1.1,0,0,0,.78,1.88h1v3A.54.54,0,0,0,46,133h2.86a.54.54,0,0,0,.55-.55v-3h3.37v1.25h8v-1.25h3.37v3a.54.54,0,0,0,.55.55h2.87A.51.51,0,0,0,68,132.86Z"/><path class="cls-19" d="M68.64,112.51V116a.47.47,0,0,0,.46.46h.47v.3l-1.82,1.11V111l1.82.84v.18H69.1A.46.46,0,0,0,68.64,112.51Z"/><path class="cls-19" d="M45.91,111.05v6.79l-1.78-1.07v-.3h.48a.47.47,0,0,0,.46-.46v-3.5a.46.46,0,0,0-.46-.46h-.48v-.18Z"/><path class="cls-20" d="M67.32,140.91c-4.86,3.4-10.85,3.77-17.19,2.33C39,140.7,33,130.42,34.66,119.65,36.46,108.3,47.32,101.54,59,103.8a21.94,21.94,0,0,1,6.67,2.46,9.12,9.12,0,0,0,9.45-.17l.24-.16A5.58,5.58,0,0,0,76,97a30.17,30.17,0,0,0-15.16-7.08C45.18,87.35,30,97.31,26.68,112.31c-3.53,15.82,7,31.32,23.35,34.49a30.62,30.62,0,0,0,19.5-2.61,1.89,1.89,0,0,0,.8-2.71h0A2.13,2.13,0,0,0,67.32,140.91Z"/><path class="cls-21" d="M67.32,140.91c-4.86,3.4-10.85,3.77-17.19,2.33C39,140.7,33,130.42,34.66,119.65,36.46,108.3,47.32,101.54,59,103.8a21.94,21.94,0,0,1,6.67,2.46,9.12,9.12,0,0,0,9.45-.17l.24-.16A5.58,5.58,0,0,0,76,97a30.17,30.17,0,0,0-15.16-7.08C45.18,87.35,30,97.31,26.68,112.31c-3.53,15.82,7,31.32,23.35,34.49a30.62,30.62,0,0,0,19.5-2.61,1.89,1.89,0,0,0,.8-2.71h0A2.13,2.13,0,0,0,67.32,140.91Z"/><path class="cls-22" d="M33.7,120.12A21.5,21.5,0,0,1,59,103.8a21.84,21.84,0,0,1,6.67,2.46,9.12,9.12,0,0,0,9.45-.17l.24-.16A5.58,5.58,0,0,0,76,97a30.17,30.17,0,0,0-15.16-7.08C45.18,87.35,30,97.31,26.68,112.31c-3.53,15.82,7,31.32,23.35,34.49a30.73,30.73,0,0,0,13.32-.34C38.13,150.52,31.83,128.84,33.7,120.12Z"/><path class="cls-23" d="M33.7,120.12A21.5,21.5,0,0,1,59,103.8a21.84,21.84,0,0,1,6.67,2.46,9.12,9.12,0,0,0,9.45-.17l.24-.16A5.58,5.58,0,0,0,76,97a30.17,30.17,0,0,0-15.16-7.08C45.18,87.35,30,97.31,26.68,112.31c-3.53,15.82,7,31.32,23.35,34.49a30.73,30.73,0,0,0,13.32-.34C38.13,150.52,31.83,128.84,33.7,120.12Z"/><path class="cls-24" d="M42,102.3c11.6-4.42,19.55.18,24,3.46a7.87,7.87,0,0,0,9.07.33l.24-.15A5.6,5.6,0,0,0,76,97a30.29,30.29,0,0,0-15.16-7.08C45.18,87.35,30,97.31,26.68,112.31a27.89,27.89,0,0,0,1.44,16.82C23.73,118,30.4,106.73,42,102.3Z"/><path class="cls-25" d="M74.94,104.93l-.25.15a7.85,7.85,0,0,1-9.06-.33c-4.46-3.28-12.42-7.88-24-3.46s-18.26,15.65-13.87,26.83c-.07-.16-.13-.32-.19-.48.17.5.36,1,.56,1.49C23.73,118,30.4,106.73,42,102.3s19.55.18,24,3.46a7.87,7.87,0,0,0,9.07.33l.24-.15a5.59,5.59,0,0,0,2.06-7.16A5.6,5.6,0,0,1,74.94,104.93Z"/><path class="cls-26" d="M75.51,138.29A2.08,2.08,0,0,1,74.2,141a2.19,2.19,0,0,1-2.76-1.27A2.06,2.06,0,0,1,72.75,137,2.17,2.17,0,0,1,75.51,138.29Z"/><path class="cls-27" d="M67.32,140.91c-4.86,3.4-10.85,3.77-17.19,2.33A19.74,19.74,0,0,1,35.78,131a19.72,19.72,0,0,0,14.6,13c6.34,1.44,12.33,1.08,17.19-2.33a2.13,2.13,0,0,1,3,.58v0a1.93,1.93,0,0,0-.26-.7A2.13,2.13,0,0,0,67.32,140.91Z"/><path class="cls-28" d="M78.83,134.38a1.51,1.51,0,0,1-1,2,1.59,1.59,0,0,1-2-.92,1.52,1.52,0,0,1,1-2A1.59,1.59,0,0,1,78.83,134.38Z"/><ellipse class="cls-29" cx="79.82" cy="131.37" rx="1.02" ry="0.99"/><path class="cls-30" d="M33.7,120.12a21.22,21.22,0,0,1,13.47-15.38,21.26,21.26,0,0,0-14.29,15.67C31.05,128.91,37,149.78,60.77,147c.87-.14,1.73-.31,2.58-.52C38.13,150.52,31.83,128.84,33.7,120.12Z"/></g></g></g></svg>