<svg xmlns="http://www.w3.org/2000/svg" xmlns:xlink="http://www.w3.org/1999/xlink" viewBox="0 0 111.68 240.79"><defs><style>.cls-1{isolation:isolate;}.cls-2,.cls-28,.cls-3,.cls-6{fill:#fff;}.cls-3,.cls-4{font-size:3.4px;font-family:OpenSans-Bold, Open Sans;font-weight:700;}.cls-3{letter-spacing:0.05em;}.cls-4{fill:#8fcdf4;letter-spacing:0.05em;}.cls-5{fill:url(#Nueva_muestra_de_degradado_1);}.cls-6{font-size:9px;font-family:MyriadPro-Regular, Myriad Pro;}.cls-7{letter-spacing:-0.05em;}.cls-8{letter-spacing:-0.01em;}.cls-9{letter-spacing:0em;}.cls-10{letter-spacing:-0.01em;}.cls-11{letter-spacing:-0.01em;}.cls-12{fill:#ebebeb;}.cls-13{fill:#3fafad;}.cls-14{fill:#359b97;}.cls-15{fill:#665c7a;}.cls-16{fill:#534b64;}.cls-17{fill:#d3d5d7;}.cls-17,.cls-23,.cls-31,.cls-32,.cls-36{mix-blend-mode:multiply;}.cls-18{fill:#ff8000;}.cls-19{fill:#5b575e;}.cls-20{fill:#f5b510;}.cls-21{fill:#fac911;}.cls-22{fill:#f8e618;}.cls-23{fill:#ebdf9f;}.cls-24{fill:#7dcdce;}.cls-25{fill:#f88011;}.cls-26{fill:#e3bf14;}.cls-27{fill:#4ab2ac;}.cls-28{opacity:0.09;}.cls-29{fill:#fcfcfc;}.cls-30{fill:#e5e5e5;}.cls-31,.cls-32{fill:#c1c0c6;}.cls-31{opacity:0.7;}.cls-33{fill:url(#Degradado_sin_nombre_19);}.cls-34{fill:url(#Nueva_muestra_de_degradado_1-2);}.cls-35{fill:url(#Degradado_sin_nombre_13);}.cls-36{opacity:0.6;fill:url(#Degradado_sin_nombre_44);}.cls-37{fill:url(#Nueva_muestra_de_degradado_1-3);}.cls-38{fill:url(#Degradado_sin_nombre_49);}.cls-39{fill:url(#Nueva_muestra_de_degradado_1-4);}.cls-40{fill:url(#Degradado_sin_nombre_69);}.cls-41{fill:url(#Nueva_muestra_de_degradado_1-5);}.cls-42{fill:url(#Nueva_muestra_de_degradado_1-6);}.cls-43{fill:url(#Degradado_sin_nombre_61);}</style><linearGradient id="Nueva_muestra_de_degradado_1" x1="293.32" y1="106.23" x2="405.01" y2="106.23" gradientTransform="translate(405.01 294.52) rotate(180)" gradientUnits="userSpaceOnUse"><stop offset="0" stop-color="#00bcef"/><stop offset="0.39" stop-color="#18cff0"/><stop offset="1" stop-color="#44f2f2"/></linearGradient><linearGradient id="Degradado_sin_nombre_19" x1="26.06" y1="56.92" x2="82.72" y2="56.92" gradientTransform="translate(-13.53 19.06) rotate(-19.68)" gradientUnits="userSpaceOnUse"><stop offset="0" stop-color="#dc70c8"/><stop offset="1" stop-color="#af70f0"/></linearGradient><linearGradient id="Nueva_muestra_de_degradado_1-2" x1="54.33" y1="48.37" x2="54.9" y2="79.24" gradientTransform="translate(-13.53 19.06) rotate(-19.68)" xlink:href="#Nueva_muestra_de_degradado_1"/><linearGradient id="Degradado_sin_nombre_13" x1="56.99" y1="37.89" x2="49.38" y2="73.41" gradientTransform="translate(-13.53 19.06) rotate(-19.68)" gradientUnits="userSpaceOnUse"><stop offset="0" stop-color="#6b4c9d"/><stop offset="1" stop-color="#6d7de5"/></linearGradient><linearGradient id="Degradado_sin_nombre_44" x1="69.5" y1="48.62" x2="40.16" y2="61.74" gradientTransform="translate(-13.53 19.06) rotate(-19.68)" gradientUnits="userSpaceOnUse"><stop offset="0.11" stop-color="#666"/><stop offset="0.29" stop-color="#7c7c7c" stop-opacity="0.85"/><stop offset="0.63" stop-color="#b7b7b7" stop-opacity="0.47"/><stop offset="1" stop-color="#fff" stop-opacity="0"/></linearGradient><linearGradient id="Nueva_muestra_de_degradado_1-3" x1="28.31" y1="44.71" x2="80.24" y2="44.71" gradientTransform="matrix(1, 0, 0, 1, 0, 0)" xlink:href="#Nueva_muestra_de_degradado_1"/><linearGradient id="Degradado_sin_nombre_49" x1="26.06" y1="46.78" x2="82.72" y2="46.78" gradientTransform="translate(-13.53 19.06) rotate(-19.68)" gradientUnits="userSpaceOnUse"><stop offset="0" stop-color="#85ebfd"/><stop offset="1" stop-color="#87f1fc" stop-opacity="0"/></linearGradient><linearGradient id="Nueva_muestra_de_degradado_1-4" x1="65.92" y1="80.14" x2="64.86" y2="84.96" gradientTransform="translate(-13.53 19.06) rotate(-19.68)" xlink:href="#Nueva_muestra_de_degradado_1"/><linearGradient id="Degradado_sin_nombre_69" x1="42.46" y1="72.48" x2="60.22" y2="75.16" gradientTransform="translate(-13.53 19.06) rotate(-19.68)" gradientUnits="userSpaceOnUse"><stop offset="0" stop-color="#e697f1"/><stop offset="0.99" stop-color="#af70f0" stop-opacity="0"/></linearGradient><linearGradient id="Nueva_muestra_de_degradado_1-5" x1="70.71" y1="78.02" x2="70.28" y2="81.31" gradientTransform="translate(-13.53 19.06) rotate(-19.68)" xlink:href="#Nueva_muestra_de_degradado_1"/><linearGradient id="Nueva_muestra_de_degradado_1-6" x1="74.19" y1="76.25" x2="73.77" y2="78.42" gradientTransform="translate(-13.53 19.06) rotate(-19.68)" xlink:href="#Nueva_muestra_de_degradado_1"/><linearGradient id="Degradado_sin_nombre_61" x1="40.89" y1="77.72" x2="48.58" y2="44.62" gradientTransform="translate(-13.53 19.06) rotate(-19.68)" gradientUnits="userSpaceOnUse"><stop offset="0" stop-color="#95a5f8"/><stop offset="1" stop-color="#6d7de5" stop-opacity="0"/></linearGradient></defs><title>GDFRecurso 2MICOSCOLOR</title><g class="cls-1"><g id="Capa_2" data-name="Capa 2"><g id="Capas"><path class="cls-2" d="M111.67,11.85V227.52a11.84,11.84,0,0,1-11.85,11.85h-88A11.85,11.85,0,0,1,0,227.52V11.85A11.86,11.86,0,0,1,11.86,0H25.69V4a6,6,0,0,0,6,6H80a6,6,0,0,0,6-6V0H99.82A11.85,11.85,0,0,1,111.67,11.85Z"/><text class="cls-3" transform="translate(38.87 104.46)">CREAR USUARIO</text><text class="cls-4" transform="translate(26.22 115.9)">YA TENGO CUENTA CON BACCU</text><path class="cls-5" d="M0,231.37V155.48a78.42,78.42,0,0,1,31.9-16.94,84.08,84.08,0,0,1,38.15-1,78.57,78.57,0,0,1,37.45,18.94q2.19,2,4.18,4.16v70.78a9,9,0,0,1-2.72,6.39,10.76,10.76,0,0,1-7.58,3H10.3c-.35,0-.7,0-1,0h0c-5.2-.48-9.25-4.49-9.25-9.37"/><text class="cls-6" transform="translate(15.74 188.02)"><tspan class="cls-7">T</tspan><tspan x="4.07" y="0">u asis</tspan><tspan class="cls-8" x="24.51" y="0">t</tspan><tspan x="27.43" y="0">e</tspan><tspan class="cls-9" x="31.94" y="0">n</tspan><tspan class="cls-10" x="36.9" y="0">t</tspan><tspan x="39.82" y="0">e personal</tspan><tspan x="6.11" y="10.8">de rutas es</tspan><tspan class="cls-10" x="46.36" y="10.8">c</tspan><tspan x="50.34" y="10.8">ola</tspan><tspan class="cls-11" x="61.74" y="10.8">r</tspan><tspan x="64.6" y="10.8">es</tspan></text><path class="cls-12" d="M65.59,131.05H54c-1.06,0-1.91-1.17-1.91-2.61a3.06,3.06,0,0,1,.6-1.88,1.65,1.65,0,0,1,1.31-.72H65.58a2.28,2.28,0,0,0-.49.49,3.45,3.45,0,0,0-.67,2.11A3.22,3.22,0,0,0,65.59,131.05Z"/><path class="cls-13" d="M66.64,131.05l0,.76H54a2.26,2.26,0,0,1-1.24-.38,2.44,2.44,0,0,1-.46-.39,4,4,0,0,1-.22-5,1.88,1.88,0,0,1,.22-.26,2.07,2.07,0,0,1,.46-.38,2.24,2.24,0,0,1,1.24-.39H66.68l0,.76H54a1.65,1.65,0,0,0-1.31.72,3.06,3.06,0,0,0-.6,1.88c0,1.44.85,2.61,1.91,2.61Z"/><path class="cls-14" d="M52.72,131.44a2.26,2.26,0,0,0,1.24.38H47.29c-1.47,0-2.67-1.52-2.67-3.38s1.2-3.37,2.67-3.37H54a2.24,2.24,0,0,0-1.24.39,2.07,2.07,0,0,0-.46.38,1.88,1.88,0,0,0-.22.26,4,4,0,0,0,.22,5A2.44,2.44,0,0,0,52.72,131.44Z"/><path class="cls-12" d="M67.22,137.8H55.65c-1,0-1.9-1.17-1.9-2.6a3.15,3.15,0,0,1,.59-1.89,1.64,1.64,0,0,1,1.31-.72H67.21a2.28,2.28,0,0,0-.49.49,3.46,3.46,0,0,0-.67,2.12A3.2,3.2,0,0,0,67.22,137.8Z"/><path class="cls-15" d="M68.3,137.8v.77H55.65a2.19,2.19,0,0,1-1.24-.39,3.19,3.19,0,0,1-.46-.38,3.79,3.79,0,0,1-1-2.6,3.89,3.89,0,0,1,.75-2.36,2.62,2.62,0,0,1,.22-.25,2.8,2.8,0,0,1,.46-.39,2.26,2.26,0,0,1,1.24-.38H68.29v.77H55.65a1.64,1.64,0,0,0-1.31.72,3.15,3.15,0,0,0-.59,1.89c0,1.43.85,2.6,1.9,2.6Z"/><path class="cls-16" d="M54.41,138.18a2.19,2.19,0,0,0,1.24.39H43.23c-1.47,0-2.67-1.51-2.67-3.37s1.2-3.38,2.67-3.38H55.65a2.26,2.26,0,0,0-1.24.38,2.8,2.8,0,0,0-.46.39,2.62,2.62,0,0,0-.22.25A3.89,3.89,0,0,0,53,135.2a3.79,3.79,0,0,0,1,2.6A3.19,3.19,0,0,0,54.41,138.18Z"/><path class="cls-17" d="M51,131.05H49.79a4.7,4.7,0,0,1-.76-2.61,4.77,4.77,0,0,1,.75-2.6H51a4.84,4.84,0,0,0,0,5.21Z"/><path class="cls-17" d="M48.78,131.05h-2a3,3,0,0,1-1.08-2.59,3.32,3.32,0,0,1,1.08-2.6h2a4.84,4.84,0,0,0,0,5.21Z"/><path class="cls-17" d="M46.64,137.8h-3c-1,0-1.91-1.19-1.91-2.6s.88-2.61,1.91-2.61h3a4.7,4.7,0,0,0-.76,2.61A4.65,4.65,0,0,0,46.64,137.8Z"/><path class="cls-17" d="M52.05,137.8H49.37a4.65,4.65,0,0,1-.76-2.6,4.78,4.78,0,0,1,.75-2.61h2.69a4.84,4.84,0,0,0,0,5.21Z"/><path class="cls-17" d="M65.59,125.84a2.53,2.53,0,0,0-.49.49,3.37,3.37,0,0,0-.65,1.71l-3,3H54c-1.05,0-1.9-1.17-1.9-2.6a3.07,3.07,0,0,1,.6-1.89,1.65,1.65,0,0,1,1.3-.72Z"/><path class="cls-17" d="M67.22,132.59a2.53,2.53,0,0,0-.49.49,3.36,3.36,0,0,0-.65,1.74l-3,3H55.66c-1,0-1.9-1.17-1.9-2.6a3.15,3.15,0,0,1,.59-1.89,1.68,1.68,0,0,1,1.31-.72Z"/><path class="cls-18" d="M83.37,55.17A24.38,24.38,0,1,1,59,30.79,24.37,24.37,0,0,1,83.37,55.17Z"/><rect class="cls-19" x="47.79" y="62.62" width="3.97" height="5.78" rx="0.55" ry="0.55"/><rect class="cls-19" x="66.52" y="62.62" width="3.97" height="5.78" rx="0.55" ry="0.55"/><polygon class="cls-15" points="69.78 54.08 69.5 53.61 71.89 52.17 71.89 47.26 69.53 46.18 69.75 45.68 72.44 46.91 72.44 52.48 69.78 54.08"/><rect class="cls-16" x="70.96" y="47.44" width="2.41" height="4.42" rx="0.46" ry="0.46"/><polygon class="cls-15" points="48.56 54.08 45.9 52.48 45.9 46.91 48.59 45.68 48.82 46.18 46.45 47.26 46.45 52.17 48.85 53.61 48.56 54.08"/><rect class="cls-16" x="44.97" y="47.44" width="2.41" height="4.42" rx="0.46" ry="0.46"/><rect class="cls-20" x="48.22" y="45.93" width="21.84" height="12.11"/><rect class="cls-21" x="49.2" y="54.18" width="19.89" height="10.64"/><path class="cls-22" d="M51.31,56.29v8.53H47.08V56.29a2.12,2.12,0,0,1,4.23,0Z"/><path class="cls-22" d="M71.2,56.29v8.53H67V56.29a2.11,2.11,0,0,1,3.6-1.49A2.07,2.07,0,0,1,71.2,56.29Z"/><path class="cls-23" d="M67.34,55.1A2.11,2.11,0,0,0,67,56.29v8.52H65.92V57.1A2.12,2.12,0,0,1,67.34,55.1Z"/><path class="cls-24" d="M72.61,63.75a1.1,1.1,0,0,1-1.1,1.1H46.78a1.1,1.1,0,1,1,0-2.2H71.51A1.1,1.1,0,0,1,72.61,63.75Z"/><path class="cls-20" d="M70.06,45.93c0,1.8-4.89,3.27-10.92,3.27s-10.92-1.47-10.92-3.27,4.89-3.27,10.92-3.27S70.06,44.12,70.06,45.93Z"/><path class="cls-2" d="M50.6,56.6a1.41,1.41,0,1,1-1.4-1.41A1.4,1.4,0,0,1,50.6,56.6Z"/><path class="cls-25" d="M50.19,59.32a1,1,0,0,1-2,0,1,1,0,1,1,2,0Z"/><path class="cls-25" d="M70.08,59.32a1,1,0,0,1-2,0,1,1,0,1,1,2,0Z"/><path class="cls-2" d="M70.49,56.6a1.41,1.41,0,1,1-1.4-1.41A1.4,1.4,0,0,1,70.49,56.6Z"/><rect class="cls-26" x="52.75" y="56.29" width="12.78" height="5.2"/><polygon class="cls-23" points="65.53 56.29 65.53 61.49 64.72 61.49 64.72 57.1 52.75 57.1 52.75 56.29 65.53 56.29"/><rect class="cls-27" x="49.68" y="47.87" width="8.73" height="5.07"/><rect class="cls-27" x="59.97" y="47.87" width="8.74" height="5.07"/><polygon class="cls-28" points="68.7 47.87 68.7 52.94 59.98 47.87 68.7 47.87"/><polygon class="cls-28" points="58.41 47.87 58.41 52.94 49.68 47.87 58.41 47.87"/><rect class="cls-29" x="54.3" y="44.6" width="9.68" height="1.88"/><rect class="cls-30" x="55.13" y="64.04" width="8.02" height="2.06"/><path class="cls-31" d="M70.31,68.26,59,79.54h0A24.38,24.38,0,0,1,34.78,58L45,47.83a.17.17,0,0,0,0,.07v3.51a.46.46,0,0,0,.46.46h.47v.61l2.32,1.4v.54a2.13,2.13,0,0,0-1.14,1.88v6.35h-.31A1.09,1.09,0,0,0,46,63a1.07,1.07,0,0,0-.33.77,1.1,1.1,0,0,0,1.1,1.1h1v3a.55.55,0,0,0,.55.55h2.87a.55.55,0,0,0,.55-.55v-3h3.37V66.1h8V64.85h3.37v3a.55.55,0,0,0,.55.55h2.87A.55.55,0,0,0,70.31,68.26Z"/><path class="cls-32" d="M71,47.9v3.51a.46.46,0,0,0,.46.46h.47v.3l-1.83,1.1V46.43l1.83.83v.18h-.47A.46.46,0,0,0,71,47.9Z"/><path class="cls-32" d="M48.22,46.45v6.79l-1.77-1.07v-.3h.47a.46.46,0,0,0,.46-.46V47.9a.46.46,0,0,0-.46-.46h-.47v-.18Z"/><path class="cls-33" d="M69.63,76.31c-4.85,3.4-10.84,3.77-17.19,2.32C41.29,76.1,35.26,65.82,37,55.05c1.8-11.36,12.66-18.11,24.29-15.86a22,22,0,0,1,6.67,2.46,9.12,9.12,0,0,0,9.45-.16l.25-.16a5.58,5.58,0,0,0,.67-9,30.13,30.13,0,0,0-15.15-7.08C47.5,22.75,32.34,32.7,29,47.71,25.46,63.53,36,79,52.35,82.2a30.76,30.76,0,0,0,19.5-2.61,1.9,1.9,0,0,0,.79-2.71h0A2.12,2.12,0,0,0,69.63,76.31Z"/><path class="cls-34" d="M69.63,76.31c-4.85,3.4-10.84,3.77-17.19,2.32C41.29,76.1,35.26,65.82,37,55.05c1.8-11.36,12.66-18.11,24.29-15.86a22,22,0,0,1,6.67,2.46,9.12,9.12,0,0,0,9.45-.16l.25-.16a5.58,5.58,0,0,0,.67-9,30.13,30.13,0,0,0-15.15-7.08C47.5,22.75,32.34,32.7,29,47.71,25.46,63.53,36,79,52.35,82.2a30.76,30.76,0,0,0,19.5-2.61,1.9,1.9,0,0,0,.79-2.71h0A2.12,2.12,0,0,0,69.63,76.31Z"/><path class="cls-35" d="M36,55.52A21.5,21.5,0,0,1,61.26,39.19a22,22,0,0,1,6.67,2.46,9.12,9.12,0,0,0,9.45-.16l.25-.16a5.58,5.58,0,0,0,.67-9,30.13,30.13,0,0,0-15.15-7.08C47.5,22.75,32.34,32.7,29,47.71,25.46,63.53,36,79,52.35,82.2a30.74,30.74,0,0,0,13.32-.35C40.44,85.92,34.14,64.23,36,55.52Z"/><path class="cls-36" d="M36,55.52A21.5,21.5,0,0,1,61.26,39.19a22,22,0,0,1,6.67,2.46,9.12,9.12,0,0,0,9.45-.16l.25-.16a5.58,5.58,0,0,0,.67-9,30.13,30.13,0,0,0-15.15-7.08C47.5,22.75,32.34,32.7,29,47.71,25.46,63.53,36,79,52.35,82.2a30.74,30.74,0,0,0,13.32-.35C40.44,85.92,34.14,64.23,36,55.52Z"/><path class="cls-37" d="M44.31,37.7c11.59-4.43,19.55.18,24,3.46a7.87,7.87,0,0,0,9.06.33l.24-.16a5.58,5.58,0,0,0,.68-9,30.17,30.17,0,0,0-15.16-7.08C47.49,22.75,32.34,32.7,29,47.71a27.89,27.89,0,0,0,1.45,16.82C26.05,53.34,32.71,42.13,44.31,37.7Z"/><path class="cls-38" d="M77.25,40.32l-.24.16A7.87,7.87,0,0,1,68,40.15c-4.46-3.28-12.42-7.89-24-3.46S25.67,52.33,30.06,63.52c-.06-.16-.12-.32-.19-.48.18.5.36,1,.57,1.49-4.39-11.19,2.27-22.4,13.87-26.83s19.55.18,24,3.46a7.87,7.87,0,0,0,9.06.33l.24-.16a5.59,5.59,0,0,0,2.07-7.15A5.6,5.6,0,0,1,77.25,40.32Z"/><path class="cls-39" d="M77.83,73.69a2.08,2.08,0,0,1-1.31,2.67,2.19,2.19,0,0,1-2.77-1.26,2.09,2.09,0,0,1,1.31-2.68A2.19,2.19,0,0,1,77.83,73.69Z"/><path class="cls-40" d="M69.63,76.31c-4.85,3.4-10.84,3.77-17.19,2.32A19.72,19.72,0,0,1,38.09,66.35a19.76,19.76,0,0,0,14.6,13C59,80.75,65,80.38,69.88,77a2.12,2.12,0,0,1,3,.58v0a1.71,1.71,0,0,0-.26-.7A2.12,2.12,0,0,0,69.63,76.31Z"/><path class="cls-41" d="M81.15,69.77a1.52,1.52,0,0,1-1,2,1.6,1.6,0,0,1-2-.93,1.52,1.52,0,0,1,1-2A1.6,1.6,0,0,1,81.15,69.77Z"/><ellipse class="cls-42" cx="82.14" cy="66.76" rx="1.02" ry="0.99"/><path class="cls-43" d="M36,55.52A21.18,21.18,0,0,1,49.49,40.14,21.23,21.23,0,0,0,35.2,55.8c-1.83,8.51,4.13,29.38,27.88,26.58.88-.14,1.74-.32,2.59-.53C40.44,85.92,34.14,64.23,36,55.52Z"/></g></g></g></svg>