<svg xmlns="http://www.w3.org/2000/svg" xmlns:xlink="http://www.w3.org/1999/xlink" viewBox="0 0 111.66 239.37"><defs><style>.cls-1{isolation:isolate;}.cls-15,.cls-2,.cls-33{fill:#fff;}.cls-3,.cls-55{fill:#ff8000;}.cls-4{fill:#5b575e;}.cls-5{fill:#665c7a;}.cls-6{fill:#534b64;}.cls-7{fill:#f5b510;}.cls-8{fill:#fac911;}.cls-9{fill:#f8e618;}.cls-10{fill:#ebdf9f;}.cls-10,.cls-18,.cls-19,.cls-43,.cls-45,.cls-47{mix-blend-mode:multiply;}.cls-11{fill:#7dcdce;}.cls-12{fill:#f88011;}.cls-13{fill:#e3bf14;}.cls-14{fill:#4ab2ac;}.cls-15{opacity:0.09;}.cls-16{fill:#fcfcfc;}.cls-17{fill:#e5e5e5;}.cls-18,.cls-19{fill:#c1c0c6;}.cls-18{opacity:0.7;}.cls-20{fill:url(#Degradado_sin_nombre_35);}.cls-21{fill:#151616;}.cls-22{fill:url(#Degradado_sin_nombre_35-2);}.cls-23{fill:#515151;}.cls-24{fill:url(#Degradado_sin_nombre_35-3);}.cls-25{font-size:4.49px;fill:#bfc1bf;}.cls-25,.cls-34{font-family:OpenSans, OpenSans;}.cls-26{letter-spacing:-0.01em;}.cls-27{letter-spacing:0em;}.cls-28{letter-spacing:-0.01em;}.cls-29{letter-spacing:0em;}.cls-30{letter-spacing:0em;}.cls-31{letter-spacing:0em;}.cls-32{letter-spacing:-0.01em;}.cls-33{font-size:4.5px;font-family:OpenSans-Bold, Open Sans;letter-spacing:0.05em;}.cls-33,.cls-55{font-weight:700;}.cls-34{font-size:4px;}.cls-35{letter-spacing:0em;}.cls-36{letter-spacing:-0.01em;}.cls-37{letter-spacing:-0.01em;}.cls-38{letter-spacing:0em;}.cls-39{letter-spacing:0em;}.cls-40{letter-spacing:-0.01em;}.cls-41{letter-spacing:0em;}.cls-42{fill:none;stroke:#fff;stroke-miterlimit:10;stroke-width:0.25px;}.cls-43{opacity:0.4;fill:url(#Degradado_sin_nombre_43);}.cls-44{fill:url(#Degradado_sin_nombre_19);}.cls-45,.cls-47{opacity:0.6;}.cls-45{fill:url(#Degradado_sin_nombre_44);}.cls-46{fill:url(#Degradado_sin_nombre_13);}.cls-47{fill:url(#Degradado_sin_nombre_44-2);}.cls-48{fill:url(#Degradado_sin_nombre_30);}.cls-49{fill:url(#Degradado_sin_nombre_49);}.cls-50{fill:url(#Degradado_sin_nombre_19-2);}.cls-51{fill:url(#Degradado_sin_nombre_69);}.cls-52{fill:url(#Degradado_sin_nombre_19-3);}.cls-53{fill:url(#Degradado_sin_nombre_19-4);}.cls-54{fill:url(#Degradado_sin_nombre_61);}.cls-55{font-size:14.63px;font-family:AntipastoPro-ExtraBold, Antipasto Pro;}.cls-56{font-size:3px;font-family:Poppins-Regular, Poppins;letter-spacing:0.5em;}.cls-57{fill:#d1d1db;}</style><linearGradient id="Degradado_sin_nombre_35" x1="34.06" y1="197.56" x2="81.6" y2="197.56" gradientUnits="userSpaceOnUse"><stop offset="0" stop-color="#00bcef"/><stop offset="0.3" stop-color="#03beef"/><stop offset="0.52" stop-color="#0cc6f0"/><stop offset="0.71" stop-color="#1cd3f0"/><stop offset="0.89" stop-color="#33e4f1"/><stop offset="1" stop-color="#44f2f2"/></linearGradient><linearGradient id="Degradado_sin_nombre_35-2" x1="16.64" y1="146.29" x2="30.23" y2="146.29" xlink:href="#Degradado_sin_nombre_35"/><linearGradient id="Degradado_sin_nombre_35-3" x1="16.64" y1="164.86" x2="30.23" y2="164.86" xlink:href="#Degradado_sin_nombre_35"/><radialGradient id="Degradado_sin_nombre_43" cx="50.32" cy="108.25" r="16.34" gradientTransform="translate(12.14 66.11) scale(1 0.07)" gradientUnits="userSpaceOnUse"><stop offset="0.11" stop-color="#666"/><stop offset="0.29" stop-color="#7c7c7c" stop-opacity="0.85"/><stop offset="0.63" stop-color="#b7b7b7" stop-opacity="0.47"/><stop offset="1" stop-color="#fff" stop-opacity="0"/></radialGradient><linearGradient id="Degradado_sin_nombre_19" x1="26.58" y1="156.18" x2="56.69" y2="156.18" gradientTransform="translate(-30.25 -76.6) rotate(-19.68)" gradientUnits="userSpaceOnUse"><stop offset="0" stop-color="#dc70c8"/><stop offset="1" stop-color="#af70f0"/></linearGradient><linearGradient id="Degradado_sin_nombre_44" x1="41.6" y1="151.63" x2="41.9" y2="168.04" gradientTransform="translate(-30.25 -76.6) rotate(-19.68)" xlink:href="#Degradado_sin_nombre_43"/><linearGradient id="Degradado_sin_nombre_13" x1="43.02" y1="146.07" x2="38.97" y2="164.94" gradientTransform="translate(-30.25 -76.6) rotate(-19.68)" gradientUnits="userSpaceOnUse"><stop offset="0" stop-color="#6b4c9d"/><stop offset="1" stop-color="#6d7de5"/></linearGradient><linearGradient id="Degradado_sin_nombre_44-2" x1="49.66" y1="151.77" x2="34.08" y2="158.74" gradientTransform="translate(-30.25 -76.6) rotate(-19.68)" xlink:href="#Degradado_sin_nombre_43"/><linearGradient id="Degradado_sin_nombre_30" x1="26.58" y1="148.65" x2="56.69" y2="148.65" gradientTransform="translate(-30.25 -76.6) rotate(-19.68)" gradientUnits="userSpaceOnUse"><stop offset="0" stop-color="#73a9fa"/><stop offset="1" stop-color="#87f1fc"/></linearGradient><linearGradient id="Degradado_sin_nombre_49" x1="26.58" y1="150.79" x2="56.68" y2="150.79" gradientTransform="translate(-30.25 -76.6) rotate(-19.68)" gradientUnits="userSpaceOnUse"><stop offset="0" stop-color="#85ebfd"/><stop offset="1" stop-color="#87f1fc" stop-opacity="0"/></linearGradient><linearGradient id="Degradado_sin_nombre_19-2" x1="47.76" y1="168.52" x2="47.2" y2="171.08" xlink:href="#Degradado_sin_nombre_19"/><linearGradient id="Degradado_sin_nombre_69" x1="35.3" y1="164.45" x2="44.73" y2="165.87" gradientTransform="translate(-30.25 -76.6) rotate(-19.68)" gradientUnits="userSpaceOnUse"><stop offset="0" stop-color="#e697f1"/><stop offset="0.99" stop-color="#af70f0" stop-opacity="0"/></linearGradient><linearGradient id="Degradado_sin_nombre_19-3" x1="50.3" y1="167.39" x2="50.08" y2="169.14" xlink:href="#Degradado_sin_nombre_19"/><linearGradient id="Degradado_sin_nombre_19-4" x1="52.15" y1="166.45" x2="51.93" y2="167.61" xlink:href="#Degradado_sin_nombre_19"/><linearGradient id="Degradado_sin_nombre_61" x1="34.46" y1="167.23" x2="38.55" y2="149.64" gradientTransform="translate(-30.25 -76.6) rotate(-19.68)" gradientUnits="userSpaceOnUse"><stop offset="0" stop-color="#95a5f8"/><stop offset="1" stop-color="#6d7de5" stop-opacity="0"/></linearGradient></defs><title>GDFRecurso 7MICOSCOLOR</title><g class="cls-1"><g id="Capa_2" data-name="Capa 2"><g id="Capas"><path class="cls-2" d="M111.66,11.85V227.52a11.84,11.84,0,0,1-11.85,11.85h-88A11.85,11.85,0,0,1,0,227.52V11.85A11.86,11.86,0,0,1,11.85,0H25.68V4a6,6,0,0,0,6,6H80a6,6,0,0,0,6-6V0H99.81A11.85,11.85,0,0,1,111.66,11.85Z"/><path class="cls-3" d="M75.65,56.88a13,13,0,1,1-13-13A13,13,0,0,1,75.65,56.88Z"/><rect class="cls-4" x="56.74" y="60.84" width="2.11" height="3.07" rx="0.29" ry="0.29"/><rect class="cls-4" x="66.69" y="60.84" width="2.11" height="3.07" rx="0.29" ry="0.29"/><polygon class="cls-5" points="68.42 56.31 68.27 56.06 69.55 55.29 69.55 52.68 68.29 52.1 68.41 51.84 69.84 52.49 69.84 55.45 68.42 56.31"/><rect class="cls-6" x="69.05" y="52.78" width="1.28" height="2.35" rx="0.24" ry="0.24"/><polygon class="cls-5" points="57.15 56.31 55.74 55.45 55.74 52.49 57.16 51.84 57.29 52.1 56.03 52.68 56.03 55.29 57.3 56.06 57.15 56.31"/><rect class="cls-6" x="55.24" y="52.78" width="1.28" height="2.35" rx="0.24" ry="0.24"/><rect class="cls-7" x="56.97" y="51.97" width="11.6" height="6.43"/><rect class="cls-8" x="57.49" y="56.36" width="10.57" height="5.65"/><path class="cls-9" d="M58.61,57.48V62H56.36V57.48a1.13,1.13,0,0,1,1.13-1.12,1.08,1.08,0,0,1,.79.33A1.12,1.12,0,0,1,58.61,57.48Z"/><path class="cls-9" d="M69.18,57.48V62H66.93V57.48a1.13,1.13,0,0,1,1.13-1.12,1.08,1.08,0,0,1,.79.33A1.12,1.12,0,0,1,69.18,57.48Z"/><path class="cls-10" d="M67.13,56.85a1.05,1.05,0,0,0-.2.63V62h-.56v-4.1A1.12,1.12,0,0,1,67.13,56.85Z"/><path class="cls-11" d="M69.93,61.44a.59.59,0,0,1-.59.59H56.2a.58.58,0,0,1-.58-.59.57.57,0,0,1,.17-.41.55.55,0,0,1,.41-.17H69.34A.59.59,0,0,1,69.93,61.44Z"/><path class="cls-7" d="M68.57,52c0,1-2.59,1.74-5.8,1.74S57,52.93,57,52s2.6-1.74,5.8-1.74S68.57,51,68.57,52Z"/><path class="cls-2" d="M58.23,57.64a.75.75,0,1,1-.74-.75A.75.75,0,0,1,58.23,57.64Z"/><path class="cls-12" d="M58,59.09a.52.52,0,0,1-.52.52.53.53,0,1,1,0-1A.52.52,0,0,1,58,59.09Z"/><path class="cls-12" d="M68.58,59.09a.53.53,0,1,1-.52-.53A.52.52,0,0,1,68.58,59.09Z"/><path class="cls-2" d="M68.8,57.64a.75.75,0,1,1-.74-.75A.75.75,0,0,1,68.8,57.64Z"/><rect class="cls-13" x="59.38" y="57.48" width="6.79" height="2.76"/><polygon class="cls-10" points="66.17 57.48 66.17 60.24 65.73 60.24 65.73 57.91 59.38 57.91 59.38 57.48 66.17 57.48"/><rect class="cls-14" x="57.75" y="53" width="4.64" height="2.7"/><rect class="cls-14" x="63.21" y="53" width="4.65" height="2.7"/><polygon class="cls-15" points="67.85 53 67.85 55.7 63.21 53 67.85 53"/><polygon class="cls-15" points="62.38 53 62.38 55.7 57.74 53 62.38 53"/><rect class="cls-16" x="60.2" y="51.27" width="5.14" height="1"/><rect class="cls-17" x="60.64" y="61.6" width="4.26" height="1.1"/><path class="cls-18" d="M68.7,63.84l-6,6h0A12.94,12.94,0,0,1,49.83,58.4L55.25,53a.08.08,0,0,0,0,0v1.86a.25.25,0,0,0,.24.25h.25v.32L57,56.2v.29a1.11,1.11,0,0,0-.61,1v3.38H56.2a.55.55,0,0,0-.41.17.56.56,0,0,0-.18.41.59.59,0,0,0,.59.59h.54v1.59a.29.29,0,0,0,.29.29h1.53a.29.29,0,0,0,.29-.29V62h1.79v.66H64.9V62h1.79v1.59a.29.29,0,0,0,.3.29h1.52A.32.32,0,0,0,68.7,63.84Z"/><path class="cls-19" d="M69.05,53v1.86a.25.25,0,0,0,.24.25h.25v.16l-1,.59V52.24l1,.44v.1h-.25A.24.24,0,0,0,69.05,53Z"/><path class="cls-19" d="M57,52.25v3.61L56,55.29v-.16h.25a.25.25,0,0,0,.24-.25V53a.24.24,0,0,0-.24-.24H56v-.1Z"/><rect class="cls-20" x="34.06" y="190.76" width="47.54" height="13.59" rx="2" ry="2"/><path class="cls-2" d="M74.23,120.25A14.2,14.2,0,1,1,60,106.05,14.12,14.12,0,0,1,74.23,120.25Z"/><path class="cls-21" d="M71.05,129.2a14.18,14.18,0,0,1-22,0,2.6,2.6,0,0,1,1.11-.9L55.67,126a1.76,1.76,0,0,0,1.08-1.62v-1.08a9.08,9.08,0,0,1-1.87-3.68.57.57,0,0,1-.48-.38l-.72-2a.6.6,0,0,1,.38-.78l.26-.08c-.28-4.09,1.53-6.07,5.68-6.08s6,2,5.68,6.08v0l.33.11a.59.59,0,0,1,.38.78l-.71,2a.6.6,0,0,1-.56.39,9.29,9.29,0,0,1-1.79,3.59v1.16A1.75,1.75,0,0,0,64.4,126L70,128.3A2.63,2.63,0,0,1,71.05,129.2Z"/><path class="cls-22" d="M18.64,139.5H30.23a0,0,0,0,1,0,0v13.59a0,0,0,0,1,0,0H18.64a2,2,0,0,1-2-2V141.5A2,2,0,0,1,18.64,139.5Z"/><path class="cls-23" d="M30.23,139.5H94.85a2,2,0,0,1,2,2v9.59a2,2,0,0,1-2,2H30.23a0,0,0,0,1,0,0V139.5A0,0,0,0,1,30.23,139.5Z"/><path class="cls-2" d="M24.46,145.87a2,2,0,1,0-2.06,0,2.87,2.87,0,0,0-1.84,2.68v1.85h5.75v-1.85A2.86,2.86,0,0,0,24.46,145.87Z"/><path class="cls-24" d="M18.64,158.06H30.23a0,0,0,0,1,0,0v13.59a0,0,0,0,1,0,0H18.64a2,2,0,0,1-2-2v-9.59A2,2,0,0,1,18.64,158.06Z"/><path class="cls-23" d="M30.23,158.06H94.85a2,2,0,0,1,2,2v9.59a2,2,0,0,1-2,2H30.23a0,0,0,0,1,0,0V158.06A0,0,0,0,1,30.23,158.06Z"/><path class="cls-2" d="M26.09,163.87v-.46a2.66,2.66,0,0,0-5.31,0v.46h-.56V169h6.43v-5.09Zm-2.42,2.31v1.42a.24.24,0,0,1-.24.24.24.24,0,0,1-.24-.24v-1.42a.63.63,0,0,1-.37-.57.61.61,0,0,1,.61-.62.62.62,0,0,1,.62.62A.64.64,0,0,1,23.67,166.18Zm1.68-2.31H21.52v-.46a1.92,1.92,0,0,1,3.83,0Z"/><text class="cls-25" transform="translate(36.2 147.61)"><tspan class="cls-26">U</tspan><tspan x="2.88" y="0">sua</tspan><tspan class="cls-27" x="9.29" y="0">r</tspan><tspan x="10.78" y="0">io</tspan></text><text class="cls-25" transform="translate(36.2 166.21)"><tspan class="cls-28">C</tspan><tspan class="cls-29" x="2.55" y="0">o</tspan><tspan class="cls-30" x="5.02" y="0">n</tspan><tspan class="cls-31" x="7.49" y="0">t</tspan><tspan class="cls-32" x="8.98" y="0">r</tspan><tspan x="10.42" y="0">aseña</tspan></text><text class="cls-33" transform="translate(38.76 199.33)">INICIAR SESIÓN</text><text class="cls-34" transform="translate(25.35 180.54)"><tspan class="cls-35">R</tspan><tspan x="2.17" y="0">ecué</tspan><tspan class="cls-36" x="10.17" y="0">r</tspan><tspan x="11.44" y="0">dame</tspan></text><text class="cls-34" transform="translate(60.2 180.54)">¿Olvidas<tspan class="cls-37" x="13.95" y="0">t</tspan><tspan x="15.25" y="0">e tu </tspan><tspan class="cls-37" x="22.48" y="0">c</tspan><tspan class="cls-38" x="24.25" y="0">o</tspan><tspan class="cls-39" x="26.44" y="0">n</tspan><tspan x="28.65" y="0">t</tspan><tspan class="cls-40" x="29.97" y="0">r</tspan><tspan class="cls-41" x="31.26" y="0">aseña?</tspan></text><rect class="cls-21" x="16.64" y="177.62" width="4.34" height="4.34"/><polyline class="cls-42" points="17.78 179.79 18.45 180.56 20.22 178.79"/><ellipse class="cls-43" cx="62.46" cy="73.27" rx="17.25" ry="1.35"/><path class="cls-44" d="M68.34,68.11c-2.57,1.81-5.76,2-9.13,1.24A10.75,10.75,0,0,1,51,56.82c1-6,6.73-9.63,12.91-8.43a11.64,11.64,0,0,1,3.54,1.31,4.82,4.82,0,0,0,5-.09l.13-.08A3,3,0,0,0,73,44.77a16.11,16.11,0,0,0-26.2,8.15A15.39,15.39,0,0,0,59.16,71.24a16.28,16.28,0,0,0,10.36-1.38A1,1,0,0,0,70,68.42h0A1.14,1.14,0,0,0,68.34,68.11Z"/><path class="cls-45" d="M68.34,68.11c-2.57,1.81-5.76,2-9.13,1.24A10.75,10.75,0,0,1,51,56.82c1-6,6.73-9.63,12.91-8.43a11.64,11.64,0,0,1,3.54,1.31,4.82,4.82,0,0,0,5-.09l.13-.08A3,3,0,0,0,73,44.77a16.11,16.11,0,0,0-26.2,8.15A15.39,15.39,0,0,0,59.16,71.24a16.28,16.28,0,0,0,10.36-1.38A1,1,0,0,0,70,68.42h0A1.14,1.14,0,0,0,68.34,68.11Z"/><path class="cls-46" d="M50.48,57.07A11.43,11.43,0,0,1,63.9,48.39a11.64,11.64,0,0,1,3.54,1.31,4.82,4.82,0,0,0,5-.09l.13-.08A3,3,0,0,0,73,44.77a16.11,16.11,0,0,0-26.2,8.15A15.39,15.39,0,0,0,59.16,71.24a16.36,16.36,0,0,0,7.08-.18C52.84,73.22,49.49,61.7,50.48,57.07Z"/><path class="cls-47" d="M50.48,57.07A11.43,11.43,0,0,1,63.9,48.39a11.64,11.64,0,0,1,3.54,1.31,4.82,4.82,0,0,0,5-.09l.13-.08A3,3,0,0,0,73,44.77a16.11,16.11,0,0,0-26.2,8.15A15.39,15.39,0,0,0,59.16,71.24a16.36,16.36,0,0,0,7.08-.18C52.84,73.22,49.49,61.7,50.48,57.07Z"/><path class="cls-48" d="M54.89,47.6a12.58,12.58,0,0,1,12.76,1.84,4.17,4.17,0,0,0,4.81.17l.13-.08A3,3,0,0,0,73,44.77a16.12,16.12,0,0,0-26.2,8.15,14.89,14.89,0,0,0,.77,8.94C45.19,55.91,48.73,50,54.89,47.6Z"/><path class="cls-49" d="M72.39,49l-.13.09a4.18,4.18,0,0,1-4.81-.18,12.58,12.58,0,0,0-12.76-1.84c-6.16,2.36-9.7,8.32-7.37,14.26,0-.09-.07-.17-.1-.26.09.27.19.54.3.8-2.33-6,1.21-11.91,7.37-14.26a12.58,12.58,0,0,1,12.76,1.84,4.17,4.17,0,0,0,4.81.17l.13-.08a3,3,0,0,0,1.1-3.8A3,3,0,0,1,72.39,49Z"/><path class="cls-50" d="M72.7,66.72a1.1,1.1,0,0,1-.7,1.42,1.15,1.15,0,0,1-1.46-.67,1.09,1.09,0,0,1,.69-1.42A1.15,1.15,0,0,1,72.7,66.72Z"/><path class="cls-51" d="M68.34,68.11c-2.57,1.81-5.76,2-9.13,1.24a10.44,10.44,0,0,1-7.62-6.53,10.49,10.49,0,0,0,7.75,6.89c3.38.76,6.56.57,9.14-1.24a1.13,1.13,0,0,1,1.6.31h0a1,1,0,0,0-.13-.37A1.14,1.14,0,0,0,68.34,68.11Z"/><path class="cls-52" d="M74.46,64.64a.8.8,0,0,1-.5,1,.86.86,0,0,1-1.08-.49.81.81,0,0,1,.51-1A.84.84,0,0,1,74.46,64.64Z"/><ellipse class="cls-53" cx="74.99" cy="63.04" rx="0.54" ry="0.52"/><path class="cls-54" d="M50.48,57.07a11.28,11.28,0,0,1,7.16-8.17,11.25,11.25,0,0,0-7.59,8.32c-1,4.52,2.2,15.61,14.82,14.12.46-.07.92-.17,1.37-.28C52.84,73.22,49.49,61.7,50.48,57.07Z"/><text class="cls-55" transform="translate(21.5 62.35)">Bac</text><text class="cls-56" transform="translate(20.2 86.18)">A SER SOLUCIONES PRODUCT</text><path class="cls-57" d="M107.17,81.69H9a.26.26,0,0,0-.26.26h0A.26.26,0,0,0,9,82.2h98.15a.25.25,0,0,0,.25-.25h0A.26.26,0,0,0,107.17,81.69Z"/><text class="cls-55" transform="translate(76.48 62.35)">u</text></g></g></g></svg>