<svg xmlns="http://www.w3.org/2000/svg" xmlns:xlink="http://www.w3.org/1999/xlink" viewBox="0 0 111.68 240.21"><defs><style>.cls-1{isolation:isolate;}.cls-2,.cls-9{fill:#fff;}.cls-3{fill:url(#Degradado_sin_nombre_53);}.cls-4{fill:#ebebeb;}.cls-5{fill:#a3d220;}.cls-6{fill:#f76018;}.cls-7{fill:#e0bfa3;opacity:0.93;}.cls-14,.cls-7{mix-blend-mode:multiply;}.cls-8{fill:#604b3b;}.cls-9{opacity:0.25;}.cls-10{fill:#3fafad;}.cls-11{fill:#359b97;}.cls-12{fill:#665c7a;}.cls-13{fill:#534b64;}.cls-14{fill:#d3d5d7;}.cls-15{font-size:11.5px;}.cls-15,.cls-24{font-family:AntipastoPro-ExtraBold, Antipasto Pro;font-weight:700;}.cls-16{letter-spacing:-0.02em;}.cls-17{letter-spacing:0em;}.cls-18{font-size:7px;fill:#009eff;font-family:MyriadPro-LightSemiExt, MyriadPro LightSemiExt;}.cls-19{letter-spacing:0em;}.cls-20{letter-spacing:-0.01em;}.cls-21{letter-spacing:0em;}.cls-22{letter-spacing:0em;}.cls-23{letter-spacing:0em;}.cls-24{font-size:21px;fill:#ff8000;}</style><linearGradient id="Degradado_sin_nombre_53" y1="187.71" x2="111.68" y2="187.71" gradientUnits="userSpaceOnUse"><stop offset="0" stop-color="#e0631e"/><stop offset="0.21" stop-color="#e16a28"/><stop offset="0.57" stop-color="#e57b41"/><stop offset="1" stop-color="#ea9668"/></linearGradient></defs><title>GDFRecurso 6MICOSCOLOR</title><g class="cls-1"><g id="Capa_2" data-name="Capa 2"><g id="OBJECTS"><path class="cls-2" d="M111.67,11.85V227.52a11.84,11.84,0,0,1-11.85,11.85h-88A11.85,11.85,0,0,1,0,227.52V11.85A11.86,11.86,0,0,1,11.86,0H25.69V4a6,6,0,0,0,6,6H80a6,6,0,0,0,6-6V0H99.82A11.85,11.85,0,0,1,111.67,11.85Z"/><path class="cls-3" d="M0,230.79V154.9A78.42,78.42,0,0,1,31.9,138a84.08,84.08,0,0,1,38.15-1.05,78.57,78.57,0,0,1,37.45,18.94q2.19,2,4.18,4.16v70.78a9,9,0,0,1-2.72,6.39,10.76,10.76,0,0,1-7.58,3H10.3c-.35,0-.7,0-1-.05h0c-5.2-.48-9.25-4.5-9.25-9.37"/><path class="cls-4" d="M67,131.47H55.37c-1,0-1.91-1.17-1.91-2.61a3.13,3.13,0,0,1,.6-1.88,1.67,1.67,0,0,1,1.31-.72H67a2.57,2.57,0,0,0-.5.49,3.52,3.52,0,0,0-.67,2.11A3.22,3.22,0,0,0,67,131.47Z"/><path class="cls-5" d="M57.52,115.72A4.64,4.64,0,0,0,50.88,114a4.66,4.66,0,0,0,6.64,1.69Z"/><path class="cls-6" d="M51.85,122.32a5.14,5.14,0,0,0,5.51,3.4,5.13,5.13,0,0,0,5.52-3.4,5,5,0,0,0-2.67-6.58,4.57,4.57,0,0,0-2.85-.13,4.54,4.54,0,0,0-2.84.13A5,5,0,0,0,51.85,122.32Z"/><path class="cls-7" d="M51.85,122.32a5.14,5.14,0,0,0,5.51,3.4A5,5,0,0,0,62,123.86a4.78,4.78,0,0,1-1.44.73c-1.23.29-3-.52-4-1-1.35-.65-3-.24-3.64-1.88a4.43,4.43,0,0,1,.42-4.11c.52-.75.9-.83,1.55-1.47.19-.19,1-.48.85-.68a4.6,4.6,0,0,0-1.18.28A5,5,0,0,0,51.85,122.32Z"/><path class="cls-8" d="M56.31,112.76c.55.7,1.37,1.86.8,2.76-.31.48.18.78.48.29.81-1.28.17-2.66-.69-3.74-.26-.34-.82.41-.59.69Z"/><path class="cls-9" d="M60.08,119.2c.5,1,1.35,1.69,1.89,1.43s.57-1.32.06-2.37-1.35-1.69-1.89-1.43S59.57,118.15,60.08,119.2Z"/><path class="cls-10" d="M68.05,131.47l0,.76H55.37a2.26,2.26,0,0,1-1.24-.38,2.8,2.8,0,0,1-.46-.39,4,4,0,0,1-.22-5,1.88,1.88,0,0,1,.22-.26,2.32,2.32,0,0,1,.46-.38,2.24,2.24,0,0,1,1.24-.39H68.09l0,.76H55.37a1.67,1.67,0,0,0-1.31.72,3.13,3.13,0,0,0-.6,1.88c0,1.44.86,2.61,1.91,2.61Z"/><path class="cls-11" d="M54.13,131.86a2.26,2.26,0,0,0,1.24.38H48.7c-1.47,0-2.67-1.52-2.67-3.38s1.2-3.37,2.67-3.37h6.67a2.24,2.24,0,0,0-1.24.39,2.32,2.32,0,0,0-.46.38,1.88,1.88,0,0,0-.22.26,4,4,0,0,0,.22,5A2.8,2.8,0,0,0,54.13,131.86Z"/><path class="cls-4" d="M68.63,138.22H57.06c-1.05,0-1.9-1.17-1.9-2.6a3.15,3.15,0,0,1,.59-1.89,1.65,1.65,0,0,1,1.31-.72H68.62a2.53,2.53,0,0,0-.49.49,3.46,3.46,0,0,0-.67,2.12A3.2,3.2,0,0,0,68.63,138.22Z"/><path class="cls-12" d="M69.71,138.22V139H57.06a2.22,2.22,0,0,1-1.24-.39,2.67,2.67,0,0,1-.45-.38,3.75,3.75,0,0,1-1-2.6,4,4,0,0,1,.75-2.36,2.62,2.62,0,0,1,.22-.25,2.5,2.5,0,0,1,.47-.39,2.2,2.2,0,0,1,1.23-.38H69.7V133H57.06a1.65,1.65,0,0,0-1.31.72,3.15,3.15,0,0,0-.59,1.89c0,1.43.85,2.6,1.9,2.6Z"/><path class="cls-13" d="M55.82,138.6a2.22,2.22,0,0,0,1.24.39H44.64c-1.47,0-2.67-1.51-2.67-3.37s1.2-3.38,2.67-3.38H57.06a2.2,2.2,0,0,0-1.23.38,2.5,2.5,0,0,0-.47.39,2.62,2.62,0,0,0-.22.25,4,4,0,0,0-.75,2.36,3.75,3.75,0,0,0,1,2.6A2.67,2.67,0,0,0,55.82,138.6Z"/><path class="cls-14" d="M52.39,131.47H51.2a4.84,4.84,0,0,1,0-5.21h1.18a4.82,4.82,0,0,0,0,5.21Z"/><path class="cls-14" d="M50.19,131.47H48.25a3,3,0,0,1-1.09-2.59,3.32,3.32,0,0,1,1.08-2.6h1.95a4.84,4.84,0,0,0,0,5.21Z"/><path class="cls-14" d="M48.05,138.22h-3c-1,0-1.9-1.19-1.9-2.6S44,133,45.05,133h3a4.84,4.84,0,0,0,0,5.21Z"/><path class="cls-14" d="M53.46,138.22H50.78a4.65,4.65,0,0,1-.76-2.6,4.78,4.78,0,0,1,.75-2.61h2.69a4.84,4.84,0,0,0,0,5.21Z"/><path class="cls-14" d="M67,126.26a2.57,2.57,0,0,0-.5.49,3.47,3.47,0,0,0-.65,1.71l-3,3H55.38c-1.05,0-1.91-1.17-1.91-2.6a3.13,3.13,0,0,1,.6-1.89,1.67,1.67,0,0,1,1.31-.72Z"/><path class="cls-14" d="M68.64,133a2.32,2.32,0,0,0-.5.49,3.36,3.36,0,0,0-.65,1.74l-3,3H57.07c-1,0-1.9-1.17-1.9-2.6a3.15,3.15,0,0,1,.59-1.89,1.68,1.68,0,0,1,1.31-.72Z"/><text class="cls-15" transform="translate(30.26 31.32)">Bien<tspan class="cls-16" x="21.48" y="0">v</tspan><tspan class="cls-17" x="26.76" y="0">enido</tspan></text><text class="cls-18" transform="translate(29.43 77.15)"><tspan class="cls-19">C<tspan class="cls-20" x="4.04" y="0">r</tspan><tspan class="cls-21" x="6.26" y="0">ea tu usua</tspan><tspan class="cls-22" x="36.14" y="0">r</tspan><tspan class="cls-23" x="38.46" y="0">io en</tspan></tspan><tspan x="4.87" y="8.4">sencillos pasos</tspan></text><text class="cls-24" transform="translate(22.13 48.55)">a Baccu</text></g></g></g></svg>