<svg xmlns="http://www.w3.org/2000/svg" viewBox="0 0 4.76 4.76"><defs><style>.cls-1{fill:#ff8000;}</style></defs><title>GDFRecurso 2MICOSCOLOR</title><g id="Capa_2" data-name="Capa 2"><g id="Capa_1-2" data-name="Capa 1"><path class="cls-1" d="M1.55,2.38a.72.72,0,0,0,.07.33A.76.76,0,0,0,1.8,3a1,1,0,0,0,.26.18.87.87,0,0,0,.32.06.83.83,0,0,0,.32-.06A1.06,1.06,0,0,0,3,3a.76.76,0,0,0,.18-.26.88.88,0,0,0,.07-.33.88.88,0,0,0-.07-.32A.68.68,0,0,0,3,1.8a.71.71,0,0,0-.27-.18.68.68,0,0,0-.32-.07.71.71,0,0,0-.32.07.68.68,0,0,0-.26.18.68.68,0,0,0-.18.26A.71.71,0,0,0,1.55,2.38ZM0,2.38a2.17,2.17,0,0,1,.19-.92A2.67,2.67,0,0,1,.7.7,2.31,2.31,0,0,1,1.46.19,2.23,2.23,0,0,1,2.38,0,2.36,2.36,0,0,1,3.3.18a2.49,2.49,0,0,1,.75.51,2.17,2.17,0,0,1,.51.75,2.32,2.32,0,0,1,.2.91V3.92a.73.73,0,0,1-.06.3.81.81,0,0,1-.42.42A.81.81,0,0,1,4,4.7a.83.83,0,0,1-.32-.06.69.69,0,0,1-.24-.18,2.38,2.38,0,0,1-.49.22,1.91,1.91,0,0,1-.54.08,2.23,2.23,0,0,1-.92-.19A2.31,2.31,0,0,1,.7,4.06a2.49,2.49,0,0,1-.51-.75A2.24,2.24,0,0,1,0,2.38Z"/></g></g></svg>