<svg xmlns="http://www.w3.org/2000/svg" viewBox="0 0 4.76 6.45"><defs><style>.cls-1{fill:#ff8000;}</style></defs><title>GDFRecurso 1MICOSCOLOR</title><g id="Capa_2" data-name="Capa 2"><g id="Capa_1-2" data-name="Capa 1"><path class="cls-1" d="M1.54,5.63a.73.73,0,0,1-.06.3.6.6,0,0,1-.16.24.6.6,0,0,1-.25.16.73.73,0,0,1-.3.06.73.73,0,0,1-.3-.06.67.67,0,0,1-.25-.16.6.6,0,0,1-.16-.24A.73.73,0,0,1,0,5.63V.76A.73.73,0,0,1,.06.46.78.78,0,0,1,.22.22.82.82,0,0,1,.47.06.73.73,0,0,1,.77,0a.73.73,0,0,1,.3.06.72.72,0,0,1,.25.16.78.78,0,0,1,.16.24.73.73,0,0,1,.06.3ZM0,4.07a2.2,2.2,0,0,1,.19-.92A2.54,2.54,0,0,1,.7,2.39a2.31,2.31,0,0,1,.76-.51,2.23,2.23,0,0,1,.92-.19,2.24,2.24,0,0,1,.93.19,2.17,2.17,0,0,1,.75.51,2.21,2.21,0,0,1,.51.76,2.2,2.2,0,0,1,.19.92A2.2,2.2,0,0,1,4.57,5a2.21,2.21,0,0,1-.51.76,2.32,2.32,0,0,1-.75.51,2.41,2.41,0,0,1-.93.19,2.4,2.4,0,0,1-.92-.19A2.48,2.48,0,0,1,.7,5.75,2.54,2.54,0,0,1,.19,5,2.2,2.2,0,0,1,0,4.07Zm1.55,0a.68.68,0,0,0,.07.32.8.8,0,0,0,.18.27.78.78,0,0,0,.26.17.71.71,0,0,0,.32.07.68.68,0,0,0,.32-.07A.83.83,0,0,0,3,4.66a.8.8,0,0,0,.18-.27.77.77,0,0,0,0-.64A.8.8,0,0,0,3,3.48a.83.83,0,0,0-.27-.17.68.68,0,0,0-.32-.07.71.71,0,0,0-.32.07.78.78,0,0,0-.26.17.8.8,0,0,0-.18.27A.68.68,0,0,0,1.55,4.07Z"/></g></g></svg>