<svg xmlns="http://www.w3.org/2000/svg" viewBox="0 0 4.4 4.77"><defs><style>.cls-1{fill:#ff8000;fill-rule:evenodd;}</style></defs><title>GDFRecurso 3MICOSCOLOR</title><g id="Capa_2" data-name="Capa 2"><g id="Capa_1-2" data-name="Capa 1"><path class="cls-1" d="M2.32,1.57a.53.53,0,0,0-.3.09.87.87,0,0,0-.23.2.84.84,0,0,0-.15.26.66.66,0,0,0-.06.27.74.74,0,0,0,.06.27.79.79,0,0,0,.15.25.87.87,0,0,0,.23.2.53.53,0,0,0,.3.09h.14l.15,0a.44.44,0,0,0,.15,0l.17-.09.25-.18a1.08,1.08,0,0,1,.29-.13.7.7,0,0,1,.32,0,.73.73,0,0,1,.36.2.61.61,0,0,1,.19.26.6.6,0,0,1,0,.3.7.7,0,0,1-.07.31.83.83,0,0,1-.2.3,2.1,2.1,0,0,1-.75.48,2.49,2.49,0,0,1-.91.17,2.47,2.47,0,0,1-.95-.18,2.43,2.43,0,0,1-.78-.5A2.22,2.22,0,0,1,.2,3.35,2.25,2.25,0,0,1,0,2.42a2.3,2.3,0,0,1,.19-.95A2.58,2.58,0,0,1,.72.7,2.29,2.29,0,0,1,1.5.19a2.38,2.38,0,0,1,1-.19,2.49,2.49,0,0,1,.91.16,2.12,2.12,0,0,1,.75.49.83.83,0,0,1,.2.3.76.76,0,0,1,.08.32.8.8,0,0,1-.06.3.64.64,0,0,1-.19.25A.85.85,0,0,1,3.79,2a.69.69,0,0,1-.32,0,.84.84,0,0,1-.29-.13l-.25-.18a.78.78,0,0,0-.32-.14A.93.93,0,0,0,2.32,1.57Z"/></g></g></svg>