<?xml version="1.0" encoding="utf-8"?>
<!-- Generator: Adobe Illustrator 21.1.0, SVG Export Plug-In . SVG Version: 6.00 Build 0)  -->
<svg version="1.1" id="Capa_1" xmlns:serif="http://www.serif.com/"
	 xmlns="http://www.w3.org/2000/svg" xmlns:xlink="http://www.w3.org/1999/xlink" x="0px" y="0px" viewBox="0 0 1609.9 1707.2"
	 style="enable-background:new 0 0 1609.9 1707.2;" xml:space="preserve">
<style type="text/css">
	.st0{fill:#FF7918;}
	.st1{fill:#FAC911;}
	.st2{fill:#F8E618;}
	.st3{fill:#F5B510;}
	.st4{fill:#5B575E;}
	.st5{fill:#F88011;}
	.st6{fill:#FFFFFF;}
	.st7{fill:#D7B500;}
	.st8{fill:#7DCDCE;}
	.st9{fill:#EBDF9F;fill-opacity:0.61;}
	.st10{fill:#4AB2AC;}
	.st11{fill:#FFFFFF;fill-opacity:0.1;}
	.st12{fill:#FCFCFC;}
	.st13{fill-opacity:0.18;}
	.st14{fill:url(#SVGID_1_);}
	.st15{fill:url(#SVGID_2_);}
</style>
<g id="Logo" transform="matrix(1.03535,0,0,1.03535,-312.06,-331.568)">
	<g transform="matrix(0,-2.37827,-2.37827,0,374.618,335.49)">
		<path class="st0" d="M-361-616.9c-158.3,0-286.7,128.3-286.7,286.7C-647.7-172-519.3-43.6-361-43.6
			c158.3,0,286.7-128.3,286.7-286.7C-74.4-488.6-202.7-616.9-361-616.9"/>
	</g>
	<g id="Bus" transform="matrix(1,0,0,1,3.37461,3.90149)">
		<g transform="matrix(-2.37827,0,0,2.37827,630.291,-178.034)">
			<rect x="-356.7" y="708.1" class="st1" width="233.9" height="-125.1"/>
		</g>
		<path class="st2" d="M981.5,1506H863.2v-238.4c0-32.6,26.4-59.1,59.1-59.1c16.3,0,31.2,6.6,41.8,17.3
			c10.7,10.7,17.3,25.4,17.3,41.8V1506z M1537.8,1506h-118.2v-238.4c0-32.6,26.5-59.1,59.1-59.1c16.4,0,31.2,6.6,41.8,17.3
			c10.7,10.7,17.3,25.4,17.3,41.8V1506z"/>
		<path class="st3" d="M895.1,977.4c0.5-50.4,137.1-91.2,305.4-91.2c168.6,0,305.4,40.9,305.4,91.5V1217H895.1V977.7V977.4z"/>
		<path class="st4" d="M994,1507v83.7c0,8.5-6.9,15.4-15.4,15.4h-80.2c-8.5,0-15.4-6.9-15.4-15.4V1507H994z M1518,1507v83.7
			c0,8.5-6.9,15.4-15.4,15.4h-80.2c-8.5,0-15.4-6.9-15.4-15.4V1507H1518z M1572.4,1143.8v17.2l-66.5,40.1v-17.9l51.1-30.8v-8.5
			h-13.2c-7.1,0-12.8-5.8-12.8-12.9v-98c0-7.1,5.7-12.9,12.8-12.9h13.2v-5.1l-51.1-23.4v-13.9c0-1-0.1-2.1-0.2-3.1l66.7,30.5v15
			h13.2c7.1,0,12.9,5.8,12.9,12.9v98c0,7.1-5.8,12.9-12.9,12.9H1572.4z M845.6,1143.8v8.5l49.5,29.9v18l-64.9-39.1v-17.2H817
			c-7.1,0-12.9-5.8-12.9-12.9v-98c0-7.1,5.8-12.9,12.9-12.9h13.2v-15l65-29.7c-0.1,0.7-0.1,1.4-0.1,2.1v0.3v14.6l-49.5,22.6v5.1
			h13.2c7.1,0,12.9,5.8,12.9,12.9v98c0,7.1-5.8,12.9-12.9,12.9H845.6z"/>
		<path class="st5" d="M950.1,1352.1c0,15.4-12.4,27.8-27.8,27.8c-15.3,0-27.7-12.4-27.7-27.8s12.4-27.8,27.7-27.8
			C937.7,1324.4,950.1,1336.8,950.1,1352.1z M1506.4,1352.1c0,15.4-12.5,27.8-27.8,27.8c-15.3,0-27.8-12.4-27.8-27.8
			s12.4-27.8,27.8-27.8C1494,1324.4,1506.4,1336.8,1506.4,1352.1z"/>
		<path class="st6" d="M1518,1276.1c0,21.7-17.6,39.3-39.3,39.3c-21.7,0-39.3-17.6-39.3-39.3c0-21.7,17.6-39.3,39.3-39.3
			C1500.4,1236.7,1518,1254.4,1518,1276.1z M961.7,1276.1c0,21.7-17.6,39.3-39.3,39.3c-21.7,0-39.3-17.6-39.3-39.3
			c0-21.7,17.6-39.3,39.3-39.3C944.1,1236.7,961.7,1254.4,961.7,1276.1z"/>
		<path class="st7" d="M1390.1,1445.4v-155.3c0-25.8,16.5-47.8,39.6-55.8c-6.4,9.4-10.1,20.9-10.1,33.1v178H1390.1z M1379.2,1412.9
			h-357.4v-145.4h357.4V1412.9z"/>
		<g transform="matrix(2.37827,0,0,2.37827,406.986,413.884)">
			<path class="st8" d="M492,446.7c0,7.1-5.8,12.9-12.9,12.9H188.2c-7.1,0-12.9-5.8-12.9-12.9c0-3.6,1.4-6.8,3.8-9.1
				c2.3-2.4,5.6-3.8,9.1-3.8h290.8C486.2,433.7,492,439.5,492,446.7"/>
		</g>
		<g transform="matrix(2.37827,0,0,2.37827,390.158,408.493)">
			<path class="st9" d="M415.9,361.2v61.1h-9.5v-51.6H265.6v-9.5H415.9z"/>
		</g>
		<path class="st10" d="M1180,1173.9H935.9V1032H1180V1173.9z M1468.1,1173.9h-244.5V1032h244.5V1173.9z"/>
		<path class="st11" d="M1467.9,1032v142l-244.1-142H1467.9z M1180,1032v142l-244.1-142H1180z"/>
		<path class="st12" d="M1312.7,1542h-224.4v-57.7h224.4V1542z M1335.8,993.1h-270.7v-52.6h270.7V993.1z"/>
	</g>
	<g transform="matrix(0.965859,0,0,0.965859,301.406,320.248)">
		<path class="st13" d="M245,1018.9l279.2-279.2c-0.3,0.8-0.3,1.5-0.3,2.2v101.4c0,7.4,5.9,13.3,13.4,13.3h13.6v17.8l67.2,40.5v15.8
			c-19.5,10.1-33,30.6-33,54.2V1169h-8.8c-8.7,0-16.7,3.6-22.5,9.4c-5.8,5.6-9.4,13.6-9.4,22.5c0,17.7,14.3,31.9,31.9,31.9h29.4
			v86.7c0,8.9,7.1,15.9,15.9,15.9h83c8.8,0,16-7.1,16-15.9v-86.7h97.5v36.2h232.3v-36.2h97.7v86.7c0,8.9,7.1,15.9,15.9,15.9h83
			c4,0,7.8-1.5,10.6-4.1L1003,1585.9c-94.5,17.3-196.6,10.6-302.1-13.4C423.1,1509.4,255.1,1280.3,245,1018.9z M1303.4,856.7v8.9
			l-52.9,31.9V699.1l52.9,24.2v5.2h-13.6c-7.4,0-13.3,5.9-13.3,13.3v101.4c0,7.4,5.9,13.3,13.3,13.3H1303.4z M618.1,699.9v196.5
			l-51.3-30.9v-8.8h13.6c7.4,0,13.3-5.9,13.3-13.3V741.9c0-7.4-5.9-13.4-13.3-13.4h-13.6v-5.2L618.1,699.9z"/>
	</g>
	
		<linearGradient id="SVGID_1_" gradientUnits="userSpaceOnUse" x1="301.4053" y1="1359.1766" x2="303.5378" y2="1359.1766" gradientTransform="matrix(744.0074 0 0 -785.9048 -223944.4063 1069328.875)">
		<stop  offset="0" style="stop-color:#1A80F0"/>
		<stop  offset="0.19" style="stop-color:#1AA1F0"/>
		<stop  offset="0.4" style="stop-color:#1AC2F0"/>
		<stop  offset="1" style="stop-color:#1AD0F0"/>
	</linearGradient>
	<path class="st14" d="M322.5,974.1c-98.8,442.4,196,875.9,653.1,964.6c192.7,37.4,383.1,7.4,545.3-73c28.7-14.2,39-49,22.3-75.7
		c-17.7-28.4-56.5-35.5-84.2-16.1c-135.7,95.2-303.2,105.4-480.7,65.1c-311.8-70.9-480.5-358.4-432.7-659.7
		C596,861.9,899.6,672.9,1225,736c67.6,13.1,130.2,36.8,186.5,68.9c82.4,47,184.8,46.6,264.4-4.7l6.8-4.4
		c89.4-57.5,98.4-180.9,18.9-250.6c-114.4-100.4-259.2-171.4-423.9-198.1c-45.9-7.4-91.6-11-136.8-11
		C754.7,336,406.4,598.5,322.5,974.1z M1609.4,1676.7c-31.5,10.9-47.8,44.4-36.6,74.8c11.2,30.4,45.8,46.3,77.3,35.3
		c31.5-10.9,47.8-44.4,36.6-74.8c-8.8-23.9-32.1-38.8-57-38.8C1623,1673.3,1616.2,1674.4,1609.4,1676.7z M1723.2,1576.8
		c-23,7.9-35,32.4-26.8,54.7c8.2,22.2,33.5,33.8,56.5,25.9c23-8,34.9-32.4,26.7-54.7c-6.5-17.5-23.5-28.4-41.6-28.4
		C1733.1,1574.3,1728.1,1575.1,1723.2,1576.8z M1797.7,1492.4c-14.8,5.2-22.6,20.9-17.3,35.3c5.3,14.3,21.6,21.8,36.4,16.7
		c14.8-5.2,22.5-20.9,17.3-35.3c-4.2-11.3-15.2-18.3-26.9-18.3C1804.1,1490.8,1800.8,1491.4,1797.7,1492.4z"/>
	<g transform="matrix(123.508,0,0,-123.508,301.786,367.801)">
		
			<linearGradient id="SVGID_2_" gradientUnits="userSpaceOnUse" x1="-3.080849e-03" y1="-8.0278" x2="2.1292" y2="-8.0278" gradientTransform="matrix(5.5147 0 0 -5.5147 1.391535e-02 -1.8549)">
			<stop  offset="0" style="stop-color:#00BCEF"/>
			<stop  offset="1" style="stop-color:#44F2F2"/>
		</linearGradient>
		<path class="st15" d="M0.2-4.9C-0.1-6.2,0-7.6,0.5-8.7c-1,2.5,0.5,5.1,3.1,6.1s4.4,0,5.4-0.8c0.6-0.4,1.4-0.5,2.1-0.1l0.1,0
			C11.9-3,12-2,11.3-1.4c-0.9,0.8-2.1,1.4-3.4,1.6C7.5,0.2,7.2,0.2,6.8,0.2C3.7,0.2,0.8-1.9,0.2-4.9z"/>
	</g>
</g>
</svg>
