<svg xmlns="http://www.w3.org/2000/svg" viewBox="0 0 4.42 4.72"><defs><style>.cls-1{fill:#ff8000;fill-rule:evenodd;}</style></defs><title>GDFRecurso 4MICOSCOLOR</title><g id="Capa_2" data-name="Capa 2"><g id="Capa_1-2" data-name="Capa 1"><path class="cls-1" d="M.78,0a.67.67,0,0,1,.28.06.87.87,0,0,1,.25.15.78.78,0,0,1,.16.24.73.73,0,0,1,.06.3V2.36a1,1,0,0,0,.05.3.72.72,0,0,0,.14.26.55.55,0,0,0,.21.19.55.55,0,0,0,.29.08A.61.61,0,0,0,2.7,3a.83.83,0,0,0,.19-.52V.77A.72.72,0,0,1,3,.48.82.82,0,0,1,3.11.23.78.78,0,0,1,3.35.07.73.73,0,0,1,3.65,0,.8.8,0,0,1,4,.07a.78.78,0,0,1,.24.16.85.85,0,0,1,.17.25.72.72,0,0,1,.06.29V4a.73.73,0,0,1-.06.3.81.81,0,0,1-.17.24.72.72,0,0,1-.25.16.73.73,0,0,1-.3.06.7.7,0,0,1-.38-.1A.77.77,0,0,1,3,4.37a1.77,1.77,0,0,1-.47.25A1.37,1.37,0,0,1,2,4.71a1.74,1.74,0,0,1-.82-.19A2.16,2.16,0,0,1,.57,4a2.5,2.5,0,0,1-.42-.75A2.64,2.64,0,0,1,0,2.37V.75A.73.73,0,0,1,.06.45.78.78,0,0,1,.22.21,1,1,0,0,1,.47.06.73.73,0,0,1,.77,0Z"/></g></g></svg>