<svg xmlns="http://www.w3.org/2000/svg" viewBox="0 0 104.6 105.7"><defs><style>.cls-1{fill:#049dbf;}.cls-2{fill:#e8e3dd;}.cls-3{fill:#c0bbb5;}.cls-4{fill:#b9d16f;}.cls-5{fill:#87d0e1;}.cls-6,.cls-7{fill:#fbb03b;}.cls-6{opacity:0.5;}.cls-6,.cls-8{isolation:isolate;}.cls-8{font-size:1.73px;font-family:QuicksandBold-Regular, Quicksand;font-weight:700;}.cls-10,.cls-8{fill:#fff;}.cls-9{fill:#ea2e49;}.cls-11{fill:#727270;}</style></defs><title>Recurso 2</title><g id="Capa_2" data-name="Capa 2"><g id="Capa_1-2" data-name="Capa 1"><polygon class="cls-1" points="84.6 53.4 82.1 51.3 81.1 53.4 83.5 55.5 82.1 58.4 66.3 56.3 63.7 56 59.1 55.4 57.5 55.3 54.9 60.5 54.7 63.8 53.1 65.1 48.4 66 45.7 70.6 44.1 71.7 38.9 70.7 39.4 77.3 41.8 80.8 42.7 83.4 41.4 85.8 34.3 85.9 32.2 85.3 31.5 82.6 29.6 80.6 26.7 74.4 24.8 66.7 25.8 64.6 32.1 60.5 30.4 56.5 19.7 49.3 18.2 47.9 15.4 45.5 15.4 42.1 17.5 37.5 17.6 36.2 18.6 35.1 17.8 33.8 15.9 30.7 14.9 31.9 16.8 34.9 12.9 36.2 8.4 39.3 8.4 43.6 14.5 46.7 15.6 47.6 15.9 49.3 18.2 49.9 19.7 51.3 20.8 54 25 59.6 24.8 63 23.9 65.2 19.7 69.3 20.7 72.3 27.7 84 28.7 86.4 31.2 86.5 33.3 87.1 33.5 90.4 45.5 92.5 46 89.9 46.1 88.4 44.8 84.7 43.6 81.3 44.4 77.7 41.4 75.3 44.8 75.4 45.3 72.7 46.8 71.7 51.1 68.8 54.2 66.2 55.8 64.8 60.7 60.7 59.6 57 64.3 57.6 67 57.9 81.3 59.8 82.9 60.1 84.7 56.5 85.8 54.5 84.6 53.4"/><polygon class="cls-1" points="15.6 47.6 15.9 49.3 18.2 49.9 19.7 51.3 20.8 54 25 59.6 24.9 61 28.1 63.1 32.1 60.5 30.4 56.5 19.7 49.3 18.2 47.9 15.4 45.5 15.4 42.1 17.5 37.5 17.6 36.2 18.6 35.1 17.8 33.8 15.9 30.7 14.9 31.9 16.8 34.9 12.9 36.2 8.4 39.3 8.4 43.6 14.5 46.7 15.6 47.6"/><polygon class="cls-2" points="12.5 2.9 8.1 19.3 0.8 15.3 0 2.9 12.5 2.9"/><polygon class="cls-2" points="70 3.8 64.5 21.1 83.4 14.1 83.4 3.8 70 3.8"/><polygon class="cls-2" points="87.6 13.5 73.9 19.8 79.7 24.6 87.6 13.5"/><polygon class="cls-2" points="84.8 3.8 84.8 13.5 98.3 8.6 98.7 3.8 84.8 3.8"/><polygon class="cls-2" points="100.4 9.6 92.4 12.4 101.7 18.2 100.4 9.6"/><polygon class="cls-2" points="15.6 90.7 19.7 105.1 32.3 105.1 34.4 99.3 32.3 93.6 15.6 90.7"/><polygon class="cls-2" points="34.4 93.3 40.5 105.1 51.8 105.1 52.6 96.7 34.4 93.3"/><polygon class="cls-2" points="93.4 81.6 89.1 85.6 101.7 97.7 101.7 89.7 93.4 81.6"/><polygon class="cls-2" points="78.4 92.1 70.2 96.9 62.6 104.9 84.3 105.1 78.4 92.1"/><polygon class="cls-2" points="27.2 57.7 19.7 51.3 19.7 54.8 24.8 63 27.2 57.7"/><polygon class="cls-2" points="34.5 50.1 19.7 39.3 19.7 49.3 29 57.3 25.8 64.6 28 68.2 36.4 63.9 34.5 50.1"/><polygon class="cls-2" points="45.7 70.6 50.2 67.6 53.1 65.1 36.4 50.4 38.1 63.4 45.7 70.6"/><polygon class="cls-2" points="66.4 76.9 54.2 66.2 51.1 68.8 46.8 71.7 58.2 82.6 66.4 76.9"/><polygon class="cls-2" points="56.6 52.4 45.9 51.8 42.5 53.4 54.7 63.8 59 60.2 56.6 52.4"/><polygon class="cls-2" points="60.7 60.7 55.8 64.8 67.6 75 71.1 74.1 64.3 57.6 59.6 57 60.7 60.7"/><polygon class="cls-2" points="63.7 56 62.3 52.7 58.2 52.5 59.1 55.4 63.7 56"/><polygon class="cls-2" points="43.9 50.9 39.6 41.5 34 41.1 32.4 37.1 20.8 37.9 41.2 51.8 43.9 50.9"/><polygon class="cls-2" points="38.9 39.9 37.4 36.7 34 36.9 35 39.6 38.9 39.9"/><polygon class="cls-2" points="55.3 34.9 59.3 34.1 44.4 20.3 38.6 35.1 40.8 40 51.4 40.8 55.3 34.9"/><polygon class="cls-2" points="69.2 43.3 66.3 40.6 56.6 47 57.7 50.8 59.7 50.9 69.2 43.3"/><polygon class="cls-2" points="52.2 42.4 41.5 41.6 45.4 50.4 56.2 50.8 54.8 46.4 65.2 39.6 60.6 35.3 56.2 36.3 52.2 42.4"/><polygon class="cls-2" points="92.3 41.8 88.4 49.3 93.9 55.9 104.6 53.8 104.1 34.6 87.6 34.6 85.6 38.9 92.3 41.8"/><polygon class="cls-2" points="84.9 40.3 83.4 43.4 87.3 48.1 90.2 42.5 84.9 40.3"/><polygon class="cls-2" points="80.8 42.8 70.8 41.6 84.6 53.4 86.5 49.6 80.8 42.8"/><polygon class="cls-2" points="85.8 54.5 91.2 59.2 92.4 56.6 87.6 50.9 85.8 54.5"/><polygon class="cls-2" points="51.8 78.6 45.3 72.7 41.4 75.3 43.6 81.3 48.2 82.6 51.8 78.6"/><polygon class="cls-2" points="41.8 80.8 39.6 74.7 44.1 71.7 37.1 65.3 29.2 69.7 33.8 78.6 41.8 80.8"/><polygon class="cls-2" points="83.5 55.5 70 44.2 63.7 49.6 66.3 56.3 82.1 58.4 83.5 55.5"/><polygon class="cls-2" points="88.9 68.5 91.2 61.9 84.7 56.5 81.1 63.6 88.9 68.5"/><polygon class="cls-2" points="90 70.9 88.8 75.1 89.8 76.2 92.3 72.4 90 70.9"/><polygon class="cls-2" points="94 57.5 90.4 69.5 94.4 71.9 90.9 77.3 99.9 86.8 99.9 57.5 94 57.5"/><polygon class="cls-2" points="87.3 75.6 73.2 75 71.1 76.2 80.4 78.4 85.6 82.9 89.1 77.4 87.3 75.6"/><polygon class="cls-2" points="86.8 83.8 87.9 84.9 92.5 80.6 90.2 78.4 86.8 83.8"/><polygon class="cls-2" points="84.8 84 80.5 80.2 79.8 86.2 83.1 86.8 84.8 84"/><polygon class="cls-2" points="78.3 85.9 79.3 79.5 69.2 77 59.8 83.4 66.6 90.1 72.6 84.8 78.3 85.9"/><polygon class="cls-2" points="73 86.4 67.6 91.2 70.7 94.2 77.5 90.7 78 87.4 73 86.4"/><polygon class="cls-2" points="61.2 96.8 58.5 94.7 53.6 99.2 53.1 103.9 59.8 103.9 68.1 95.1 65.8 92.8 61.2 96.8"/><polygon class="cls-2" points="64.8 91.7 63.3 90.2 59.6 93.7 61.2 94.9 64.8 91.7"/><polygon class="cls-2" points="54.2 89.5 58.5 92.8 62.5 89.2 52.6 80.6 49.7 83.8 50.2 86.8 49.8 88.9 54.2 89.5"/><polygon class="cls-2" points="53.6 90.9 49.6 90.4 49 94.2 55.3 95.8 57.4 93.9 53.6 90.9"/><polygon class="cls-2" points="37.1 82.6 34.3 85.9 40.6 87.7 44.4 88.2 42.7 83.4 41.4 82.6 37.1 82.6"/><polygon class="cls-2" points="40.3 89.1 40.3 89.1 33.3 87.1 30.3 90.7 46.6 94.2 47.5 90.1 40.3 89.1"/><polygon class="cls-2" points="47.8 88.6 48.2 86.8 44.8 84.7 46.1 88.4 47.8 88.6"/><polygon class="cls-2" points="22.6 82.5 27.7 84 21.2 71.2 23.9 65.2 19.2 57.5 9.5 66 11.1 72.9 17.1 70.8 22.6 82.5"/><polygon class="cls-2" points="32.2 85.3 34.5 82.6 24.8 66.7 22.9 71.2 29.7 84.6 32.2 85.3"/><polygon class="cls-2" points="21.5 83.8 16.3 72.7 11.5 74.4 14.8 88.7 27.7 90.7 31.2 86.5 21.5 83.8"/><polygon class="cls-2" points="4.6 75.3 9.4 73.5 7.5 66.5 0.8 65.3 0.8 74.8 4.6 75.3"/><polygon class="cls-2" points="4.7 76.8 0.8 76.4 0.8 88.8 12.2 83.6 9.8 75 4.7 76.8"/><polygon class="cls-2" points="18.2 55.5 18.2 49.9 15.6 47.6 8.1 54.7 0.8 50.6 0.8 63.4 8 63.9 18.2 55.5"/><polygon class="cls-2" points="18.2 47.9 18.2 37.2 17.6 36.2 11.9 42.5 18.2 47.9"/><polygon class="cls-2" points="7.8 52.8 14.5 46.7 9.8 42.6 16.8 34.9 8.1 21.1 0.8 17.5 0.8 48.8 7.8 52.8"/><polygon class="cls-2" points="22 29.1 23.1 27.9 28.2 26.5 26.7 21.5 23.7 19.6 18.2 24.7 22 29.1"/><polygon class="cls-2" points="18.5 14.5 23.5 17.7 28.4 13.2 28.4 8.2 20.8 5.3 18.5 14.5"/><polygon class="cls-2" points="19.5 36.7 31.7 35.4 28.7 27.9 23.9 29.2 18.6 35.1 19.5 36.7"/><polygon class="cls-2" points="21 30.2 16.1 24.5 22.3 18.8 16.8 15.2 19.4 4.8 14.3 2.9 9.5 20.1 17.8 33.8 21 30.2"/><polygon class="cls-2" points="29.9 13.1 36.6 18.2 41.1 16.8 34.9 10.6 29.9 8.8 29.9 13.1"/><polygon class="cls-2" points="44.7 17.2 53.9 26 59.1 23.8 53.6 14.4 44.7 17.2"/><polygon class="cls-2" points="48.6 14.4 54.3 12.6 60.4 23.3 61.7 22.7 68.6 3.9 53.8 1.5 48.6 14.4"/><polygon class="cls-2" points="46.8 15 52.3 1.2 44.5 0 36.4 9.3 43.5 16 46.8 15"/><polygon class="cls-2" points="64.3 33 60 25.4 55.3 27.2 62.3 33.4 64.3 33"/><polygon class="cls-2" points="69.2 33.5 63.8 34.6 67.6 38 72.4 34.9 69.2 33.5"/><polygon class="cls-2" points="79 36.1 83.6 38 86.3 33.3 71.8 21.1 68.8 22.2 79 36.1"/><polygon class="cls-2" points="68.7 39 69.2 39.5 82.3 40.4 82.9 39.4 74 35.6 68.7 39"/><polygon class="cls-2" points="61.4 24.9 65.9 32.6 69.3 31.9 76.3 34.9 67.3 22.7 61.4 24.9"/><polygon class="cls-3" points="48.1 23.7 47.1 25.4 50.7 28.5 51.9 27.2 48.1 23.7"/><polygon class="cls-3" points="25.2 43.3 24.2 45.3 29.8 48.7 30.9 47.5 25.2 43.3"/><rect class="cls-3" x="30.3" y="57.9" width="2.1" height="2.6"/><polygon class="cls-3" points="87.9 39.9 90.9 41.2 92.4 37.5 89.3 36.3 87.9 39.9"/><polygon class="cls-3" points="45.4 50.4 47.8 50.5 48.8 48 45.8 46.8 44.8 49.1 45.4 50.4"/><rect class="cls-3" x="73.6" y="80.3" width="2.1" height="2.6"/><rect class="cls-3" x="70.1" y="80.3" width="2.1" height="2.6"/><rect class="cls-3" x="54.91" y="69.72" width="2.1" height="1.7" transform="translate(-34.03 66.97) rotate(-49.29)"/><rect class="cls-3" x="56.63" y="71.22" width="2.1" height="1.7" transform="translate(-34.57 68.8) rotate(-49.29)"/><rect class="cls-3" x="58.36" y="72.72" width="2.1" height="1.7" transform="translate(-35.11 70.63) rotate(-49.29)"/><polygon class="cls-3" points="21 91.6 18.7 91.2 17.8 94.8 20.1 95.4 21 91.6"/><polygon class="cls-3" points="22.5 93.6 21.1 93.4 20.7 95.5 22 95.8 22.5 93.6"/><polygon class="cls-3" points="24.3 93.6 23 93.4 22.5 95.5 23.8 95.8 24.3 93.6"/><polygon class="cls-3" points="26.1 93.6 24.8 93.4 24.3 95.5 25.6 95.8 26.1 93.6"/><polygon class="cls-3" points="16 57.3 17.5 56.1 17.5 53.7 16 53.7 16 57.3"/><polygon class="cls-3" points="10.8 61.2 10.8 58.4 9.3 58.4 9.3 62.1 9.3 62.8 9.3 62.8 10.8 61.6 10.8 61.2"/><polygon class="cls-3" points="15.3 55.3 13.8 55.3 13.8 59 13.8 59.2 15.3 57.9 15.3 55.3"/><polygon class="cls-3" points="13.1 59.7 13.1 56.8 11.6 56.8 11.6 60.6 11.6 61 13.1 59.7"/><polygon class="cls-3" points="33.8 78.6 36.2 79.3 36.4 74.9 33.7 72 30.8 72.9 33.8 78.6"/><polygon class="cls-3" points="73.6 14.8 72.4 14.8 69.4 16 69.6 19.2 76 16.8 73.6 14.8"/><polygon class="cls-3" points="80.5 15.2 82.1 14.5 82.1 10.7 80.5 10.7 80.5 15.2"/><polygon class="cls-4" points="90.4 13.5 80.8 26 88.6 32.7 98.6 32.7 101.7 20.3 90.4 13.5"/><polygon class="cls-4" points="12.2 85.8 0.8 91.4 0.8 104.8 17.7 104.8 12.2 85.8"/><polygon class="cls-4" points="87 74.1 88.4 70 79.1 64.1 81.3 59.8 67 57.9 73.3 74.1 87 74.1"/><polygon class="cls-4" points="86 85.1 83.8 88.5 79.7 87.7 79.3 90.7 86.9 105.7 99.3 105.7 101.7 99.2 86 85.1"/><polygon class="cls-4" points="29.2 14.5 24.8 18.6 27.9 20.6 29.9 26.7 33.3 35.2 37 34.8 43.5 19.1 42.4 18 36.3 19.9 29.2 14.5"/><path class="cls-5" d="M38.8,23.6c-.2-.3-.4-.5-.6-.8a4.05,4.05,0,0,0-3.6-1.3c-1.2.1-2.1,0-3,.8-.7.6-.5,1.9-.2,2.7.3.6.6,1,.9,1.6a10.93,10.93,0,0,0,.8,1.5,2.57,2.57,0,0,0,2.5,1.4,4.11,4.11,0,0,0,3-1.6,4.92,4.92,0,0,0,.6-2.9A5.73,5.73,0,0,0,38.8,23.6Z"/><circle class="cls-6" cx="26.5" cy="61.6" r="4.7"/><polygon class="cls-7" points="25.6 58.1 27 60.5 29.7 60.3 24.6 65.1 25.6 58.1"/><polygon class="cls-7" points="25.6 58.1 27 60.5 29.7 60.3 26.5 61.5 25.6 58.1"/><polygon class="cls-6" points="25.6 58.1 24.6 65.1 26.5 61.5 25.6 58.1"/><path class="cls-1" d="M80.4,51.5a.68.68,0,0,1-.7.7H71.2a.68.68,0,0,1-.7-.7V49.6a.68.68,0,0,1,.7-.7h8.5a.68.68,0,0,1,.7.7Z"/><path class="cls-1" d="M80.4,51.5a.68.68,0,0,1-.7.7H71.2a.68.68,0,0,1-.7-.7V49.6a.68.68,0,0,1,.7-.7h8.5a.68.68,0,0,1,.7.7Z"/><text class="cls-8" transform="translate(71.45 51.12)">6KM 20M</text><circle class="cls-9" cx="13.6" cy="26.3" r="2.7"/><polygon class="cls-9" points="13.6 31.1 11.5 28 15.8 28 13.6 31.1"/><circle class="cls-10" cx="13.6" cy="26.3" r="1.7"/><circle class="cls-9" cx="9.4" cy="71.7" r="2.7"/><polygon class="cls-9" points="9.4 76.5 7.3 73.3 11.6 73.3 9.4 76.5"/><circle class="cls-10" cx="9.4" cy="71.7" r="1.7"/><path class="cls-9" d="M62.3,87.4c-.1,0-.1,0-.2.1a.35.35,0,0,0-.1.2c0,.1,0,.1.1.2a.35.35,0,0,0,.2.1c.1,0,.1,0,.2-.1a.35.35,0,0,0,.1-.2c0-.1,0-.1-.1-.2A.31.31,0,0,0,62.3,87.4Z"/><path class="cls-9" d="M62.2,86.7l-.1.3h0c-.1,0-.1,0-.1.1v.7h.1v-.1c0-.1,0-.2.1-.2s.1-.1.2-.1a.22.22,0,0,1,.2.2v-.9Z"/><path class="cls-9" d="M63.6,87.4c-.1,0-.1,0-.2.1a.35.35,0,0,0-.1.2c0,.1,0,.1.1.2a.35.35,0,0,0,.2.1c.1,0,.1,0,.2-.1a.35.35,0,0,0,.1-.2c0-.1,0-.1-.1-.2S63.7,87.4,63.6,87.4Z"/><path class="cls-9" d="M62.5,86.4v1.4h.8v-.1c0-.1,0-.2.1-.2s.1-.1.2-.1.1,0,.2.1.1.1.1.2v.1H64V86.4Z"/><path class="cls-9" d="M15,26l-.5-.4V25h-.3v.4l-.5-.4-1.3,1,.2.3.1-.1v1.3h2V26.2l.1.1Zm-.6,1.2H14v-.7h-.7v.7h-.4V26l.8-.6.8.6v1.2Z"/><path class="cls-9" d="M9.9,70.3a.43.43,0,0,0-.4.4v.2h0c0,.2.1.3.3.4v1.6c0,.1,0,.1.1.1s.1,0,.1-.1V71.3c.2-.1.3-.2.3-.4v-.1h0A.46.46,0,0,0,9.9,70.3Z"/><path class="cls-9" d="M9.3,70.3h0l-.1.5c0,.1,0,.2-.1.2v-.7a.1.1,0,0,0-.2,0V71h0v-.7a.1.1,0,0,0-.2,0V71c0-.1-.1-.1-.1-.2v-.4a.1.1,0,1,0-.2,0v.4c0,.2.1.4.3.4v1.7c0,.1,0,.1.1.1s.1,0,.1-.1V71.3c.2-.1.3-.2.3-.4l.1-.6C9.4,70.4,9.4,70.3,9.3,70.3Z"/><path class="cls-11" d="M92.5,94.7v-.4a.47.47,0,0,1,.5-.5h1.9a2.93,2.93,0,0,0-.3-1,4,4,0,0,0-1-1.5,5.6,5.6,0,0,0-1.5-1c-.3-.1-.7-.2-1.1-.3v1.9a.47.47,0,0,1-.5.5h-.4a.47.47,0,0,1-.5-.5V90a4.51,4.51,0,0,0-1.1.3A4.6,4.6,0,0,0,86,92.8c-.1.3-.2.7-.3,1h2a.47.47,0,0,1,.5.5v.4a.47.47,0,0,1-.5.5h-2c.1.4.2.7.3,1a4.6,4.6,0,0,0,2.5,2.5c.3.1.7.2,1.1.3V97a.47.47,0,0,1,.5-.5h.3a.47.47,0,0,1,.5.5v2l1.1-.3a4.6,4.6,0,0,0,2.5-2.5c.1-.3.2-.7.3-1H92.9c-.2,0-.4-.3-.4-.5ZM91,88.8a8.33,8.33,0,0,1,1.5.4,7.61,7.61,0,0,1,1.9,1.2,5.94,5.94,0,0,1,1.3,1.8,8.33,8.33,0,0,1,.4,1.5h.6a.47.47,0,0,1,.5.5v.4a.47.47,0,0,1-.5.5h-.6a8.33,8.33,0,0,1-.4,1.5,4.63,4.63,0,0,1-1.3,1.8,4.74,4.74,0,0,1-1.9,1.2,8.33,8.33,0,0,1-1.5.4v.4a.47.47,0,0,1-.5.5h-.4a.47.47,0,0,1-.5-.5V100a8.33,8.33,0,0,1-1.5-.4,7.61,7.61,0,0,1-1.9-1.2,5.94,5.94,0,0,1-1.3-1.8,8.33,8.33,0,0,1-.4-1.5h-.6a.47.47,0,0,1-.5-.5v-.3a.47.47,0,0,1,.5-.5h.6a8.33,8.33,0,0,1,.4-1.5,4.63,4.63,0,0,1,1.3-1.8,4.74,4.74,0,0,1,1.9-1.2,8.33,8.33,0,0,1,1.5-.4v-.6a.47.47,0,0,1,.5-.5h.3a.47.47,0,0,1,.5.5v.5Z"/></g></g></svg>