<svg xmlns="http://www.w3.org/2000/svg" xmlns:xlink="http://www.w3.org/1999/xlink" viewBox="0 0 48732.86 14422.84"><defs><style>.cls-1,.cls-10,.cls-11,.cls-12,.cls-13,.cls-14,.cls-15,.cls-16,.cls-17,.cls-18,.cls-19,.cls-20,.cls-21,.cls-22,.cls-23,.cls-24,.cls-25,.cls-26,.cls-27,.cls-28,.cls-29,.cls-30,.cls-31,.cls-32,.cls-33,.cls-34,.cls-35,.cls-36,.cls-37,.cls-38,.cls-39,.cls-40,.cls-41,.cls-42,.cls-43,.cls-44,.cls-45,.cls-46,.cls-49,.cls-5,.cls-50,.cls-51,.cls-52,.cls-53,.cls-54,.cls-55,.cls-56,.cls-57,.cls-58,.cls-59,.cls-6,.cls-60,.cls-61,.cls-62,.cls-63,.cls-64,.cls-65,.cls-66,.cls-67,.cls-68,.cls-69,.cls-7,.cls-70,.cls-71,.cls-72,.cls-73,.cls-74,.cls-75,.cls-76,.cls-77,.cls-78,.cls-79,.cls-8,.cls-80,.cls-81,.cls-82,.cls-83,.cls-84,.cls-85,.cls-86,.cls-87,.cls-88,.cls-9{fill:none;}.cls-2{isolation:isolate;}.cls-3{clip-path:url(#clip-path);}.cls-4{mix-blend-mode:multiply;}.cls-5{stroke:#333;}.cls-10,.cls-11,.cls-12,.cls-13,.cls-14,.cls-15,.cls-16,.cls-17,.cls-18,.cls-19,.cls-20,.cls-21,.cls-22,.cls-23,.cls-24,.cls-25,.cls-26,.cls-27,.cls-28,.cls-29,.cls-30,.cls-31,.cls-32,.cls-33,.cls-34,.cls-35,.cls-36,.cls-37,.cls-38,.cls-39,.cls-40,.cls-41,.cls-42,.cls-43,.cls-44,.cls-45,.cls-46,.cls-49,.cls-5,.cls-50,.cls-51,.cls-52,.cls-53,.cls-54,.cls-55,.cls-56,.cls-57,.cls-58,.cls-59,.cls-6,.cls-60,.cls-61,.cls-62,.cls-63,.cls-64,.cls-65,.cls-66,.cls-67,.cls-68,.cls-69,.cls-7,.cls-70,.cls-71,.cls-72,.cls-73,.cls-74,.cls-75,.cls-76,.cls-77,.cls-78,.cls-79,.cls-8,.cls-80,.cls-81,.cls-82,.cls-83,.cls-84,.cls-85,.cls-86,.cls-87,.cls-88,.cls-9{stroke-miterlimit:10;}.cls-6{stroke:#5f5f63;opacity:0.98;}.cls-7{stroke:#636366;}.cls-50,.cls-7{opacity:0.95;}.cls-8{stroke:#67676a;opacity:0.93;}.cls-9{stroke:#6b6b6e;opacity:0.9;}.cls-10{stroke:#6f6f72;opacity:0.88;}.cls-11{stroke:#737376;opacity:0.85;}.cls-12{stroke:#77777a;opacity:0.83;}.cls-13{stroke:#7b7b7e;opacity:0.8;}.cls-14{stroke:#7f7f82;opacity:0.78;}.cls-15{stroke:#838386;opacity:0.76;}.cls-16{stroke:#87878a;opacity:0.73;}.cls-17{stroke:#8b8b8e;opacity:0.71;}.cls-18{stroke:#8f8f91;}.cls-18,.cls-61{opacity:0.68;}.cls-19{stroke:#939395;opacity:0.66;}.cls-20{stroke:#979799;opacity:0.63;}.cls-21{stroke:#9b9b9d;opacity:0.61;}.cls-22{stroke:#9f9fa1;opacity:0.59;}.cls-23{stroke:#a3a3a5;opacity:0.56;}.cls-24{stroke:#a7a7a9;opacity:0.54;}.cls-25{stroke:#ababad;}.cls-25,.cls-68{opacity:0.51;}.cls-26{stroke:#afafb1;opacity:0.49;}.cls-27{stroke:#b3b3b5;opacity:0.46;}.cls-28{stroke:#b7b7b9;opacity:0.44;}.cls-29{stroke:#bbbbbc;opacity:0.41;}.cls-30{stroke:#bfbfc0;opacity:0.39;}.cls-31{stroke:#c3c3c4;opacity:0.37;}.cls-32{stroke:#c7c7c8;opacity:0.34;}.cls-33{stroke:#cbcbcc;opacity:0.32;}.cls-34{stroke:#cfcfd0;opacity:0.29;}.cls-35{stroke:#d3d3d4;opacity:0.27;}.cls-36{stroke:#d7d7d8;opacity:0.24;}.cls-37{stroke:#dbdbdc;opacity:0.22;}.cls-38{stroke:#dfdfe0;opacity:0.2;}.cls-39{stroke:#e3e3e4;opacity:0.17;}.cls-40{stroke:#e7e7e8;opacity:0.15;}.cls-41,.cls-85{stroke:#ebebeb;}.cls-41{opacity:0.12;}.cls-42{stroke:#efefef;opacity:0.1;}.cls-43{stroke:#f3f3f3;opacity:0.07;}.cls-44{stroke:#f7f7f7;opacity:0.05;}.cls-45{stroke:#fbfbfb;opacity:0.02;}.cls-46{stroke:#fff;opacity:0;}.cls-47{clip-path:url(#clip-path-2);}.cls-48{opacity:0.8;}.cls-49{stroke:#383838;opacity:0.98;}.cls-50{stroke:#3d3d3d;}.cls-51{stroke:#424242;opacity:0.93;}.cls-52{stroke:#474747;opacity:0.9;}.cls-53{stroke:#4c4c4c;opacity:0.88;}.cls-54{stroke:#515151;opacity:0.85;}.cls-55{stroke:#565656;opacity:0.83;}.cls-56{stroke:#5b5b5b;opacity:0.8;}.cls-57{stroke:#606060;opacity:0.78;}.cls-58{stroke:#656565;opacity:0.76;}.cls-59{stroke:#6a6a6a;opacity:0.73;}.cls-60{stroke:#6f6f6f;opacity:0.71;}.cls-61{stroke:#747474;}.cls-62{stroke:#797979;opacity:0.66;}.cls-63{stroke:#7e7e7e;opacity:0.63;}.cls-64{stroke:#838383;opacity:0.61;}.cls-65{stroke:#888;opacity:0.59;}.cls-66{stroke:#8d8d8d;opacity:0.56;}.cls-67{stroke:#929292;opacity:0.54;}.cls-68{stroke:#979797;}.cls-69{stroke:#9c9c9c;opacity:0.49;}.cls-70{stroke:#a0a0a0;opacity:0.46;}.cls-71{stroke:#a5a5a5;opacity:0.44;}.cls-72{stroke:#aaa;opacity:0.41;}.cls-73{stroke:#afafaf;opacity:0.39;}.cls-74{stroke:#b4b4b4;opacity:0.37;}.cls-75{stroke:#b9b9b9;opacity:0.34;}.cls-76{stroke:#bebebe;opacity:0.32;}.cls-77{stroke:#c3c3c3;opacity:0.29;}.cls-78{stroke:#c8c8c8;opacity:0.27;}.cls-79{stroke:#cdcdcd;opacity:0.24;}.cls-80{stroke:#d2d2d2;opacity:0.22;}.cls-81{stroke:#d7d7d7;opacity:0.2;}.cls-82{stroke:#dcdcdc;opacity:0.17;}.cls-83{stroke:#e1e1e1;opacity:0.15;}.cls-84{stroke:#e6e6e6;opacity:0.12;}.cls-85{opacity:0.1;}.cls-86{stroke:#f0f0f0;opacity:0.07;}.cls-87{stroke:#f5f5f5;opacity:0.05;}.cls-88{stroke:#fafafa;opacity:0.02;}.cls-89{fill:url(#linear-gradient);}.cls-90{fill:url(#linear-gradient-2);}.cls-91{fill:url(#linear-gradient-3);}.cls-92{fill:url(#linear-gradient-4);}.cls-93{fill:url(#linear-gradient-5);}.cls-94{fill:url(#linear-gradient-6);}.cls-95{fill:url(#linear-gradient-7);}.cls-96{fill:url(#linear-gradient-8);}.cls-97{clip-path:url(#clip-path-3);}.cls-98,.cls-99{fill:#fff;}.cls-98{opacity:0.2;}.cls-99{opacity:0.1;}</style><clipPath id="clip-path" transform="translate(26094.65 4906.13)"><rect class="cls-1" x="-0.47" y="311.26" width="5399.09" height="6795.9"/></clipPath><clipPath id="clip-path-2" transform="translate(26094.65 4906.13)"><rect class="cls-1" x="-16.21" y="543.35" width="11751.42" height="6195.21"/></clipPath><linearGradient id="linear-gradient" x1="-13965.87" y1="1071.42" x2="14554.36" y2="1071.42" gradientTransform="matrix(-1, -0.08, 0.07, -1.16, 7593.13, 5768.38)" gradientUnits="userSpaceOnUse"><stop offset="0" stop-color="#6bb7c4"/><stop offset="1" stop-color="#60a9c5"/></linearGradient><linearGradient id="linear-gradient-2" x1="8616.4" y1="211.13" x2="-6542.71" y2="2403.75" gradientTransform="matrix(-1, -0.06, 0.07, -0.91, 7606.11, 5081.62)" xlink:href="#linear-gradient"/><linearGradient id="linear-gradient-3" x1="-9183.36" y1="687.44" x2="9627.38" y2="687.44" gradientTransform="translate(7933.24 4814.31) rotate(176.42)" xlink:href="#linear-gradient"/><linearGradient id="linear-gradient-4" x1="5689.07" y1="-253.12" x2="-4203.6" y2="1177.76" gradientTransform="matrix(-1, 0.07, -0.05, -0.91, 7907.11, 4578.34)" xlink:href="#linear-gradient"/><linearGradient id="linear-gradient-5" x1="-10863.12" y1="594.02" x2="8810.69" y2="594.02" gradientTransform="matrix(-1.23, 0.1, -0.2, -1.73, 9233.64, 6440.02)" xlink:href="#linear-gradient"/><linearGradient id="linear-gradient-6" x1="4711.64" y1="-382.79" x2="-5645.7" y2="1115.3" gradientTransform="matrix(-1.23, 0.11, -0.18, -1.57, 9171.71, 6031.85)" xlink:href="#linear-gradient"/><linearGradient id="linear-gradient-7" x1="-11580.44" y1="126.04" x2="11726.12" y2="126.04" gradientTransform="matrix(-1, 0, 0, -1, 7786.41, 5060.87)" xlink:href="#linear-gradient"/><linearGradient id="linear-gradient-8" x1="6863.97" y1="-700.65" x2="-5456.22" y2="1081.34" gradientTransform="matrix(-1, 0, 0, -0.91, 7774.74, 4824.29)" xlink:href="#linear-gradient"/><clipPath id="clip-path-3" transform="translate(26094.65 4906.13)"><path class="cls-1" d="M-1864.19,6176.55c9081.15-918.46,16278.7-529.31,16278.7-529.31l2679.68-669.17S5228.76,5290.5-968.3,3781Z"/></clipPath></defs><title>Banner Web2</title><g class="cls-2"><g id="Capa_1" data-name="Capa 1"><g class="cls-3"><g class="cls-4"><path class="cls-5" d="M-2294.44,7125.71s5462.26-12.94,8204.27,1812" transform="translate(26094.65 4906.13)"/><path class="cls-6" d="M-2294.44,7125.71s5468.69-1.87,8208,1826.08" transform="translate(26094.65 4906.13)"/><path class="cls-7" d="M-2294.44,7125.71s5475.12,9.21,8211.68,1840.19" transform="translate(26094.65 4906.13)"/><path class="cls-8" d="M-2294.44,7125.71S3187.11,7146,5920.94,8980" transform="translate(26094.65 4906.13)"/><path class="cls-9" d="M-2294.44,7125.71s5488,31.35,8219.08,1868.42" transform="translate(26094.65 4906.13)"/><path class="cls-10" d="M-2294.44,7125.71S3200,7168.13,5928.34,9008.24" transform="translate(26094.65 4906.13)"/><path class="cls-11" d="M-2294.44,7125.71S3206.39,7179.2,5932,9022.35" transform="translate(26094.65 4906.13)"/><path class="cls-12" d="M-2294.44,7125.71s5507.26,64.56,8230.18,1910.76" transform="translate(26094.65 4906.13)"/><path class="cls-13" d="M-2294.44,7125.71s5513.69,75.64,8233.88,1924.87" transform="translate(26094.65 4906.13)"/><path class="cls-14" d="M-2294.44,7125.71s5520.11,86.71,8237.58,1939" transform="translate(26094.65 4906.13)"/><path class="cls-15" d="M-2294.44,7125.71s5526.54,97.78,8241.28,1953.1" transform="translate(26094.65 4906.13)"/><path class="cls-16" d="M-2294.44,7125.71s5533,108.85,8245,1967.21" transform="translate(26094.65 4906.13)"/><path class="cls-17" d="M-2294.44,7125.71S3245,7245.63,5954.24,9107" transform="translate(26094.65 4906.13)"/><path class="cls-18" d="M-2294.44,7125.71s5545.83,131,8252.38,1995.43" transform="translate(26094.65 4906.13)"/><path class="cls-19" d="M-2294.44,7125.71s5552.25,142.07,8256.08,2009.55" transform="translate(26094.65 4906.13)"/><path class="cls-20" d="M-2294.44,7125.71s5558.68,153.14,8259.78,2023.66" transform="translate(26094.65 4906.13)"/><path class="cls-21" d="M-2294.44,7125.71S3270.67,7289.92,5969,9163.48" transform="translate(26094.65 4906.13)"/><path class="cls-22" d="M-2294.44,7125.71S3277.1,7301,5972.75,9177.6" transform="translate(26094.65 4906.13)"/><path class="cls-23" d="M-2294.44,7125.71s5578,186.35,8270.89,2066" transform="translate(26094.65 4906.13)"/><path class="cls-24" d="M-2294.44,7125.71S3290,7323.13,5980.15,9205.82" transform="translate(26094.65 4906.13)"/><path class="cls-25" d="M-2294.44,7125.71s5590.82,208.5,8278.29,2094.23" transform="translate(26094.65 4906.13)"/><path class="cls-26" d="M-2294.44,7125.71s5597.25,219.57,8282,2108.34" transform="translate(26094.65 4906.13)"/><path class="cls-27" d="M-2294.44,7125.71s5603.68,230.64,8285.69,2122.45" transform="translate(26094.65 4906.13)"/><path class="cls-28" d="M-2294.44,7125.71S3315.66,7367.42,5995,9262.27" transform="translate(26094.65 4906.13)"/><path class="cls-29" d="M-2294.44,7125.71s5616.53,252.78,8293.09,2150.68" transform="translate(26094.65 4906.13)"/><path class="cls-30" d="M-2294.44,7125.71s5623,263.85,8296.79,2164.79" transform="translate(26094.65 4906.13)"/><path class="cls-31" d="M-2294.44,7125.71S3335,7400.64,6006.05,9304.61" transform="translate(26094.65 4906.13)"/><path class="cls-32" d="M-2294.44,7125.71s5635.82,286,8304.19,2193" transform="translate(26094.65 4906.13)"/><path class="cls-33" d="M-2294.44,7125.71S3347.8,7422.78,6013.45,9332.84" transform="translate(26094.65 4906.13)"/><path class="cls-34" d="M-2294.44,7125.71S3354.23,7433.85,6017.15,9347" transform="translate(26094.65 4906.13)"/><path class="cls-35" d="M-2294.44,7125.71s5655.1,319.21,8315.29,2235.35" transform="translate(26094.65 4906.13)"/><path class="cls-36" d="M-2294.44,7125.71s5661.53,330.28,8319,2249.47" transform="translate(26094.65 4906.13)"/><path class="cls-37" d="M-2294.44,7125.71s5668,341.36,8322.69,2263.58" transform="translate(26094.65 4906.13)"/><path class="cls-38" d="M-2294.44,7125.71S3379.94,7478.14,6032,9403.4" transform="translate(26094.65 4906.13)"/><path class="cls-39" d="M-2294.44,7125.71s5680.81,363.5,8330.1,2291.81" transform="translate(26094.65 4906.13)"/><path class="cls-40" d="M-2294.44,7125.71s5687.24,374.57,8333.8,2305.92" transform="translate(26094.65 4906.13)"/><path class="cls-41" d="M-2294.44,7125.71s5693.67,385.64,8337.5,2320" transform="translate(26094.65 4906.13)"/><path class="cls-42" d="M-2294.44,7125.71s5700.09,396.71,8341.2,2334.14" transform="translate(26094.65 4906.13)"/><path class="cls-43" d="M-2294.44,7125.71S3412.08,7533.5,6050.46,9474" transform="translate(26094.65 4906.13)"/><path class="cls-44" d="M-2294.44,7125.71s5713,418.86,8348.6,2362.37" transform="translate(26094.65 4906.13)"/><path class="cls-45" d="M-2294.44,7125.71s5719.38,429.93,8352.3,2376.48" transform="translate(26094.65 4906.13)"/><path class="cls-46" d="M-2294.44,7125.71s5725.81,441,8356,2390.6" transform="translate(26094.65 4906.13)"/></g></g><g class="cls-47"><g class="cls-48"><g class="cls-4"><path class="cls-5" d="M21232.87,4660.49S3407.8,4627-5499.31,2107.08" transform="translate(26094.65 4906.13)"/><path class="cls-49" d="M21232.87,4660.49S3387.07,4611.76-5511.07,2087.76" transform="translate(26094.65 4906.13)"/><path class="cls-50" d="M21232.87,4660.49s-17866.53-63.93-26755.7-2592" transform="translate(26094.65 4906.13)"/><path class="cls-51" d="M21232.87,4660.49S3345.61,4581.37-5534.59,2049.11" transform="translate(26094.65 4906.13)"/><path class="cls-52" d="M21232.87,4660.49s-17908-94.31-26779.22-2630.7" transform="translate(26094.65 4906.13)"/><path class="cls-53" d="M21232.87,4660.49s-17928.72-109.5-26791-2650" transform="translate(26094.65 4906.13)"/><path class="cls-54" d="M21232.87,4660.49S3283.41,4535.8-5569.87,1991.14" transform="translate(26094.65 4906.13)"/><path class="cls-55" d="M21232.87,4660.49S3262.68,4520.6-5581.63,1971.82" transform="translate(26094.65 4906.13)"/><path class="cls-56" d="M21232.87,4660.49S3242,4505.41-5593.39,1952.5" transform="translate(26094.65 4906.13)"/><path class="cls-57" d="M21232.87,4660.49s-18011.65-170.27-26838-2727.32" transform="translate(26094.65 4906.13)"/><path class="cls-58" d="M21232.87,4660.49S3200.49,4475-5616.92,1913.85" transform="translate(26094.65 4906.13)"/><path class="cls-59" d="M21232.87,4660.49s-18053.11-200.66-26861.55-2766" transform="translate(26094.65 4906.13)"/><path class="cls-60" d="M21232.87,4660.49S3159,4444.64-5640.44,1875.2" transform="translate(26094.65 4906.13)"/><path class="cls-61" d="M21232.87,4660.49S3138.3,4429.45-5652.2,1855.88" transform="translate(26094.65 4906.13)"/><path class="cls-62" d="M21232.87,4660.49S3117.57,4414.26-5664,1836.56" transform="translate(26094.65 4906.13)"/><path class="cls-63" d="M21232.87,4660.49s-18136-261.42-26908.59-2843.26" transform="translate(26094.65 4906.13)"/><path class="cls-64" d="M21232.87,4660.49S3076.1,4383.87-5687.48,1797.91" transform="translate(26094.65 4906.13)"/><path class="cls-65" d="M21232.87,4660.49S3055.37,4368.68-5699.24,1778.59" transform="translate(26094.65 4906.13)"/><path class="cls-66" d="M21232.87,4660.49S3034.64,4353.49-5711,1759.26" transform="translate(26094.65 4906.13)"/><path class="cls-67" d="M21232.87,4660.49S3013.91,4338.3-5722.76,1739.94" transform="translate(26094.65 4906.13)"/><path class="cls-68" d="M21232.87,4660.49S2993.18,4323.1-5734.52,1720.62" transform="translate(26094.65 4906.13)"/><path class="cls-69" d="M21232.87,4660.49S2972.45,4307.91-5746.28,1701.29" transform="translate(26094.65 4906.13)"/><path class="cls-70" d="M21232.87,4660.49S2951.72,4292.72-5758,1682" transform="translate(26094.65 4906.13)"/><path class="cls-71" d="M21232.87,4660.49S2931,4277.53-5769.81,1662.64" transform="translate(26094.65 4906.13)"/><path class="cls-72" d="M21232.87,4660.49S2910.26,4262.34-5781.57,1643.32" transform="translate(26094.65 4906.13)"/><path class="cls-73" d="M21232.87,4660.49S2889.53,4247.14-5793.33,1624" transform="translate(26094.65 4906.13)"/><path class="cls-74" d="M21232.87,4660.49S2868.8,4232-5805.09,1604.67" transform="translate(26094.65 4906.13)"/><path class="cls-75" d="M21232.87,4660.49S2848.06,4216.76-5816.85,1585.35" transform="translate(26094.65 4906.13)"/><path class="cls-76" d="M21232.87,4660.49S2827.33,4201.57-5828.61,1566" transform="translate(26094.65 4906.13)"/><path class="cls-77" d="M21232.87,4660.49S2806.6,4186.37-5840.37,1546.7" transform="translate(26094.65 4906.13)"/><path class="cls-78" d="M21232.87,4660.49s-18447-489.31-27085-3133.11" transform="translate(26094.65 4906.13)"/><path class="cls-79" d="M21232.87,4660.49S2765.14,4156-5863.89,1508.06" transform="translate(26094.65 4906.13)"/><path class="cls-80" d="M21232.87,4660.49S2744.41,4140.8-5875.65,1488.73" transform="translate(26094.65 4906.13)"/><path class="cls-81" d="M21232.87,4660.49S2723.68,4125.61-5887.41,1469.41" transform="translate(26094.65 4906.13)"/><path class="cls-82" d="M21232.87,4660.49S2703,4110.41-5899.17,1450.09" transform="translate(26094.65 4906.13)"/><path class="cls-83" d="M21232.87,4660.49S2682.22,4095.22-5910.94,1430.76" transform="translate(26094.65 4906.13)"/><path class="cls-84" d="M21232.87,4660.49S2661.49,4080-5922.7,1411.44" transform="translate(26094.65 4906.13)"/><path class="cls-85" d="M21232.87,4660.49S2640.75,4064.84-5934.46,1392.12" transform="translate(26094.65 4906.13)"/><path class="cls-86" d="M21232.87,4660.49S2620,4049.64-5946.22,1372.79" transform="translate(26094.65 4906.13)"/><path class="cls-87" d="M21232.87,4660.49s-18633.58-626-27190.85-3307" transform="translate(26094.65 4906.13)"/><path class="cls-88" d="M21232.87,4660.49S2578.56,4019.26-5969.74,1334.15" transform="translate(26094.65 4906.13)"/><path class="cls-46" d="M21232.87,4660.49S2557.83,4004.07-5981.5,1314.82" transform="translate(26094.65 4906.13)"/></g><path class="cls-89" d="M-6979,5552.68c13810.84-1184.25,24481.05-175.15,24481.05-175.15l4173.75-1043.6s-17825.93-.29-26722.45-2916.8Z" transform="translate(26094.65 4906.13)"/><path class="cls-90" d="M-5675.91,5348.79c12454.61-804.54,22089.49-70.28,22089.49-70.28l3759.5-726.33S4087.72,4513.26-3959.13,2438.73Z" transform="translate(26094.65 4906.13)"/></g><g class="cls-48"><g class="cls-4"><path class="cls-5" d="M16827.23,4275s-11795,624.21-18206.44-719.24" transform="translate(26094.65 4906.13)"/><path class="cls-49" d="M16827.23,4275S5015.35,4890-1391,3543.44" transform="translate(26094.65 4906.13)"/><path class="cls-50" d="M16827.23,4275s-11828.73,605.62-18230-743.94" transform="translate(26094.65 4906.13)"/><path class="cls-51" d="M16827.23,4275S4981.64,4871.36-1414.53,3518.74" transform="translate(26094.65 4906.13)"/><path class="cls-52" d="M16827.23,4275s-11862.44,587-18253.54-768.64" transform="translate(26094.65 4906.13)"/><path class="cls-53" d="M16827.23,4275S4947.94,4852.77-1438.08,3494" transform="translate(26094.65 4906.13)"/><path class="cls-54" d="M16827.23,4275S4931.08,4843.47-1449.85,3481.68" transform="translate(26094.65 4906.13)"/><path class="cls-55" d="M16827.23,4275s-11913,559.15-18288.86-805.7" transform="translate(26094.65 4906.13)"/><path class="cls-56" d="M16827.23,4275S4897.38,4824.88-1473.4,3457" transform="translate(26094.65 4906.13)"/><path class="cls-57" d="M16827.23,4275s-11946.7,540.55-18312.41-830.4" transform="translate(26094.65 4906.13)"/><path class="cls-58" d="M16827.23,4275S4863.67,4806.29-1496.95,3432.28" transform="translate(26094.65 4906.13)"/><path class="cls-59" d="M16827.23,4275s-11980.41,522-18336-855.1" transform="translate(26094.65 4906.13)"/><path class="cls-60" d="M16827.23,4275S4830,4787.7-1520.5,3407.58" transform="translate(26094.65 4906.13)"/><path class="cls-61" d="M16827.23,4275S4813.11,4778.4-1532.28,3395.22" transform="translate(26094.65 4906.13)"/><path class="cls-62" d="M16827.23,4275S4796.26,4769.11-1544,3382.87" transform="translate(26094.65 4906.13)"/><path class="cls-63" d="M16827.23,4275s-12047.82,484.78-18383-904.51" transform="translate(26094.65 4906.13)"/><path class="cls-64" d="M16827.23,4275S4762.56,4750.52-1567.6,3358.17" transform="translate(26094.65 4906.13)"/><path class="cls-65" d="M16827.23,4275S4745.7,4741.22-1579.37,3345.82" transform="translate(26094.65 4906.13)"/><path class="cls-66" d="M16827.23,4275S4728.85,4731.93-1591.15,3333.47" transform="translate(26094.65 4906.13)"/><path class="cls-67" d="M16827.23,4275S4712,4722.63-1602.92,3321.12" transform="translate(26094.65 4906.13)"/><path class="cls-68" d="M16827.23,4275S4695.15,4713.34-1614.7,3308.76" transform="translate(26094.65 4906.13)"/><path class="cls-69" d="M16827.23,4275S4678.29,4704-1626.47,3296.41" transform="translate(26094.65 4906.13)"/><path class="cls-70" d="M16827.23,4275s-12165.79,419.72-18465.48-991" transform="translate(26094.65 4906.13)"/><path class="cls-71" d="M16827.23,4275S4644.59,4685.45-1650,3271.71" transform="translate(26094.65 4906.13)"/><path class="cls-72" d="M16827.23,4275s-12199.5,401.13-18489-1015.67" transform="translate(26094.65 4906.13)"/><path class="cls-73" d="M16827.23,4275S4610.88,4666.86-1673.57,3247" transform="translate(26094.65 4906.13)"/><path class="cls-74" d="M16827.23,4275S4594,4657.56-1685.34,3234.66" transform="translate(26094.65 4906.13)"/><path class="cls-75" d="M16827.23,4275S4577.18,4648.27-1697.12,3222.3" transform="translate(26094.65 4906.13)"/><path class="cls-76" d="M16827.23,4275S4560.32,4639-1708.89,3210" transform="translate(26094.65 4906.13)"/><path class="cls-77" d="M16827.23,4275S4543.47,4629.68-1720.67,3197.6" transform="translate(26094.65 4906.13)"/><path class="cls-78" d="M16827.23,4275S4526.62,4620.38-1732.44,3185.25" transform="translate(26094.65 4906.13)"/><path class="cls-79" d="M16827.23,4275S4509.76,4611.09-1744.22,3172.9" transform="translate(26094.65 4906.13)"/><path class="cls-80" d="M16827.23,4275S4492.91,4601.79-1756,3160.55" transform="translate(26094.65 4906.13)"/><path class="cls-81" d="M16827.23,4275S4476.06,4592.5-1767.77,3148.2" transform="translate(26094.65 4906.13)"/><path class="cls-82" d="M16827.23,4275S4459.21,4583.2-1779.54,3135.84" transform="translate(26094.65 4906.13)"/><path class="cls-83" d="M16827.23,4275S4442.35,4573.91-1791.31,3123.49" transform="translate(26094.65 4906.13)"/><path class="cls-84" d="M16827.23,4275S4425.5,4564.61-1803.09,3111.14" transform="translate(26094.65 4906.13)"/><path class="cls-85" d="M16827.23,4275S4408.65,4555.32-1814.86,3098.79" transform="translate(26094.65 4906.13)"/><path class="cls-86" d="M16827.23,4275S4391.8,4546-1826.64,3086.44" transform="translate(26094.65 4906.13)"/><path class="cls-87" d="M16827.23,4275S4374.94,4536.73-1838.41,3074.09" transform="translate(26094.65 4906.13)"/><path class="cls-88" d="M16827.23,4275S4358.09,4527.43-1850.19,3061.74" transform="translate(26094.65 4906.13)"/><path class="cls-46" d="M16827.23,4275S4341.24,4518.14-1862,3049.38" transform="translate(26094.65 4906.13)"/></g><path class="cls-91" d="M-1645.55,5888.11c8925.31-1155.74,16167.06-956.86,16167.06-956.86l2574-738.38s-11795.1,624.19-18206.36-719.2Z" transform="translate(26094.65 4906.13)"/><path class="cls-92" d="M-825.85,5706c8070.17-983.68,14593.71-847.52,14593.71-847.52L16104,4241.81S5458.29,4799.4-292.14,3719.26Z" transform="translate(26094.65 4906.13)"/></g><g class="cls-48"><g class="cls-4"><path class="cls-5" d="M22310.75,5593.47S6984.63,6696-1867.77,4214.24" transform="translate(26094.65 4906.13)"/><path class="cls-49" d="M22310.75,5593.47S6959.57,6679-1887.09,4191.58" transform="translate(26094.65 4906.13)"/><path class="cls-50" d="M22310.75,5593.47S6934.52,6661.88-1906.41,4168.92" transform="translate(26094.65 4906.13)"/><path class="cls-51" d="M22310.75,5593.47S6909.47,6644.8-1925.74,4146.26" transform="translate(26094.65 4906.13)"/><path class="cls-52" d="M22310.75,5593.47S6884.41,6627.73-1945.06,4123.61" transform="translate(26094.65 4906.13)"/><path class="cls-53" d="M22310.75,5593.47S6859.36,6610.65-1964.38,4101" transform="translate(26094.65 4906.13)"/><path class="cls-54" d="M22310.75,5593.47S6834.3,6593.57-1983.7,4078.29" transform="translate(26094.65 4906.13)"/><path class="cls-55" d="M22310.75,5593.47S6809.25,6576.49-2003,4055.63" transform="translate(26094.65 4906.13)"/><path class="cls-56" d="M22310.75,5593.47S6784.19,6559.42-2022.35,4033" transform="translate(26094.65 4906.13)"/><path class="cls-57" d="M22310.75,5593.47S6759.14,6542.34-2041.67,4010.32" transform="translate(26094.65 4906.13)"/><path class="cls-58" d="M22310.75,5593.47S6734.09,6525.26-2061,3987.66" transform="translate(26094.65 4906.13)"/><path class="cls-59" d="M22310.75,5593.47S6709,6508.19-2080.31,3965" transform="translate(26094.65 4906.13)"/><path class="cls-60" d="M22310.75,5593.47S6684,6491.11-2099.64,3942.34" transform="translate(26094.65 4906.13)"/><path class="cls-61" d="M22310.75,5593.47S6658.92,6474-2119,3919.69" transform="translate(26094.65 4906.13)"/><path class="cls-62" d="M22310.75,5593.47S6633.87,6457-2138.28,3897" transform="translate(26094.65 4906.13)"/><path class="cls-63" d="M22310.75,5593.47S6608.81,6439.88-2157.6,3874.37" transform="translate(26094.65 4906.13)"/><path class="cls-64" d="M22310.75,5593.47S6583.76,6422.8-2176.92,3851.71" transform="translate(26094.65 4906.13)"/><path class="cls-65" d="M22310.75,5593.47s-15752,812.25-24507-1764.41" transform="translate(26094.65 4906.13)"/><path class="cls-66" d="M22310.75,5593.47S6533.65,6388.64-2215.57,3806.4" transform="translate(26094.65 4906.13)"/><path class="cls-67" d="M22310.75,5593.47S6508.6,6371.57-2234.89,3783.74" transform="translate(26094.65 4906.13)"/><path class="cls-68" d="M22310.75,5593.47s-15827.21,761-24565-1832.39" transform="translate(26094.65 4906.13)"/><path class="cls-69" d="M22310.75,5593.47s-15852.26,743.94-24584.28-1855" transform="translate(26094.65 4906.13)"/><path class="cls-70" d="M22310.75,5593.47S6433.43,6320.33-2292.86,3715.77" transform="translate(26094.65 4906.13)"/><path class="cls-71" d="M22310.75,5593.47S6408.38,6303.26-2312.18,3693.11" transform="translate(26094.65 4906.13)"/><path class="cls-72" d="M22310.75,5593.47S6383.32,6286.18-2331.5,3670.45" transform="translate(26094.65 4906.13)"/><path class="cls-73" d="M22310.75,5593.47S6358.27,6269.1-2350.82,3647.79" transform="translate(26094.65 4906.13)"/><path class="cls-74" d="M22310.75,5593.47S6333.21,6252-2370.15,3625.14" transform="translate(26094.65 4906.13)"/><path class="cls-75" d="M22310.75,5593.47S6308.16,6235-2389.47,3602.48" transform="translate(26094.65 4906.13)"/><path class="cls-76" d="M22310.75,5593.47S6283.11,6217.87-2408.79,3579.82" transform="translate(26094.65 4906.13)"/><path class="cls-77" d="M22310.75,5593.47S6258.05,6200.79-2428.11,3557.16" transform="translate(26094.65 4906.13)"/><path class="cls-78" d="M22310.75,5593.47S6233,6183.72-2447.43,3534.51" transform="translate(26094.65 4906.13)"/><path class="cls-79" d="M22310.75,5593.47S6207.94,6166.64-2466.76,3511.85" transform="translate(26094.65 4906.13)"/><path class="cls-80" d="M22310.75,5593.47S6182.89,6149.56-2486.08,3489.19" transform="translate(26094.65 4906.13)"/><path class="cls-81" d="M22310.75,5593.47S6157.83,6132.48-2505.4,3466.53" transform="translate(26094.65 4906.13)"/><path class="cls-82" d="M22310.75,5593.47s-16178,521.94-24835.47-2149.6" transform="translate(26094.65 4906.13)"/><path class="cls-83" d="M22310.75,5593.47S6107.73,6098.33-2544,3421.22" transform="translate(26094.65 4906.13)"/><path class="cls-84" d="M22310.75,5593.47S6082.67,6081.25-2563.37,3398.56" transform="translate(26094.65 4906.13)"/><path class="cls-85" d="M22310.75,5593.47S6057.62,6064.18-2582.69,3375.9" transform="translate(26094.65 4906.13)"/><path class="cls-86" d="M22310.75,5593.47S6032.56,6047.1-2602,3353.24" transform="translate(26094.65 4906.13)"/><path class="cls-87" d="M22310.75,5593.47S6007.51,6030-2621.33,3330.59" transform="translate(26094.65 4906.13)"/><path class="cls-88" d="M22310.75,5593.47S5982.45,6012.94-2640.65,3307.93" transform="translate(26094.65 4906.13)"/><path class="cls-46" d="M22310.75,5593.47S5957.4,5995.87-2660,3285.27" transform="translate(26094.65 4906.13)"/></g><path class="cls-93" d="M-1495.07,8483.88C9890.25,6398.22,19480.44,6787.16,19480.44,6787.16L22638.21,5444s-15326,1102.57-24178.46-1379.2Z" transform="translate(26094.65 4906.13)"/><path class="cls-94" d="M-472.95,8153.27C9840.44,6379.66,18466.19,6651.34,18466.19,6651.34l2882.52-1121.16S7514.4,6514.7-386.7,4517.24Z" transform="translate(26094.65 4906.13)"/></g><g class="cls-4"><path class="cls-5" d="M19022.59,5021.92S4435.33,5406-3183.19,3550.2" transform="translate(26094.65 4906.13)"/><path class="cls-49" d="M19022.59,5021.92S4416.37,5394.06-3195.36,3534.67" transform="translate(26094.65 4906.13)"/><path class="cls-50" d="M19022.59,5021.92S4397.41,5382.11-3207.52,3519.13" transform="translate(26094.65 4906.13)"/><path class="cls-51" d="M19022.59,5021.92S4378.45,5370.16-3219.68,3503.59" transform="translate(26094.65 4906.13)"/><path class="cls-52" d="M19022.59,5021.92S4359.5,5358.21-3231.85,3488.05" transform="translate(26094.65 4906.13)"/><path class="cls-53" d="M19022.59,5021.92S4340.54,5346.26-3244,3472.52" transform="translate(26094.65 4906.13)"/><path class="cls-54" d="M19022.59,5021.92S4321.58,5334.31-3256.17,3457" transform="translate(26094.65 4906.13)"/><path class="cls-55" d="M19022.59,5021.92s-14720,300.44-22290.93-1580.48" transform="translate(26094.65 4906.13)"/><path class="cls-56" d="M19022.59,5021.92S4283.67,5310.41-3280.5,3425.9" transform="translate(26094.65 4906.13)"/><path class="cls-57" d="M19022.59,5021.92S4264.71,5298.46-3292.67,3410.36" transform="translate(26094.65 4906.13)"/><path class="cls-58" d="M19022.59,5021.92S4245.75,5286.51-3304.83,3394.83" transform="translate(26094.65 4906.13)"/><path class="cls-59" d="M19022.59,5021.92S4226.8,5274.56-3317,3379.29" transform="translate(26094.65 4906.13)"/><path class="cls-60" d="M19022.59,5021.92S4207.84,5262.61-3329.16,3363.75" transform="translate(26094.65 4906.13)"/><path class="cls-61" d="M19022.59,5021.92S4188.88,5250.66-3341.32,3348.21" transform="translate(26094.65 4906.13)"/><path class="cls-62" d="M19022.59,5021.92S4169.93,5238.71-3353.48,3332.68" transform="translate(26094.65 4906.13)"/><path class="cls-63" d="M19022.59,5021.92S4151,5226.76-3365.65,3317.14" transform="translate(26094.65 4906.13)"/><path class="cls-64" d="M19022.59,5021.92S4132,5214.81-3377.81,3301.6" transform="translate(26094.65 4906.13)"/><path class="cls-65" d="M19022.59,5021.92S4113.05,5202.86-3390,3286.06" transform="translate(26094.65 4906.13)"/><path class="cls-66" d="M19022.59,5021.92S4094.1,5190.91-3402.14,3270.53" transform="translate(26094.65 4906.13)"/><path class="cls-67" d="M19022.59,5021.92S4075.14,5179-3414.3,3255" transform="translate(26094.65 4906.13)"/><path class="cls-68" d="M19022.59,5021.92S4056.18,5167-3426.47,3239.45" transform="translate(26094.65 4906.13)"/><path class="cls-69" d="M19022.59,5021.92s-14985.36,133.14-22461.22-1798" transform="translate(26094.65 4906.13)"/><path class="cls-70" d="M19022.59,5021.92S4018.27,5143.11-3450.79,3208.37" transform="translate(26094.65 4906.13)"/><path class="cls-71" d="M19022.59,5021.92S3999.31,5131.16-3463,3192.84" transform="translate(26094.65 4906.13)"/><path class="cls-72" d="M19022.59,5021.92S3980.36,5119.21-3475.12,3177.3" transform="translate(26094.65 4906.13)"/><path class="cls-73" d="M19022.59,5021.92S3961.4,5107.26-3487.29,3161.76" transform="translate(26094.65 4906.13)"/><path class="cls-74" d="M19022.59,5021.92s-15080.15,73.39-22522-1875.7" transform="translate(26094.65 4906.13)"/><path class="cls-75" d="M19022.59,5021.92S3923.48,5083.36-3511.61,3130.69" transform="translate(26094.65 4906.13)"/><path class="cls-76" d="M19022.59,5021.92S3904.53,5071.41-3523.78,3115.15" transform="translate(26094.65 4906.13)"/><path class="cls-77" d="M19022.59,5021.92s-15137,37.54-22558.53-1922.31" transform="translate(26094.65 4906.13)"/><path class="cls-78" d="M19022.59,5021.92s-15156,25.59-22570.69-1937.85" transform="translate(26094.65 4906.13)"/><path class="cls-79" d="M19022.59,5021.92S3847.66,5035.56-3560.27,3068.54" transform="translate(26094.65 4906.13)"/><path class="cls-80" d="M19022.59,5021.92S3828.7,5023.61-3572.43,3053" transform="translate(26094.65 4906.13)"/><path class="cls-81" d="M19022.59,5021.92S3809.74,5011.66-3584.6,3037.46" transform="translate(26094.65 4906.13)"/><path class="cls-82" d="M19022.59,5021.92s-15231.81-22.21-22619.35-2000" transform="translate(26094.65 4906.13)"/><path class="cls-83" d="M19022.59,5021.92S3771.83,4987.76-3608.92,3006.38" transform="translate(26094.65 4906.13)"/><path class="cls-84" d="M19022.59,5021.92S3752.87,4975.81-3621.09,2990.85" transform="translate(26094.65 4906.13)"/><path class="cls-85" d="M19022.59,5021.92S3733.91,4963.86-3633.25,2975.31" transform="translate(26094.65 4906.13)"/><path class="cls-86" d="M19022.59,5021.92s-15307.63-70-22668-2062.15" transform="translate(26094.65 4906.13)"/><path class="cls-87" d="M19022.59,5021.92S3696,4940-3657.58,2944.23" transform="translate(26094.65 4906.13)"/><path class="cls-88" d="M19022.59,5021.92S3677,4928-3669.74,2928.7" transform="translate(26094.65 4906.13)"/><path class="cls-46" d="M19022.59,5021.92S3658.08,4916.06-3681.91,2913.16" transform="translate(26094.65 4906.13)"/></g><path class="cls-95" d="M-3940.22,6403.18C7224,5274,16072.49,5752.47,16072.49,5752.47L19366.9,4929.8S4779.65,5313.89-2838.73,3458.05Z" transform="translate(26094.65 4906.13)"/><path class="cls-96" d="M-2900.94,6206.3c10083.18-945.75,18062.16-567.52,18062.16-567.52l2980.07-681S4976.72,5297.32-1879.45,3785.92Z" transform="translate(26094.65 4906.13)"/><g class="cls-97"><g class="cls-47"><path class="cls-98" d="M-10873.82,2549.06C-7559.6,1893.27-3712.12,2390.6-2280.18,3660s-94,2830.06-3408.38,3485.9-7161.69,158.46-8593.79-1110.93C-15714.14,4765.58-14188.19,3204.9-10873.82,2549.06Z" transform="translate(26094.65 4906.13)"/><path class="cls-99" d="M-12994.93,3374.1C-9680.71,2718.25-5833.22,3215.64-4401.28,4485s-94,2830.06-3408.37,3485.91-7161.87,158.45-8593.81-1110.94C-17835.24,5590.58-16309.3,4029.88-12994.93,3374.1Z" transform="translate(26094.65 4906.13)"/><path class="cls-98" d="M-20027.28-4616.93c3314.22-655.85,7161.69-158.52,8593.63,1110.84S-11527.65-676-14842-20.22c-3314.22,655.85-7161.69,158.52-8593.63-1110.9S-23341.65-3961.15-20027.28-4616.93Z" transform="translate(26094.65 4906.13)"/><path class="cls-99" d="M-22148.39-3791.95c3314.22-655.85,7161.85-158.52,8593.65,1110.9s-94,2830-3408.38,3485.88-7161.71,158.45-8593.8-1110.91C-26988.71-1575.5-25462.76-3136.17-22148.39-3791.95Z" transform="translate(26094.65 4906.13)"/><path class="cls-99" d="M-15391.7-4107.5C-12077.33-4763.35-8230-4265.95-6798-2996.59s-94,2830-3408.38,3485.87-7161.71,158.46-8593.65-1110.91S-18706.07-3451.71-15391.7-4107.5Z" transform="translate(26094.65 4906.13)"/><path class="cls-98" d="M-9404.33-1658.38c2531-824.35,6042.06-706.75,7841.9,262.71s1207,2423.53-1324.15,3247.88-6042.06,706.76-7842-262.64S-11935.5-834-9404.33-1658.38Z" transform="translate(26094.65 4906.13)"/><path class="cls-99" d="M-5215-1593.33c2531-824.35,6041.91-706.76,7841.89,262.7,1799.83,969.4,1206.88,2423.54-1324.15,3247.89s-6042.21,706.76-7842-262.64S-7746.38-769-5215-1593.33Z" transform="translate(26094.65 4906.13)"/></g></g></g></g></g></svg>